# Blender 5.2.1 LTS
# www.blender.org
mtllib drug.mtl
o Body
v 0.000000 -0.017592 -0.555261
v 0.000000 2.017592 -0.475772
v 0.326374 -0.017592 -0.449215
v 0.279652 2.017592 -0.384908
v 0.528084 -0.017592 -0.171585
v 0.452486 2.017592 -0.147022
v 0.528084 -0.017592 0.171585
v 0.452486 2.017592 0.147022
v 0.326374 -0.017592 0.449215
v 0.279652 2.017592 0.384908
v 0.000000 -0.017592 0.555261
v 0.000000 2.017592 0.475772
v -0.326374 -0.017592 0.449215
v -0.279652 2.017592 0.384908
v -0.528084 -0.017592 0.171585
v -0.452486 2.017592 0.147022
v -0.528084 -0.017592 -0.171585
v -0.452486 2.017592 -0.147022
v -0.326374 -0.017592 -0.449215
v -0.279652 2.017592 -0.384908
v 0.326374 2.017592 -0.449215
v 0.000000 2.017592 -0.555261
v 0.528084 2.017592 -0.171585
v 0.528084 2.017592 0.171585
v 0.326374 2.017592 0.449215
v 0.000000 2.017592 0.555261
v -0.326374 2.017592 0.449215
v -0.528084 2.017592 0.171585
v -0.528084 2.017592 -0.171585
v -0.326374 2.017592 -0.449215
v 0.279652 0.405627 -0.384908
v 0.000000 0.405627 -0.475772
v 0.452487 0.405627 -0.147022
v 0.452487 0.405627 0.147022
v 0.279652 0.405627 0.384908
v 0.000000 0.405627 0.475772
v -0.279652 0.405627 0.384908
v -0.452486 0.405627 0.147022
v -0.452486 0.405627 -0.147022
v -0.279652 0.405627 -0.384908
v 0.000000 1.605222 -0.555261
v 0.326374 1.605222 -0.449215
v 0.528084 1.605222 -0.171585
v 0.528084 1.605222 0.171585
v 0.326374 1.605222 0.449215
v 0.000000 1.605222 0.555261
v -0.326374 1.605222 0.449215
v -0.528084 1.605222 0.171585
v -0.528084 1.605222 -0.171585
v -0.326374 1.605222 -0.449215
v 0.326374 0.272912 -0.449215
v 0.528084 0.272912 -0.171585
v 0.528084 0.272912 0.171585
v 0.326374 0.272912 0.449215
v 0.000000 0.272912 0.555261
v -0.326374 0.272912 0.449215
v -0.528084 0.272912 0.171585
v -0.528084 0.272912 -0.171585
v -0.326374 0.272912 -0.449215
v 0.000000 0.272912 -0.555261
vn 0.3090 -0.0000 -0.9511
vn 0.8090 -0.0000 -0.5878
vn 1.0000 -0.0000 -0.0000
vn 0.8090 -0.0000 0.5878
vn 0.3090 -0.0000 0.9511
vn -0.3090 -0.0000 0.9511
vn -0.8090 -0.0000 0.5878
vn -1.0000 -0.0000 -0.0000
vn -0.8090 -0.0000 -0.5878
vn -0.3090 -0.0000 -0.9511
vn -0.0000 -1.0000 -0.0000
vn -0.0000 1.0000 -0.0000
vt 1.000000 1.005419
vt 1.000000 1.000000
vt 0.900000 1.000000
vt 0.900000 1.005419
vt 0.800000 1.000000
vt 0.800000 1.005419
vt 0.700000 1.000000
vt 0.700000 1.005419
vt 0.600000 1.000000
vt 0.600000 1.005419
vt 0.500000 1.000000
vt 0.500000 1.005419
vt 0.400000 1.000000
vt 0.400000 1.005419
vt 0.300000 1.000000
vt 0.300000 1.005419
vt 0.200000 1.000000
vt 0.200000 1.005419
vt 0.054422 0.313547
vt 0.054422 0.186453
vt 0.100000 1.000000
vt 0.100000 1.005419
vt -0.000000 1.000000
vt -0.000000 1.005419
vt 0.750000 0.490000
vt 0.891068 0.444164
vt 0.978254 0.324164
vt 0.978254 0.175836
vt 0.891068 0.055836
vt 0.750000 0.010000
vt 0.608932 0.055836
vt 0.521746 0.175836
vt 0.521746 0.324164
vt 0.608932 0.444164
vt 0.250000 0.455643
vt 0.370874 0.416368
vt 0.391068 0.444164
vt 0.250000 0.490000
vt 0.445578 0.313547
vt 0.478254 0.324164
vt 0.445578 0.186453
vt 0.478254 0.175836
vt 0.370874 0.083631
vt 0.391068 0.055836
vt 0.250000 0.044357
vt 0.250000 0.010000
vt 0.129126 0.083631
vt 0.108932 0.055836
vt 0.021746 0.175836
vt 0.021746 0.324164
vt 0.129126 0.416368
vt 0.108932 0.444164
vt 0.100000 0.001614
vt -0.000000 0.001614
vt 0.200000 0.001614
vt 0.300000 0.001614
vt 0.400000 0.001614
vt 0.500000 0.001614
vt 0.600000 0.001614
vt 0.700000 0.001614
vt 0.800000 0.001614
vt 0.900000 0.001614
vt 1.000000 0.001615
vt 1.000000 0.500000
vt 0.900000 0.500000
vt 0.800000 0.500000
vt 0.700000 0.500000
vt 0.600000 0.500000
vt 0.500000 0.500000
vt 0.400000 0.500000
vt 0.300000 0.500000
vt 0.200000 0.500000
vt 0.100000 0.500000
vt -0.000000 0.500000
s 0
usemtl Material.003
f 41/1/1 22/2/1 21/3/1 42/4/1
f 42/4/2 21/3/2 23/5/2 43/6/2
f 43/6/3 23/5/3 24/7/3 44/8/3
f 44/8/4 24/7/4 25/9/4 45/10/4
f 45/10/5 25/9/5 26/11/5 46/12/5
f 46/12/6 26/11/6 27/13/6 47/14/6
f 47/14/7 27/13/7 28/15/7 48/16/7
f 48/16/8 28/15/8 29/17/8 49/18/8
f 18/19/3 16/20/3 38/20/3 39/19/3
f 49/18/9 29/17/9 30/21/9 50/22/9
f 50/22/10 30/21/10 22/23/10 41/24/10
f 1/25/11 3/26/11 5/27/11 7/28/11 9/29/11 11/30/11 13/31/11 15/32/11 17/33/11 19/34/11
f 2/35/12 4/36/12 21/37/12 22/38/12
f 4/36/12 6/39/12 23/40/12 21/37/12
f 6/39/12 8/41/12 24/42/12 23/40/12
f 8/41/12 10/43/12 25/44/12 24/42/12
f 10/43/12 12/45/12 26/46/12 25/44/12
f 12/45/12 14/47/12 27/48/12 26/46/12
f 14/47/12 16/20/12 28/49/12 27/48/12
f 16/20/12 18/19/12 29/50/12 28/49/12
f 18/19/12 20/51/12 30/52/12 29/50/12
f 20/51/12 2/35/12 22/38/12 30/52/12
f 31/36/12 32/35/12 40/51/12 39/19/12 38/20/12 37/47/12 36/45/12 35/43/12 34/41/12 33/39/12
f 12/45/10 10/43/10 35/43/10 36/45/10
f 6/39/7 4/36/7 31/36/7 33/39/7
f 20/51/4 18/19/4 39/19/4 40/51/4
f 14/47/1 12/45/1 36/45/1 37/47/1
f 8/41/8 6/39/8 33/39/8 34/41/8
f 2/35/5 20/51/5 40/51/5 32/35/5
f 16/20/2 14/47/2 37/47/2 38/20/2
f 10/43/9 8/41/9 34/41/9 35/43/9
f 4/36/6 2/35/6 32/35/6 31/36/6
f 1/64/1 60/63/1 51/62/1 3/65/1
f 3/65/2 51/62/2 52/61/2 5/66/2
f 5/66/3 52/61/3 53/60/3 7/67/3
f 7/67/4 53/60/4 54/59/4 9/68/4
f 9/68/5 54/59/5 55/58/5 11/69/5
f 11/69/6 55/58/6 56/57/6 13/70/6
f 13/70/7 56/57/7 57/56/7 15/71/7
f 15/71/8 57/56/8 58/55/8 17/72/8
f 17/72/9 58/55/9 59/53/9 19/73/9
f 19/73/10 59/53/10 60/54/10 1/74/10
usemtl Material.004
f 59/53/10 50/22/10 41/24/10 60/54/10
f 58/55/9 49/18/9 50/22/9 59/53/9
f 57/56/8 48/16/8 49/18/8 58/55/8
f 56/57/7 47/14/7 48/16/7 57/56/7
f 55/58/6 46/12/6 47/14/6 56/57/6
f 54/59/5 45/10/5 46/12/5 55/58/5
f 53/60/4 44/8/4 45/10/4 54/59/4
f 52/61/3 43/6/3 44/8/3 53/60/3
f 51/62/2 42/4/2 43/6/2 52/61/2
f 60/63/1 41/1/1 42/4/1 51/62/1
