# Blender 5.2.1 LTS
# www.blender.org
mtllib DrugFloor.mtl
o Cylinder
v 0.000000 0.859632 -0.410662
v 0.000000 1.240371 -0.375167
v 0.187584 1.240371 -0.324904
v 0.324904 1.240371 -0.187584
v 0.410662 0.859632 0.000000
v 0.375167 1.240371 0.000000
v 0.324904 1.240371 0.187584
v 0.187584 1.240371 0.324904
v 0.000000 0.859632 0.410662
v 0.000000 1.240371 0.375167
v -0.187584 1.240371 0.324904
v -0.324904 1.240371 0.187584
v -0.410662 0.859632 0.000000
v -0.375167 1.240371 0.000000
v -0.324904 1.240371 -0.187584
v -0.187584 1.240371 -0.324904
v 0.000000 1.240371 -0.468552
v 0.468552 1.240371 0.000000
v 0.000000 1.240371 0.468552
v -0.468552 1.240371 0.000000
v 0.187584 1.398097 -0.324904
v 0.000000 1.398097 -0.375167
v 0.324904 1.398097 -0.187584
v 0.375167 1.398097 0.000000
v 0.324904 1.398097 0.187584
v 0.187584 1.398097 0.324904
v 0.000000 1.398097 0.375167
v -0.187584 1.398097 0.324904
v -0.324904 1.398097 0.187584
v -0.375167 1.398097 0.000000
v -0.324904 1.398097 -0.187584
v -0.187584 1.398097 -0.324904
v 0.000000 0.859632 -0.587530
v 0.234276 0.859632 -0.524755
v 0.234276 1.240371 -0.524755
v 0.000000 1.240371 -0.587530
v -0.234276 1.240371 -0.524755
v -0.234276 0.859632 -0.524755
v -0.524755 1.240371 0.234276
v -0.524755 0.859632 0.234276
v -0.587530 0.859632 0.000000
v -0.587530 1.240371 0.000000
v -0.524755 0.859632 -0.234276
v -0.524755 1.240371 -0.234276
v 0.234276 1.240371 0.524755
v 0.234276 0.859632 0.524755
v 0.000000 0.859632 0.587530
v 0.000000 1.240371 0.587530
v -0.234276 0.859632 0.524755
v -0.234276 1.240371 0.524755
v 0.524755 1.240371 -0.234276
v 0.524755 0.859632 -0.234276
v 0.587530 0.859632 0.000000
v 0.587530 1.240371 0.000000
v 0.524755 0.859632 0.234276
v 0.524755 1.240371 0.234276
v 0.234276 0.859632 -0.455696
v 0.235239 0.859632 -0.325735
v 0.164475 0.859632 -0.366591
v 0.234954 0.859632 -0.445279
v 0.236963 0.859632 -0.433906
v 0.240225 0.859632 -0.422014
v 0.244614 0.859632 -0.410060
v 0.249963 0.859632 -0.398503
v 0.256066 0.859632 -0.387788
v 0.262687 0.859632 -0.378325
v 0.325735 0.859632 -0.235239
v 0.455696 0.859632 -0.234276
v 0.366591 0.859632 -0.164475
v 0.378325 0.859632 -0.262687
v 0.387788 0.859632 -0.256066
v 0.398503 0.859632 -0.249963
v 0.410060 0.859632 -0.244614
v 0.422014 0.859632 -0.240225
v 0.433906 0.859632 -0.236963
v 0.445279 0.859632 -0.234954
v 0.455696 0.859632 0.234276
v 0.325735 0.859632 0.235239
v 0.366591 0.859632 0.164475
v 0.445279 0.859632 0.234954
v 0.433906 0.859632 0.236963
v 0.422014 0.859632 0.240225
v 0.410060 0.859632 0.244614
v 0.398503 0.859632 0.249963
v 0.387788 0.859632 0.256066
v 0.378325 0.859632 0.262687
v 0.235239 0.859632 0.325735
v 0.234276 0.859632 0.455696
v 0.164475 0.859632 0.366591
v 0.262687 0.859632 0.378325
v 0.256066 0.859632 0.387788
v 0.249963 0.859632 0.398503
v 0.244614 0.859632 0.410060
v 0.240225 0.859632 0.422014
v 0.236963 0.859632 0.433906
v 0.234954 0.859632 0.445279
v -0.234276 0.859632 0.455696
v -0.235239 0.859632 0.325735
v -0.164475 0.859632 0.366591
v -0.234954 0.859632 0.445279
v -0.236963 0.859632 0.433906
v -0.240225 0.859632 0.422014
v -0.244614 0.859632 0.410060
v -0.249963 0.859632 0.398503
v -0.256066 0.859632 0.387788
v -0.262687 0.859632 0.378325
v -0.325735 0.859632 0.235239
v -0.455696 0.859632 0.234276
v -0.366591 0.859632 0.164475
v -0.378325 0.859632 0.262687
v -0.387788 0.859632 0.256066
v -0.398503 0.859632 0.249963
v -0.410060 0.859632 0.244614
v -0.422014 0.859632 0.240225
v -0.433906 0.859632 0.236963
v -0.445279 0.859632 0.234954
v -0.455696 0.859632 -0.234276
v -0.325735 0.859632 -0.235239
v -0.366591 0.859632 -0.164475
v -0.445279 0.859632 -0.234954
v -0.433906 0.859632 -0.236963
v -0.422014 0.859632 -0.240225
v -0.410060 0.859632 -0.244614
v -0.398503 0.859632 -0.249963
v -0.387788 0.859632 -0.256066
v -0.378325 0.859632 -0.262687
v -0.235239 0.859632 -0.325735
v -0.234276 0.859632 -0.455696
v -0.164475 0.859632 -0.366591
v -0.262687 0.859632 -0.378325
v -0.256066 0.859632 -0.387788
v -0.249963 0.859632 -0.398503
v -0.244614 0.859632 -0.410060
v -0.240225 0.859632 -0.422014
v -0.236963 0.859632 -0.433906
v -0.234954 0.859632 -0.445279
v 0.269573 1.240371 -0.370480
v 0.234276 1.240371 -0.455696
v 0.186059 1.240371 -0.418697
v 0.209317 1.240371 -0.362547
v 0.262687 1.240371 -0.378325
v 0.256066 1.240371 -0.387788
v 0.249963 1.240371 -0.398503
v 0.244614 1.240371 -0.410060
v 0.240225 1.240371 -0.422014
v 0.236963 1.240371 -0.433906
v 0.234954 1.240371 -0.445279
v 0.455696 1.240371 -0.234276
v 0.370480 1.240371 -0.269573
v 0.362547 1.240371 -0.209317
v 0.418697 1.240371 -0.186059
v 0.445279 1.240371 -0.234954
v 0.433906 1.240371 -0.236963
v 0.422014 1.240371 -0.240225
v 0.410060 1.240371 -0.244614
v 0.398503 1.240371 -0.249963
v 0.387788 1.240371 -0.256066
v 0.378325 1.240371 -0.262687
v 0.370480 1.240371 0.269573
v 0.455696 1.240371 0.234276
v 0.418697 1.240371 0.186059
v 0.362547 1.240371 0.209317
v 0.378325 1.240371 0.262687
v 0.387788 1.240371 0.256066
v 0.398503 1.240371 0.249963
v 0.410060 1.240371 0.244614
v 0.422014 1.240371 0.240225
v 0.433906 1.240371 0.236963
v 0.445279 1.240371 0.234954
v 0.234276 1.240371 0.455696
v 0.269573 1.240371 0.370480
v 0.209317 1.240371 0.362547
v 0.186059 1.240371 0.418697
v 0.234954 1.240371 0.445279
v 0.236963 1.240371 0.433906
v 0.240225 1.240371 0.422014
v 0.244614 1.240371 0.410060
v 0.249963 1.240371 0.398503
v 0.256066 1.240371 0.387788
v 0.262687 1.240371 0.378325
v -0.269573 1.240371 0.370480
v -0.234276 1.240371 0.455696
v -0.186059 1.240371 0.418697
v -0.209317 1.240371 0.362547
v -0.262687 1.240371 0.378325
v -0.256066 1.240371 0.387788
v -0.249963 1.240371 0.398503
v -0.244614 1.240371 0.410060
v -0.240225 1.240371 0.422014
v -0.236963 1.240371 0.433906
v -0.234954 1.240371 0.445279
v -0.455696 1.240371 0.234276
v -0.370480 1.240371 0.269573
v -0.362547 1.240371 0.209317
v -0.418697 1.240371 0.186059
v -0.445279 1.240371 0.234954
v -0.433906 1.240371 0.236963
v -0.422014 1.240371 0.240225
v -0.410060 1.240371 0.244614
v -0.398503 1.240371 0.249963
v -0.387788 1.240371 0.256066
v -0.378325 1.240371 0.262687
v -0.370480 1.240371 -0.269573
v -0.455696 1.240371 -0.234276
v -0.418697 1.240371 -0.186059
v -0.362547 1.240371 -0.209317
v -0.378325 1.240371 -0.262687
v -0.387788 1.240371 -0.256066
v -0.398503 1.240371 -0.249963
v -0.410060 1.240371 -0.244614
v -0.422014 1.240371 -0.240225
v -0.433906 1.240371 -0.236963
v -0.445279 1.240371 -0.234954
v -0.234276 1.240371 -0.455696
v -0.269573 1.240371 -0.370480
v -0.209317 1.240371 -0.362547
v -0.186059 1.240371 -0.418697
v -0.234954 1.240371 -0.445279
v -0.236963 1.240371 -0.433906
v -0.240225 1.240371 -0.422014
v -0.244614 1.240371 -0.410060
v -0.249963 1.240371 -0.398503
v -0.256066 1.240371 -0.387788
v -0.262687 1.240371 -0.378325
v 0.187584 1.450010 -0.324904
v 0.000000 1.450010 -0.375167
v 0.324904 1.450010 -0.187584
v 0.375167 1.450010 0.000000
v 0.324904 1.450010 0.187584
v 0.187584 1.450010 0.324904
v 0.000000 1.450010 0.375167
v -0.187584 1.450010 0.324904
v -0.324904 1.450010 0.187584
v -0.375167 1.450010 0.000000
v -0.324904 1.450010 -0.187584
v -0.187584 1.450010 -0.324904
v 0.269573 0.859632 -0.370480
v 0.186059 0.859632 -0.418697
v 0.418697 0.859632 -0.186059
v 0.370480 0.859632 -0.269573
v 0.370480 0.859632 0.269573
v 0.418697 0.859632 0.186059
v 0.186059 0.859632 0.418697
v 0.269573 0.859632 0.370480
v -0.269573 0.859632 0.370480
v -0.186059 0.859632 0.418697
v -0.418697 0.859632 0.186059
v -0.370480 0.859632 0.269573
v -0.370480 0.859632 -0.269573
v -0.418697 0.859632 -0.186059
v -0.186059 0.859632 -0.418697
v -0.269573 0.859632 -0.370480
v 0.000000 0.859632 -0.468552
v 0.468552 0.859632 0.000000
v 0.000000 0.859632 0.468552
v -0.468552 0.859632 0.000000
v 0.235239 0.917938 -0.325735
v 0.164475 0.917938 -0.366591
v 0.366591 0.917938 -0.164475
v 0.325735 0.917938 -0.235239
v 0.325735 0.917938 0.235239
v 0.366591 0.917938 0.164475
v 0.164475 0.917938 0.366591
v 0.235239 0.917938 0.325735
v -0.235239 0.917938 0.325735
v -0.164475 0.917938 0.366591
v -0.366591 0.917938 0.164475
v -0.325735 0.917938 0.235239
v -0.325735 0.917938 -0.235239
v -0.366591 0.917938 -0.164475
v -0.164475 0.917938 -0.366591
v -0.235239 0.917938 -0.325735
v 0.000000 0.917938 -0.410662
v 0.410662 0.917938 0.000000
v 0.000000 0.917938 0.410662
v -0.410662 0.917938 0.000000
v 0.235239 0.970811 -0.325735
v 0.164475 0.970811 -0.366591
v 0.366591 0.970811 -0.164475
v 0.325735 0.970811 -0.235239
v 0.325735 0.970811 0.235239
v 0.366591 0.970811 0.164475
v 0.164475 0.970811 0.366591
v 0.235239 0.970811 0.325735
v -0.235239 0.970811 0.325735
v -0.164475 0.970811 0.366591
v -0.366591 0.970811 0.164475
v -0.325735 0.970811 0.235239
v -0.325735 0.970811 -0.235239
v -0.366591 0.970811 -0.164475
v -0.164475 0.970811 -0.366591
v -0.235239 0.970811 -0.325735
v 0.000000 0.970811 -0.410662
v 0.410662 0.970811 0.000000
v 0.000000 0.970811 0.410662
v -0.410662 0.970811 0.000000
vn -0.9659 -0.0000 0.2588
vn 0.2588 -0.0000 0.9659
vn 0.9659 -0.0000 -0.2588
vn -0.9659 -0.0000 -0.2588
vn -0.2588 -0.0000 0.9659
vn 0.9659 -0.0000 0.2588
vn -0.7071 -0.0000 -0.7071
vn 0.2588 -0.0000 -0.9659
vn -0.7071 -0.0000 0.7071
vn 0.7071 -0.0000 0.7071
vn -0.2588 -0.0000 -0.9659
vn 0.7071 -0.0000 -0.7071
vn -0.0000 -1.0000 -0.0000
vn -0.0000 1.0000 -0.0000
vn 0.7516 -0.0000 -0.6597
vn 0.8193 -0.0000 -0.5733
vn 0.8690 -0.0000 -0.4949
vn 0.9075 -0.0000 -0.4200
vn 0.9387 -0.0000 -0.3447
vn 0.9644 -0.0000 -0.2645
vn 0.9848 -0.0000 -0.1739
vn 0.9979 -0.0000 -0.0650
vn 0.0650 -0.0000 -0.9979
vn 0.1739 -0.0000 -0.9848
vn 0.2645 -0.0000 -0.9644
vn 0.3447 -0.0000 -0.9387
vn 0.4200 -0.0000 -0.9075
vn 0.4949 -0.0000 -0.8690
vn 0.5733 -0.0000 -0.8193
vn 0.6597 -0.0000 -0.7516
vn 0.6597 -0.0000 0.7516
vn 0.5733 -0.0000 0.8193
vn 0.4949 -0.0000 0.8690
vn 0.4200 -0.0000 0.9075
vn 0.3447 -0.0000 0.9387
vn 0.2645 -0.0000 0.9644
vn 0.1739 -0.0000 0.9848
vn 0.0650 -0.0000 0.9979
vn 0.9979 -0.0000 0.0650
vn 0.9848 -0.0000 0.1739
vn 0.9644 -0.0000 0.2645
vn 0.9387 -0.0000 0.3447
vn 0.9075 -0.0000 0.4200
vn 0.8690 -0.0000 0.4949
vn 0.8193 -0.0000 0.5733
vn 0.7516 -0.0000 0.6597
vn -0.7516 -0.0000 0.6597
vn -0.8193 -0.0000 0.5733
vn -0.8690 -0.0000 0.4949
vn -0.9075 -0.0000 0.4200
vn -0.9387 -0.0000 0.3447
vn -0.9644 -0.0000 0.2645
vn -0.9848 -0.0000 0.1739
vn -0.9979 -0.0000 0.0650
vn -0.0650 -0.0000 0.9979
vn -0.1739 -0.0000 0.9848
vn -0.2645 -0.0000 0.9644
vn -0.3447 -0.0000 0.9387
vn -0.4200 -0.0000 0.9075
vn -0.4949 -0.0000 0.8690
vn -0.5733 -0.0000 0.8193
vn -0.6597 -0.0000 0.7516
vn -0.6597 -0.0000 -0.7516
vn -0.5733 -0.0000 -0.8193
vn -0.4949 -0.0000 -0.8690
vn -0.4200 -0.0000 -0.9075
vn -0.3447 -0.0000 -0.9387
vn -0.2645 -0.0000 -0.9644
vn -0.1739 -0.0000 -0.9848
vn -0.0650 -0.0000 -0.9979
vn -0.9979 -0.0000 -0.0650
vn -0.9848 -0.0000 -0.1739
vn -0.9644 -0.0000 -0.2645
vn -0.9387 -0.0000 -0.3447
vn -0.9075 -0.0000 -0.4200
vn -0.8690 -0.0000 -0.4949
vn -0.8193 -0.0000 -0.5733
vn -0.7516 -0.0000 -0.6597
vn 1.0000 -0.0000 -0.0000
vn -0.0000 -0.0000 -1.0000
vn -0.0000 -0.0000 1.0000
vn -1.0000 -0.0000 -0.0000
vn 0.5000 -0.0000 0.8660
vn -0.5000 -0.0000 -0.8660
vn 0.5000 -0.0000 -0.8660
vn 0.8660 -0.0000 -0.5000
vn 0.8660 -0.0000 0.5000
vn -0.5000 -0.0000 0.8660
vn -0.8660 -0.0000 0.5000
vn -0.8660 -0.0000 -0.5000
vt 0.057833 0.250000
vt 0.083579 0.153917
vt 0.250000 0.057833
vt 0.346083 0.083579
vt 0.442167 0.250000
vt 0.416421 0.346083
vt 0.083579 0.346083
vt 0.153917 0.083579
vt 0.416421 0.153917
vt 0.153917 0.416421
vt 0.346083 0.416421
vt 0.250000 0.442167
vt 1.000000 0.500000
vt 1.000000 1.000000
vt 0.916667 1.000000
vt 0.916667 0.500000
vt 0.083333 0.500000
vt 0.083333 1.000000
vt 0.000000 1.000000
vt 0.000000 0.500000
vt 0.333333 0.500000
vt 0.333333 1.000000
vt 0.250000 1.000000
vt 0.250000 0.500000
vt 0.166667 1.000000
vt 0.166667 0.500000
vt 0.583333 0.500000
vt 0.583333 1.000000
vt 0.500000 1.000000
vt 0.500000 0.500000
vt 0.416667 1.000000
vt 0.416667 0.500000
vt 0.833333 0.500000
vt 0.833333 1.000000
vt 0.750000 1.000000
vt 0.750000 0.500000
vt 0.666667 1.000000
vt 0.666667 0.500000
vt 0.866804 0.458703
vt 0.870347 0.478079
vt 0.845302 0.464464
vt 0.871376 0.472254
vt 0.873047 0.466163
vt 0.871551 0.456295
vt 0.875881 0.451965
vt 0.880188 0.447658
vt 0.884307 0.443539
vt 0.888080 0.439766
vt 0.939766 0.388080
vt 0.943785 0.384553
vt 0.964464 0.345302
vt 0.948631 0.381161
vt 0.964464 0.345302
vt 0.954120 0.378035
vt 0.956295 0.371551
vt 0.957846 0.370000
vt 0.958467 0.367682
vt 0.959115 0.365266
vt 0.959559 0.363608
vt 0.958703 0.133196
vt 0.978079 0.129653
vt 0.964464 0.154698
vt 0.972254 0.128624
vt 0.964464 0.154698
vt 0.966163 0.126953
vt 0.956295 0.128449
vt 0.951965 0.124119
vt 0.947658 0.119812
vt 0.943539 0.115693
vt 0.939766 0.111920
vt 0.888080 0.060234
vt 0.884553 0.056215
vt 0.845302 0.035536
vt 0.881161 0.051369
vt 0.845302 0.035536
vt 0.878035 0.045880
vt 0.871551 0.043705
vt 0.870000 0.042154
vt 0.867682 0.041533
vt 0.865266 0.040885
vt 0.863608 0.040441
vt 0.630000 0.042154
vt 0.629653 0.042247
vt 0.654698 0.035536
vt 0.628624 0.042523
vt 0.654698 0.035536
vt 0.626953 0.042970
vt 0.551194 0.120960
vt 0.546053 0.115447
vt 0.535536 0.154698
vt 0.545144 0.118839
vt 0.544307 0.121965
vt 0.542154 0.130000
vt 0.542154 0.370000
vt 0.542247 0.370347
vt 0.535536 0.345302
vt 0.542523 0.371376
vt 0.542970 0.373047
vt 0.620960 0.448806
vt 0.615447 0.453947
vt 0.654698 0.464464
vt 0.618839 0.454856
vt 0.654698 0.464464
vt 0.621965 0.455693
vt 0.630000 0.457846
vt 0.377386 0.445941
vt 0.384553 0.443785
vt 0.381161 0.448631
vt 0.378035 0.454120
vt 0.370000 0.457846
vt 0.367682 0.458467
vt 0.365266 0.459115
vt 0.366804 0.458703
vt 0.345302 0.464464
vt 0.357216 0.435703
vt 0.457846 0.370000
vt 0.478079 0.370347
vt 0.472254 0.371376
vt 0.466163 0.373047
vt 0.456295 0.371551
vt 0.451965 0.375881
vt 0.447658 0.380188
vt 0.443539 0.384307
vt 0.439766 0.388080
vt 0.435703 0.357216
vt 0.460348 0.352432
vt 0.439766 0.111920
vt 0.443785 0.115447
vt 0.448631 0.118839
vt 0.454120 0.121965
vt 0.456295 0.128449
vt 0.457846 0.130000
vt 0.460348 0.147568
vt 0.435703 0.142784
vt 0.370000 0.042154
vt 0.370347 0.042247
vt 0.371376 0.042523
vt 0.373047 0.042970
vt 0.379040 0.051194
vt 0.359346 0.056345
vt 0.345302 0.035536
vt 0.111920 0.060234
vt 0.115447 0.056215
vt 0.118839 0.051369
vt 0.121965 0.045880
vt 0.128449 0.043705
vt 0.130000 0.042154
vt 0.147568 0.039652
vt 0.142784 0.064297
vt 0.042154 0.130000
vt 0.042247 0.129653
vt 0.042523 0.128624
vt 0.042970 0.126953
vt 0.051194 0.120960
vt 0.056345 0.140654
vt 0.035536 0.154698
vt 0.051194 0.379040
vt 0.046053 0.384553
vt 0.045145 0.381161
vt 0.044307 0.378035
vt 0.042154 0.370000
vt 0.035536 0.345302
vt 0.056345 0.359346
vt 0.130000 0.457846
vt 0.129653 0.478079
vt 0.128624 0.472254
vt 0.126953 0.466163
vt 0.128449 0.456295
vt 0.124119 0.451965
vt 0.119812 0.447658
vt 0.115693 0.443539
vt 0.111920 0.439766
vt 0.142784 0.435703
vt 0.147568 0.460348
vt 0.899516 1.000000
vt 0.899515 0.500000
vt 0.903095 0.500000
vt 0.903095 1.000000
vt 0.907002 0.500000
vt 0.907002 1.000000
vt 0.911088 0.500000
vt 0.911088 1.000000
vt 0.916667 0.500000
vt 0.916667 1.000000
vt 0.916667 1.000000
vt 0.838912 0.500000
vt 0.838912 1.000000
vt 0.842998 0.500000
vt 0.842998 1.000000
vt 0.846906 0.500000
vt 0.846906 1.000000
vt 0.850485 0.500000
vt 0.850485 1.000000
vt 0.649516 1.000000
vt 0.649516 0.500000
vt 0.653095 0.500000
vt 0.653095 1.000000
vt 0.657002 0.500000
vt 0.657002 1.000000
vt 0.661088 0.500000
vt 0.661088 1.000000
vt 0.583333 1.000000
vt 0.588912 0.500000
vt 0.588912 1.000000
vt 0.592998 0.500000
vt 0.592998 1.000000
vt 0.596906 0.500000
vt 0.596906 1.000000
vt 0.600485 0.500000
vt 0.600485 1.000000
vt 0.399516 1.000000
vt 0.399516 0.500000
vt 0.403095 0.500000
vt 0.403095 1.000000
vt 0.407002 0.500000
vt 0.407002 1.000000
vt 0.411088 0.500000
vt 0.411088 1.000000
vt 0.416667 0.500000
vt 0.416667 1.000000
vt 0.338912 0.500000
vt 0.338912 1.000000
vt 0.342998 0.500000
vt 0.342998 1.000000
vt 0.346906 0.500000
vt 0.346906 1.000000
vt 0.350485 0.500000
vt 0.350485 1.000000
vt 0.149516 1.000000
vt 0.149516 0.500000
vt 0.153095 0.500000
vt 0.153095 1.000000
vt 0.157002 0.500000
vt 0.157002 1.000000
vt 0.161088 0.500000
vt 0.161088 1.000000
vt 0.083333 1.000000
vt 0.088912 0.500000
vt 0.088912 1.000000
vt 0.092998 0.500000
vt 0.092998 1.000000
vt 0.096906 0.500000
vt 0.096906 1.000000
vt 0.100485 0.500000
vt 0.100485 1.000000
vt 0.870521 0.416938
vt 0.916862 0.370571
vt 0.750000 0.490000
vt 0.870000 0.457846
vt 0.990000 0.250000
vt 0.957846 0.370000
vt 0.957846 0.130000
vt 0.750000 0.010000
vt 0.510000 0.250000
vt 0.250000 0.490000
vt 0.490000 0.250000
vt 0.250000 0.010000
vt 0.010000 0.250000
vt 0.834287 0.437879
vt 0.937784 0.334320
vt 0.916839 0.129578
vt 0.937770 0.165822
vt 0.834224 0.062312
vt 0.870477 0.083231
vt 0.628370 0.084370
vt 0.665510 0.062543
vt 0.611920 0.060234
vt 0.560663 0.167426
vt 0.578400 0.134354
vt 0.584271 0.371729
vt 0.562434 0.334600
vt 0.560234 0.388080
vt 0.667329 0.439434
vt 0.634260 0.421693
vt 0.750102 0.460516
vt 0.960350 0.250063
vt 0.749952 0.039761
vt 0.539595 0.250214
s 0
usemtl Material.001
f 14/1/1 12/2/1 29/2/1 30/1/1
f 27/3/2 26/4/2 230/4/2 231/3/2
f 10/3/2 8/4/2 26/4/2 27/3/2
f 6/5/3 4/6/3 23/6/3 24/5/3
f 15/7/4 14/1/4 30/1/4 31/7/4
f 11/8/5 10/3/5 27/3/5 28/8/5
f 7/9/6 6/5/6 24/5/6 25/9/6
f 16/10/7 15/7/7 31/7/7 32/10/7
f 3/11/8 2/12/8 22/12/8 21/11/8
f 12/2/9 11/8/9 28/8/9 29/2/9
f 8/4/10 7/9/10 25/9/10 26/4/10
f 2/12/11 16/10/11 32/10/11 22/12/11
f 4/6/12 3/11/12 21/11/12 23/6/12
f 33/13/8 36/14/8 35/15/8 34/16/8
f 38/17/11 37/18/11 36/19/11 33/20/11
f 40/21/1 39/22/1 42/23/1 41/24/1
f 41/24/4 42/23/4 44/25/4 43/26/4
f 46/27/2 45/28/2 48/29/2 47/30/2
f 47/30/5 48/29/5 50/31/5 49/32/5
f 52/33/3 51/34/3 54/35/3 53/36/3
f 53/36/6 54/35/6 56/37/6 55/38/6
f 57/39/13 60/40/13 238/41/13
f 60/40/13 61/42/13 238/41/13
f 61/42/13 62/43/13 238/41/13
f 62/43/13 63/44/13 238/41/13
f 63/44/13 64/45/13 238/41/13
f 64/45/13 65/46/13 238/41/13
f 65/46/13 66/47/13 238/41/13
f 66/47/13 237/48/13 238/41/13
f 240/49/13 70/50/13 239/51/13
f 70/50/13 71/52/13 239/53/13
f 71/52/13 72/54/13 239/53/13
f 72/54/13 73/55/13 239/53/13
f 73/55/13 74/56/13 239/53/13
f 74/56/13 75/57/13 239/53/13
f 75/57/13 76/58/13 239/53/13
f 76/58/13 68/59/13 239/53/13
f 77/60/13 80/61/13 242/62/13
f 80/61/13 81/63/13 242/64/13
f 81/63/13 82/65/13 242/64/13
f 82/65/13 83/66/13 242/64/13
f 83/66/13 84/67/13 242/64/13
f 84/67/13 85/68/13 242/64/13
f 85/68/13 86/69/13 242/64/13
f 86/69/13 241/70/13 242/64/13
f 244/71/13 90/72/13 243/73/13
f 90/72/13 91/74/13 243/75/13
f 91/74/13 92/76/13 243/75/13
f 92/76/13 93/77/13 243/75/13
f 93/77/13 94/78/13 243/75/13
f 94/78/13 95/79/13 243/75/13
f 95/79/13 96/80/13 243/75/13
f 96/80/13 88/81/13 243/75/13
f 97/82/13 100/83/13 246/84/13
f 100/83/13 101/85/13 246/86/13
f 101/85/13 102/87/13 246/86/13
f 102/87/13 103/82/13 246/86/13
f 103/82/13 104/82/13 246/86/13
f 104/82/13 105/82/13 246/86/13
f 105/82/13 106/82/13 246/86/13
f 106/82/13 245/82/13 246/86/13
f 248/88/13 110/89/13 247/90/13
f 110/89/13 111/91/13 247/90/13
f 111/91/13 112/92/13 247/90/13
f 112/92/13 113/93/13 247/90/13
f 113/93/13 114/93/13 247/90/13
f 114/93/13 115/93/13 247/90/13
f 115/93/13 116/93/13 247/90/13
f 116/93/13 108/93/13 247/90/13
f 117/94/13 120/95/13 250/96/13
f 120/95/13 121/97/13 250/96/13
f 121/97/13 122/98/13 250/96/13
f 122/98/13 123/94/13 250/96/13
f 123/94/13 124/94/13 250/96/13
f 124/94/13 125/94/13 250/96/13
f 125/94/13 126/94/13 250/96/13
f 126/94/13 249/94/13 250/96/13
f 252/99/13 130/100/13 251/101/13
f 130/100/13 131/102/13 251/103/13
f 131/102/13 132/104/13 251/103/13
f 132/104/13 133/105/13 251/103/13
f 133/105/13 134/105/13 251/103/13
f 134/105/13 135/105/13 251/103/13
f 135/105/13 136/105/13 251/103/13
f 136/105/13 128/105/13 251/103/13
f 137/106/14 141/107/14 142/108/14 143/109/14 144/110/14 145/110/14 146/111/14 147/112/14 138/113/14 139/114/14 140/115/14
f 148/116/14 152/117/14 153/118/14 154/119/14 155/120/14 156/121/14 157/122/14 158/123/14 149/124/14 150/125/14 151/126/14
f 159/127/14 163/128/14 164/129/14 165/130/14 166/131/14 167/132/14 168/132/14 169/132/14 160/132/14 161/133/14 162/134/14
f 170/135/14 174/136/14 175/137/14 176/138/14 177/135/14 178/135/14 179/135/14 180/135/14 171/139/14 172/140/14 173/141/14
f 181/142/14 185/143/14 186/144/14 187/145/14 188/146/14 189/147/14 190/147/14 191/147/14 182/147/14 183/148/14 184/149/14
f 192/150/14 196/151/14 197/152/14 198/153/14 199/150/14 200/150/14 201/150/14 202/150/14 193/154/14 194/155/14 195/156/14
f 203/157/14 207/158/14 208/159/14 209/160/14 210/161/14 211/161/14 212/161/14 213/161/14 204/161/14 205/162/14 206/163/14
f 214/164/14 218/165/14 219/166/14 220/167/14 221/168/14 222/169/14 223/170/14 224/171/14 215/172/14 216/173/14 217/174/14
f 137/175/15 237/176/15 66/177/15 141/178/15
f 141/178/16 66/177/16 65/179/16 142/180/16
f 142/180/17 65/179/17 64/181/17 143/182/17
f 143/182/18 64/181/18 63/16/18 144/15/18
f 144/15/19 63/16/19 62/183/19 145/184/19
f 145/184/20 62/183/20 61/183/20 146/184/20
f 146/184/21 61/183/21 60/16/21 147/185/21
f 147/185/22 60/16/22 57/16/22 138/184/22
f 148/34/23 68/33/23 76/33/23 152/34/23
f 152/34/24 76/33/24 75/33/24 153/34/24
f 153/34/25 75/33/25 74/33/25 154/34/25
f 154/34/26 74/33/26 73/33/26 155/34/26
f 155/34/27 73/33/27 72/186/27 156/187/27
f 156/187/28 72/186/28 71/188/28 157/189/28
f 157/189/29 71/188/29 70/190/29 158/191/29
f 158/191/30 70/190/30 240/192/30 149/193/30
f 159/194/31 241/195/31 86/196/31 163/197/31
f 163/197/32 86/196/32 85/198/32 164/199/32
f 164/199/33 85/198/33 84/200/33 165/201/33
f 165/201/34 84/200/34 83/38/34 166/37/34
f 166/37/35 83/38/35 82/38/35 167/37/35
f 167/37/36 82/38/36 81/38/36 168/37/36
f 168/37/37 81/38/37 80/38/37 169/37/37
f 169/37/38 80/38/38 77/38/38 160/37/38
f 170/202/39 88/27/39 96/27/39 174/28/39
f 174/28/40 96/27/40 95/27/40 175/28/40
f 175/28/41 95/27/41 94/27/41 176/28/41
f 176/28/42 94/27/42 93/27/42 177/28/42
f 177/28/43 93/27/43 92/203/43 178/204/43
f 178/204/44 92/203/44 91/205/44 179/206/44
f 179/206/45 91/205/45 90/207/45 180/208/45
f 180/208/46 90/207/46 244/209/46 171/210/46
f 181/211/47 245/212/47 106/213/47 185/214/47
f 185/214/48 106/213/48 105/215/48 186/216/48
f 186/216/49 105/215/49 104/217/49 187/218/49
f 187/218/50 104/217/50 103/32/50 188/31/50
f 188/31/51 103/32/51 102/219/51 189/31/51
f 189/31/52 102/219/52 101/32/52 190/31/52
f 190/31/53 101/32/53 100/219/53 191/220/53
f 191/220/54 100/219/54 97/32/54 182/31/54
f 192/22/55 108/21/55 116/21/55 196/22/55
f 196/22/56 116/21/56 115/21/56 197/22/56
f 197/22/57 115/21/57 114/21/57 198/22/57
f 198/22/58 114/21/58 113/21/58 199/22/58
f 199/22/59 113/21/59 112/221/59 200/222/59
f 200/222/60 112/221/60 111/223/60 201/224/60
f 201/224/61 111/223/61 110/225/61 202/226/61
f 202/226/62 110/225/62 248/227/62 193/228/62
f 203/229/63 249/230/63 126/231/63 207/232/63
f 207/232/64 126/231/64 125/233/64 208/234/64
f 208/234/65 125/233/65 124/235/65 209/236/65
f 209/236/66 124/235/66 123/26/66 210/25/66
f 210/25/67 123/26/67 122/26/67 211/25/67
f 211/25/68 122/26/68 121/26/68 212/25/68
f 212/25/69 121/26/69 120/26/69 213/25/69
f 213/25/70 120/26/70 117/26/70 204/25/70
f 214/18/71 128/17/71 136/17/71 218/18/71
f 218/18/72 136/17/72 135/17/72 219/237/72
f 219/237/73 135/17/73 134/17/73 220/18/73
f 220/18/74 134/17/74 133/17/74 221/18/74
f 221/18/75 133/17/75 132/238/75 222/239/75
f 222/239/76 132/238/76 131/240/76 223/241/76
f 223/241/77 131/240/77 130/242/77 224/243/77
f 224/243/78 130/242/78 252/244/78 215/245/78
f 58/246/9 67/247/9 260/247/9 257/246/9
f 138/184/79 57/16/79 34/16/79 35/15/79
f 57/39/13 238/41/13 253/248/13 33/248/13 34/249/13
f 237/176/12 137/175/12 149/193/12 240/192/12
f 254/250/13 239/51/13 68/251/13 52/56/13 53/250/13
f 68/33/80 148/34/80 51/34/80 52/33/80
f 77/60/13 242/62/13 254/250/13 53/250/13 55/252/13
f 241/195/10 159/194/10 171/210/10 244/209/10
f 160/37/81 77/38/81 55/38/81 56/37/81
f 255/253/13 243/73/13 88/78/13 46/78/13 47/253/13
f 88/27/79 170/202/79 45/28/79 46/27/79
f 97/82/13 246/84/13 255/253/13 47/253/13 49/82/13
f 245/212/9 181/211/9 193/228/9 248/227/9
f 182/31/82 97/32/82 49/32/82 50/31/82
f 256/254/13 247/90/13 108/93/13 40/93/13 41/254/13
f 108/21/81 192/22/81 39/22/81 40/21/81
f 204/25/80 117/26/80 43/26/80 44/25/80
f 117/94/13 250/96/13 256/254/13 41/254/13 43/94/13
f 249/230/7 203/229/7 215/245/7 252/244/7
f 253/248/13 251/101/13 128/105/13 38/105/13 33/248/13
f 128/17/82 214/18/82 37/18/82 38/17/82
f 17/255/14 139/114/14 138/113/14 35/110/14 36/255/14
f 2/12/14 3/11/14 140/115/14 139/114/14 17/255/14
f 3/11/14 4/6/14 150/125/14 149/124/14 137/106/14 140/115/14
f 148/116/14 151/126/14 18/256/14 54/256/14 51/116/14
f 4/6/14 6/5/14 18/256/14 151/126/14 150/125/14
f 18/256/14 161/133/14 160/132/14 56/132/14 54/256/14
f 6/5/14 7/9/14 162/134/14 161/133/14 18/256/14
f 7/9/14 8/4/14 172/140/14 171/139/14 159/127/14 162/134/14
f 170/135/14 173/141/14 19/257/14 48/257/14 45/135/14
f 8/4/14 10/3/14 19/257/14 173/141/14 172/140/14
f 11/8/14 12/2/14 194/155/14 193/154/14 181/142/14 184/149/14
f 19/257/14 183/148/14 182/147/14 50/147/14 48/257/14
f 10/3/14 11/8/14 184/149/14 183/148/14 19/257/14
f 192/150/14 195/156/14 20/258/14 42/258/14 39/150/14
f 12/2/14 14/1/14 20/258/14 195/156/14 194/155/14
f 20/258/14 205/162/14 204/161/14 44/161/14 42/258/14
f 14/1/14 15/7/14 206/163/14 205/162/14 20/258/14
f 15/7/14 16/10/14 216/173/14 215/172/14 203/157/14 206/163/14
f 214/164/14 217/174/14 17/255/14 36/255/14 37/164/14
f 16/10/14 2/12/14 17/255/14 217/174/14 216/173/14
f 225/11/14 226/12/14 236/10/14 235/7/14 234/1/14 233/2/14 232/8/14 231/3/14 230/4/14 229/9/14 228/5/14 227/6/14
f 24/5/3 23/6/3 227/6/3 228/5/3
f 31/7/4 30/1/4 234/1/4 235/7/4
f 28/8/5 27/3/5 231/3/5 232/8/5
f 25/9/6 24/5/6 228/5/6 229/9/6
f 32/10/7 31/7/7 235/7/7 236/10/7
f 21/11/8 22/12/8 226/12/8 225/11/8
f 29/2/9 28/8/9 232/8/9 233/2/9
f 26/4/10 25/9/10 229/9/10 230/4/10
f 22/12/11 32/10/11 236/10/11 226/12/11
f 23/6/12 21/11/12 225/11/12 227/6/12
f 30/1/1 29/2/1 233/2/1 234/1/1
f 58/246/13 59/259/13 238/41/13 237/48/13
f 69/260/13 67/247/13 240/49/13 239/51/13
f 78/261/13 79/262/13 242/62/13 241/70/13
f 89/263/13 87/264/13 244/71/13 243/73/13
f 98/265/13 99/266/13 246/84/13 245/267/13
f 109/268/13 107/269/13 248/88/13 247/90/13
f 118/270/13 119/271/13 250/96/13 249/272/13
f 129/273/13 127/274/13 252/99/13 251/101/13
f 1/275/13 129/273/13 251/101/13 253/248/13
f 59/259/13 1/275/13 253/248/13 238/41/13
f 67/247/13 58/246/13 237/48/13 240/49/13
f 5/276/13 69/260/13 239/51/13 254/250/13
f 79/262/13 5/276/13 254/250/13 242/62/13
f 87/264/13 78/261/13 241/70/13 244/71/13
f 9/277/13 89/263/13 243/73/13 255/253/13
f 99/266/13 9/277/13 255/253/13 246/84/13
f 107/269/13 98/265/13 245/267/13 248/88/13
f 13/278/13 109/268/13 247/90/13 256/254/13
f 119/271/13 13/278/13 256/254/13 250/96/13
f 127/274/13 118/270/13 249/272/13 252/99/13
f 272/274/83 271/273/83 291/273/83 292/274/83
f 87/264/84 89/263/84 263/263/84 264/264/84
f 13/278/6 119/271/6 270/271/6 276/278/6
f 69/260/1 5/276/1 274/276/1 259/260/1
f 99/266/85 98/265/85 265/265/85 266/266/85
f 118/270/10 127/274/10 272/274/10 269/270/10
f 5/276/4 79/262/4 262/262/4 274/276/4
f 107/269/86 109/268/86 267/268/86 268/269/86
f 78/261/7 87/264/7 264/264/7 261/261/7
f 119/271/87 118/270/87 269/270/87 270/271/87
f 89/263/11 9/277/11 275/277/11 263/263/11
f 127/274/83 129/273/83 271/273/83 272/274/83
f 59/259/88 58/246/88 257/246/88 258/259/88
f 9/277/8 99/266/8 266/266/8 275/277/8
f 129/273/2 1/275/2 273/275/2 271/273/2
f 67/247/89 69/260/89 259/260/89 260/247/89
f 98/265/12 107/269/12 268/269/12 265/265/12
f 1/275/5 59/259/5 258/259/5 273/275/5
f 79/262/90 78/261/90 261/261/90 262/262/90
f 109/268/3 13/278/3 276/278/3 267/268/3
f 293/275/13 278/259/13 277/246/13 280/247/13 279/260/13 294/276/13 282/262/13 281/261/13 284/264/13 283/263/13 295/277/13 286/266/13 285/265/13 288/269/13 287/268/13 296/278/13 290/271/13 289/270/13 292/274/13 291/273/13
f 258/259/88 257/246/88 277/246/88 278/259/88
f 275/277/8 266/266/8 286/266/8 295/277/8
f 271/273/2 273/275/2 293/275/2 291/273/2
f 260/247/89 259/260/89 279/260/89 280/247/89
f 265/265/12 268/269/12 288/269/12 285/265/12
f 273/275/5 258/259/5 278/259/5 293/275/5
f 262/262/90 261/261/90 281/261/90 282/262/90
f 267/268/3 276/278/3 296/278/3 287/268/3
f 257/246/9 260/247/9 280/247/9 277/246/9
f 264/264/84 263/263/84 283/263/84 284/264/84
f 276/278/6 270/271/6 290/271/6 296/278/6
f 259/260/1 274/276/1 294/276/1 279/260/1
f 266/266/85 265/265/85 285/265/85 286/266/85
f 269/270/10 272/274/10 292/274/10 289/270/10
f 274/276/4 262/262/4 282/262/4 294/276/4
f 268/269/86 267/268/86 287/268/86 288/269/86
f 261/261/7 264/264/7 284/264/7 281/261/7
f 270/271/87 269/270/87 289/270/87 290/271/87
f 263/263/11 275/277/11 295/277/11 283/263/11
