# Blender 5.2.1 LTS
# www.blender.org
mtllib payphone.mtl
o BTN.*
v 3.128807 2.574913 1.240175
v 3.027093 2.530466 1.264457
v 3.023285 2.559308 1.283614
v 3.017555 2.550275 1.252914
v 3.026993 2.883888 1.284274
v 3.017754 2.874854 1.265235
v 3.023423 2.903248 1.253147
v 3.023423 2.530914 0.942833
v 3.017754 2.559308 0.930745
v 3.026993 2.550275 0.911706
v 3.027093 2.903697 0.931523
v 3.023285 2.874854 0.912366
v 3.017555 2.883888 0.943066
v 3.123816 2.530914 1.253147
v 3.126762 2.558848 1.273980
v 3.120246 2.550275 1.284274
v 3.120146 2.903697 1.264457
v 3.127027 2.893488 1.250479
v 3.123954 2.874854 1.283614
v 3.130461 2.870431 1.252741
v 3.120146 2.530466 0.931523
v 3.127027 2.540674 0.945501
v 3.123954 2.559308 0.912366
v 3.123816 2.903248 0.942833
v 3.130461 2.871833 0.944641
v 3.126762 2.875314 0.922001
v 3.120246 2.883888 0.911706
v 3.130461 2.562330 1.251339
v 3.128807 2.859267 1.240159
v 3.128807 2.574896 0.955822
v 3.130461 2.563732 0.943239
v 3.128807 2.859250 0.955805
v 3.092829 2.575158 0.651911
v 3.027455 2.530407 0.677261
v 3.017890 2.549522 0.668182
v 3.023415 2.563110 0.696500
v 3.026923 2.883868 0.696156
v 3.023190 2.902252 0.668182
v 3.017411 2.871230 0.676463
v 3.023190 2.531910 0.351796
v 3.017411 2.562932 0.343514
v 3.026923 2.550294 0.323822
v 3.027226 2.903845 0.343514
v 3.017890 2.884640 0.351796
v 3.023519 2.871672 0.323373
v 3.123822 2.530797 0.664913
v 3.124059 2.562912 0.696185
v 3.122398 2.541544 0.685531
v 3.120013 2.903845 0.676463
v 3.123720 2.871672 0.696604
v 3.129721 2.883217 0.666957
v 3.120013 2.530318 0.343514
v 3.129721 2.550946 0.353020
v 3.123720 2.562490 0.323373
v 3.124049 2.902252 0.351796
v 3.130066 2.870765 0.345069
v 3.120316 2.883868 0.323822
v 3.130725 2.568904 0.657323
v 3.129686 2.859871 0.652844
v 3.129686 2.574291 0.367134
v 3.129300 2.859557 0.367527
v 3.128807 4.143157 1.230901
v 3.027093 4.098711 1.255183
v 3.023285 4.127553 1.274340
v 3.017555 4.118519 1.243640
v 3.026009 4.452884 1.273887
v 3.023417 4.471610 1.243640
v 3.017455 4.439917 1.255183
v 3.023423 4.099158 0.933559
v 3.017754 4.127553 0.921471
v 3.026993 4.118519 0.902432
v 3.027226 4.472089 0.922241
v 3.017890 4.452884 0.930523
v 3.023519 4.439917 0.902101
v 3.123816 4.099158 1.243873
v 3.126762 4.127092 1.264705
v 3.120246 4.118519 1.275000
v 3.120013 4.472089 1.255191
v 3.129721 4.451461 1.245685
v 3.123720 4.439917 1.275331
v 3.120146 4.098711 0.922249
v 3.123954 4.127553 0.903092
v 3.129919 4.119867 0.934732
v 3.123822 4.471610 0.933792
v 3.121242 4.461315 0.912140
v 3.130430 4.439902 0.934605
v 3.124338 4.441706 0.903453
v 3.130461 4.130574 1.242065
v 3.129686 4.428115 1.231571
v 3.129769 4.142467 0.945748
v 3.128862 4.427532 0.946530
v 3.128807 4.143157 0.697000
v 3.027093 4.098711 0.721281
v 3.023285 4.127553 0.740438
v 3.017555 4.118519 0.709738
v 3.026009 4.452884 0.739985
v 3.023417 4.471610 0.709738
v 3.017455 4.439917 0.721281
v 3.023423 4.099158 0.399657
v 3.017754 4.127553 0.387569
v 3.026993 4.118519 0.368530
v 3.027523 4.452143 0.368099
v 3.023101 4.471102 0.398499
v 3.017862 4.441706 0.386294
v 3.123816 4.099158 0.709971
v 3.126762 4.127092 0.730804
v 3.120246 4.118519 0.741098
v 3.119721 4.472031 0.721639
v 3.126653 4.462020 0.712542
v 3.123720 4.439917 0.741429
v 3.130242 4.440684 0.710806
v 3.121104 4.099702 0.387569
v 3.123723 4.131176 0.368050
v 3.129888 4.119863 0.400329
v 3.123931 4.471545 0.400869
v 3.121090 4.462020 0.378601
v 3.130430 4.439902 0.400703
v 3.124338 4.441706 0.369551
v 3.130461 4.130574 0.708163
v 3.129686 4.428115 0.697669
v 3.129769 4.142467 0.411846
v 3.128862 4.427532 0.412628
v 3.128807 4.143157 0.129526
v 3.027226 4.098562 0.153815
v 3.017890 4.117766 0.145533
v 3.023519 4.130734 0.173955
v 3.026009 4.452885 0.172511
v 3.023417 4.471610 0.142264
v 3.017455 4.439917 0.153808
v 3.023423 4.099158 -0.167817
v 3.017754 4.127553 -0.179905
v 3.026993 4.118519 -0.198944
v 3.027226 4.472089 -0.179135
v 3.017890 4.452884 -0.170853
v 3.023519 4.439917 -0.199275
v 3.124049 4.100154 0.145533
v 3.127027 4.132836 0.163747
v 3.120316 4.118538 0.173507
v 3.120013 4.472089 0.153815
v 3.126762 4.461315 0.145573
v 3.123720 4.439917 0.173955
v 3.130461 4.438675 0.142092
v 3.120146 4.098711 -0.179127
v 3.123954 4.127553 -0.198283
v 3.129919 4.119867 -0.166644
v 3.123822 4.471610 -0.167584
v 3.121242 4.461315 -0.189235
v 3.130242 4.441317 -0.168018
v 3.124338 4.441706 -0.197922
v 3.130461 4.130574 0.140690
v 3.128807 4.427511 0.129509
v 3.129769 4.142467 -0.155628
v 3.129686 4.428180 -0.155449
v 3.128807 3.618522 1.230901
v 3.027093 3.574076 1.255183
v 3.023285 3.602918 1.274340
v 3.017555 3.593884 1.243640
v 3.026009 3.928250 1.273887
v 3.023417 3.946975 1.243640
v 3.017455 3.915282 1.255183
v 3.023423 3.574524 0.933559
v 3.017754 3.602918 0.921471
v 3.026993 3.593884 0.902432
v 3.027226 3.947454 0.922241
v 3.017890 3.928250 0.930523
v 3.023519 3.915282 0.902101
v 3.123816 3.574524 1.243873
v 3.126762 3.602458 1.264705
v 3.120246 3.593884 1.275000
v 3.120013 3.947454 1.255191
v 3.126762 3.936680 1.246949
v 3.123720 3.915282 1.275331
v 3.130242 3.916049 1.244708
v 3.120146 3.574076 0.922249
v 3.123954 3.602918 0.903092
v 3.129928 3.595270 0.934712
v 3.123822 3.946975 0.933792
v 3.121242 3.936680 0.912140
v 3.130461 3.915442 0.935367
v 3.124338 3.917071 0.903453
v 3.130461 3.605940 1.242065
v 3.129686 3.903481 1.231571
v 3.129686 3.617901 0.945861
v 3.128807 3.902860 0.946530
v 3.129300 3.618215 0.678846
v 3.027093 3.574076 0.702852
v 3.023285 3.602918 0.722008
v 3.017555 3.593884 0.691309
v 3.026923 3.927478 0.722552
v 3.023190 3.945862 0.694577
v 3.017411 3.914840 0.702859
v 3.023423 3.574524 0.381227
v 3.017754 3.602918 0.369139
v 3.026993 3.593884 0.350100
v 3.027226 3.947454 0.369910
v 3.017890 3.928250 0.378192
v 3.023519 3.915282 0.349769
v 3.123816 3.574524 0.691541
v 3.130286 3.604918 0.691413
v 3.126762 3.602458 0.712374
v 3.120246 3.593884 0.722669
v 3.120013 3.947454 0.702859
v 3.126762 3.936680 0.694618
v 3.123720 3.915282 0.723000
v 3.130242 3.916049 0.692376
v 3.120146 3.574076 0.369917
v 3.123954 3.602918 0.350761
v 3.123822 3.946975 0.381460
v 3.121230 3.928250 0.351213
v 3.129888 3.915176 0.370922
v 3.129686 3.903481 0.679239
v 3.128862 3.618505 0.394178
v 3.130309 3.596786 0.383523
v 3.129769 3.903659 0.393526
v 3.128807 3.618522 0.107830
v 3.027226 3.573927 0.132119
v 3.017890 3.593132 0.123837
v 3.023519 3.606100 0.152259
v 3.026923 3.927478 0.151811
v 3.023190 3.945862 0.123837
v 3.017411 3.914840 0.132119
v 3.023423 3.574524 -0.189513
v 3.017754 3.602918 -0.201601
v 3.026993 3.593884 -0.220640
v 3.026136 3.946314 -0.201601
v 3.023517 3.914840 -0.221119
v 3.017590 3.927478 -0.189513
v 3.123816 3.574524 0.120801
v 3.126762 3.602458 0.141634
v 3.120246 3.593884 0.151929
v 3.120013 3.947454 0.132119
v 3.126762 3.936680 0.123877
v 3.123720 3.915282 0.152259
v 3.120146 3.574076 -0.200823
v 3.127027 3.584284 -0.186845
v 3.123954 3.602918 -0.219979
v 3.123822 3.946975 -0.189280
v 3.121242 3.936680 -0.210931
v 3.130461 3.915442 -0.187705
v 3.124338 3.917071 -0.219618
v 3.130461 3.605940 0.118994
v 3.130286 3.915719 0.121417
v 3.129300 3.903153 0.108120
v 3.128807 3.618505 -0.176524
v 3.130461 3.607342 -0.189107
v 3.128807 3.902860 -0.176541
v 3.129686 3.103465 1.231506
v 3.027280 3.059808 1.255530
v 3.023285 3.088547 1.274340
v 3.017584 3.078720 1.242903
v 3.026993 3.413126 1.275000
v 3.017754 3.404093 1.255961
v 3.023423 3.432487 1.243873
v 3.023249 3.061669 0.928023
v 3.017411 3.092171 0.922241
v 3.026993 3.079514 0.902432
v 3.027093 3.432935 0.922249
v 3.023285 3.404093 0.903092
v 3.017555 3.413126 0.933792
v 3.123990 3.061669 1.249409
v 3.129928 3.092316 1.254137
v 3.120246 3.079514 1.275000
v 3.120146 3.432935 1.255183
v 3.123954 3.404093 1.274340
v 3.130461 3.399670 1.243467
v 3.127027 3.422727 1.241205
v 3.119959 3.059808 0.921902
v 3.126915 3.069220 0.936946
v 3.123954 3.088547 0.903092
v 3.123816 3.432487 0.933559
v 3.130461 3.401071 0.935367
v 3.126762 3.404553 0.912726
v 3.120246 3.413126 0.902432
v 3.128807 3.388505 1.230884
v 3.128807 3.104135 0.946547
v 3.130461 3.092971 0.933965
v 3.128807 3.388489 0.946530
v 3.128807 3.104151 0.652174
v 3.027093 3.059705 0.676456
v 3.023285 3.088547 0.695612
v 3.017555 3.079514 0.664913
v 3.026923 3.413107 0.696156
v 3.023190 3.431491 0.668182
v 3.017411 3.400469 0.676463
v 3.023190 3.061149 0.351796
v 3.017411 3.092171 0.343514
v 3.026923 3.079533 0.323822
v 3.027455 3.432994 0.342717
v 3.017890 3.413879 0.351796
v 3.023415 3.400291 0.323477
v 3.124049 3.061149 0.668182
v 3.127027 3.093831 0.686395
v 3.120316 3.079533 0.696156
v 3.120013 3.433084 0.676463
v 3.126762 3.422310 0.668222
v 3.123720 3.400911 0.696604
v 3.130430 3.400431 0.664565
v 3.120013 3.059556 0.343514
v 3.129721 3.080184 0.353020
v 3.123720 3.091729 0.323373
v 3.124049 3.431491 0.351796
v 3.130066 3.400004 0.345069
v 3.120316 3.413107 0.323822
v 3.130461 3.091569 0.663338
v 3.128862 3.388506 0.652195
v 3.129686 3.103530 0.367134
v 3.129300 3.388796 0.367527
v 3.129686 3.103465 0.080875
v 3.027226 3.059556 0.104560
v 3.017890 3.078761 0.096278
v 3.023519 3.091729 0.124700
v 3.026923 3.413107 0.124252
v 3.023190 3.431491 0.096278
v 3.017411 3.400469 0.104560
v 3.023190 3.061149 -0.220108
v 3.017411 3.092171 -0.228390
v 3.026923 3.079533 -0.248082
v 3.027226 3.433084 -0.228390
v 3.017890 3.413879 -0.220108
v 3.023519 3.400911 -0.248530
v 3.124049 3.061149 0.096278
v 3.129928 3.092316 0.103506
v 3.120316 3.079533 0.124252
v 3.120013 3.433084 0.104560
v 3.123720 3.400911 0.124700
v 3.130430 3.400431 0.092661
v 3.126762 3.422310 0.096318
v 3.120013 3.059556 -0.228390
v 3.126762 3.070331 -0.220148
v 3.123720 3.091729 -0.248530
v 3.124049 3.431491 -0.220108
v 3.129928 3.400324 -0.227336
v 3.120316 3.413107 -0.248082
v 3.128862 3.388506 0.080292
v 3.128807 3.104135 -0.204084
v 3.130461 3.092971 -0.216667
v 3.129686 3.389175 -0.204705
v 3.129686 2.574226 0.076413
v 3.023519 2.562490 0.120238
v 3.027226 2.530318 0.100098
v 3.017890 2.549522 0.091816
v 3.026923 2.883868 0.119790
v 3.023190 2.902252 0.091816
v 3.017411 2.871230 0.100098
v 3.023423 2.530914 -0.221534
v 3.017754 2.559308 -0.233622
v 3.026993 2.550275 -0.252661
v 3.023517 2.871230 -0.253140
v 3.026136 2.902705 -0.233622
v 3.017590 2.883868 -0.221534
v 3.124049 2.531910 0.091816
v 3.129928 2.563077 0.099044
v 3.120316 2.550294 0.119790
v 3.123720 2.871672 0.120238
v 3.120013 2.903845 0.100098
v 3.126762 2.893071 0.091856
v 3.130461 2.870430 0.088374
v 3.123723 2.562932 -0.253140
v 3.121242 2.540505 -0.242366
v 3.124241 2.531342 -0.222240
v 3.123816 2.903248 -0.221534
v 3.129721 2.874050 -0.232513
v 3.120246 2.883888 -0.252661
v 3.128807 2.859267 0.075792
v 3.128807 2.574896 -0.208545
v 3.130461 2.563732 -0.221128
v 3.129686 2.859936 -0.209167
v 3.092829 2.859004 0.956067
v 3.092829 2.575158 0.956067
v 3.092829 2.575158 1.239913
v 3.092829 2.859004 1.239913
v 3.092829 2.859004 0.368066
v 3.092829 2.575158 0.368066
v 3.092829 2.859004 0.651911
v 3.092829 4.427248 0.946793
v 3.092829 4.143403 0.946793
v 3.092829 4.143403 1.230639
v 3.092829 4.427248 1.230639
v 3.092829 4.427248 0.412891
v 3.092829 4.143403 0.412891
v 3.092829 4.143403 0.696737
v 3.092829 4.427248 0.696737
v 3.092829 4.427248 -0.154583
v 3.092829 4.143403 -0.154583
v 3.092829 4.143403 0.129263
v 3.092829 4.427248 0.129263
v 3.092829 3.902614 0.946793
v 3.092829 3.618768 0.946793
v 3.092829 3.618768 1.230639
v 3.092829 3.902614 1.230639
v 3.092829 3.902614 0.394462
v 3.092829 3.618768 0.394462
v 3.092829 3.618768 0.678307
v 3.092829 3.902614 0.678307
v 3.092829 3.902614 -0.176279
v 3.092829 3.618768 -0.176279
v 3.092829 3.618768 0.107567
v 3.092829 3.902614 0.107567
v 3.092829 3.388243 0.946793
v 3.092829 3.104397 0.946793
v 3.092829 3.104397 1.230639
v 3.092829 3.388243 1.230639
v 3.092829 3.388243 0.368066
v 3.092829 3.104397 0.368066
v 3.092829 3.104397 0.651911
v 3.092829 3.388243 0.651911
v 3.092829 3.388243 -0.203838
v 3.092829 3.104397 -0.203838
v 3.092829 3.104397 0.080008
v 3.092829 3.388243 0.080008
v 3.092829 2.859004 -0.208300
v 3.092829 2.575158 -0.208300
v 3.092829 2.575158 0.075546
v 3.092829 2.859004 0.075546
vn 0.9717 -0.1982 0.1283
vn 0.9717 0.1982 -0.1283
vn -0.9801 -0.1983 -0.0062
vn -0.9827 -0.0064 0.1853
vn -0.9801 0.1983 0.0062
vn -0.9827 0.0064 -0.1853
vn 0.0576 -0.5576 -0.8281
vn -0.0576 0.5576 -0.8281
vn 0.8482 0.0086 -0.5297
vn -0.0576 -0.5576 0.8281
vn 0.0576 0.5576 0.8281
vn -0.9828 -0.1848 -0.0062
vn -0.9809 -0.0065 0.1945
vn -0.9828 0.1848 0.0062
vn -0.9804 0.0065 -0.1971
vn 0.0635 -0.5348 -0.8426
vn -0.0635 0.5348 -0.8426
vn 0.9112 0.0102 -0.4118
vn 0.9842 -0.1768 0.0072
vn 0.9820 0.1890 -0.0063
vn 0.0635 0.5348 0.8426
vn 0.9994 0.0013 0.0347
vn 1.0000 0.0036 -0.0035
vn 1.0000 -0.0022 0.0012
vn 0.1603 0.9869 0.0177
vn 0.0253 -0.0000 -0.9997
vn 0.9644 0.1964 -0.1772
vn -0.9826 -0.0070 0.1855
vn -0.9823 0.1870 0.0062
vn -0.9804 0.0059 -0.1969
vn 0.9784 -0.2066 0.0055
vn 0.9790 0.2039 -0.0053
vn 0.0585 0.5345 0.8431
vn 0.9911 0.0028 0.1332
vn 1.0000 0.0076 -0.0020
vn 1.0000 -0.0030 0.0024
vn 0.9888 -0.0027 -0.1495
vn 0.9669 0.1456 0.2096
vn 0.9639 0.1989 -0.1770
vn 0.0651 -0.5298 -0.8456
vn 0.9784 -0.2066 0.0054
vn 0.0577 0.5290 0.8467
vn 1.0000 0.0063 -0.0021
vn 0.9990 -0.0449 0.0007
vn 0.9713 0.1278 0.2005
vn 0.9605 0.2062 -0.1869
vn -0.9802 -0.1981 -0.0055
vn -0.9804 -0.0064 0.1971
vn 0.9787 -0.2054 0.0054
vn -0.0635 -0.5348 0.8426
vn 0.9888 -0.1495 0.0027
vn 0.9677 0.1404 0.2096
vn 0.9651 0.1944 -0.1753
vn 0.9888 0.0027 0.1495
vn 0.9999 0.0117 -0.0021
vn 0.9990 -0.0450 0.0008
vn 0.9688 -0.2056 0.1387
vn -0.9826 -0.0071 0.1855
vn -0.0585 0.5345 -0.8431
vn 0.9175 0.0082 -0.3976
vn 0.9781 -0.2082 0.0056
vn 1.0000 0.0016 0.0061
vn 0.9977 0.0672 -0.0015
vn 0.9968 -0.0012 -0.0795
vn 0.9683 0.1384 0.2081
vn -0.9804 -0.0065 0.1971
vn -0.9827 0.1849 0.0067
vn -0.9824 0.0065 -0.1868
vn -0.0647 -0.5348 0.8425
vn 0.9969 -0.0789 0.0006
vn 0.9889 -0.0016 -0.1483
vn -0.9254 -0.2337 -0.2983
vn 0.9292 -0.2252 0.2930
vn -0.9819 -0.1893 -0.0074
vn -0.9836 -0.0067 0.1805
vn -0.9826 0.0071 -0.1855
vn 0.0571 -0.5523 -0.8317
vn 0.9786 0.0054 0.2055
vn -0.0571 -0.5523 0.8317
vn 0.9888 0.1495 -0.0027
vn 0.9999 -0.0021 -0.0117
vn 0.9710 0.1291 0.2014
vn -0.9827 -0.1849 -0.0068
vn -0.9809 0.0065 -0.1945
vn -0.0647 0.5119 -0.8566
vn 0.9786 -0.2055 0.0052
vn -0.0564 -0.5575 0.8282
vn 1.0000 0.0030 -0.0025
vn 0.9913 -0.1318 0.0014
vn 0.9713 -0.1278 -0.2005
vn 0.9097 0.0102 -0.4152
vn 0.9788 0.0056 0.2049
vn 0.9999 0.0021 0.0117
vn 0.9911 -0.1330 0.0026
vn 0.9999 -0.0020 -0.0117
vn 0.9638 -0.1783 -0.1984
vn 0.0528 -0.4372 -0.8978
vn -0.0651 0.5298 -0.8456
vn 0.9823 -0.0011 -0.1873
vn 0.9068 0.0105 -0.4214
vn 0.9784 0.0055 0.2068
vn 1.0000 0.0025 0.0030
vn -0.9206 -0.2930 0.2580
vn -0.9054 0.3060 0.2942
vn -0.9054 -0.3060 -0.2942
vn -0.9206 0.2930 -0.2580
vn 0.8980 -0.3199 0.3020
vn 0.9700 0.1623 0.1812
vn 0.9259 0.2862 0.2468
vn 0.9700 -0.1623 -0.1812
vn 0.9259 -0.2862 -0.2468
vn 0.8980 0.3199 -0.3020
vn -0.9031 -0.4292 0.0097
vn -0.9014 0.0094 0.4329
vn -0.9031 0.4292 -0.0097
vn -0.9014 -0.0094 -0.4330
vn -0.0662 -0.8439 -0.5325
vn 0.0662 0.8439 -0.5325
vn 0.9833 -0.1818 0.0018
vn 0.8347 -0.5506 -0.0088
vn 0.9833 0.1818 -0.0018
vn 0.8347 0.5506 0.0088
vn 0.9823 0.0011 0.1873
vn 0.8482 -0.0086 0.5297
vn -0.0000 -1.0000 -0.0000
vn 0.0662 -0.8439 0.5325
vn -0.0662 0.8439 0.5325
vn -1.0000 -0.0000 -0.0000
vn -0.0000 -0.0000 1.0000
vn -0.0000 1.0000 -0.0000
vn -0.0000 -0.0000 -1.0000
vn 0.9904 -0.0003 0.1380
vn 0.9904 0.1380 0.0003
vn 0.9904 -0.1380 -0.0003
vn 0.9904 0.0003 -0.1380
vn 0.0153 0.9999 -0.0011
vn 0.9783 -0.1483 0.1449
vn -0.8995 -0.2987 0.3188
vn -0.9250 0.2490 0.2870
vn -0.9250 -0.2490 -0.2870
vn -0.8998 0.3013 -0.3157
vn 0.9834 -0.0008 0.1816
vn 0.9094 0.2909 0.2974
vn 0.9094 -0.2909 -0.2974
vn 0.9300 0.2376 -0.2803
vn -0.8961 -0.4438 0.0097
vn -0.9030 0.0103 0.4296
vn -0.9008 0.4340 -0.0091
vn -0.9029 -0.0102 -0.4296
vn -0.0610 -0.8304 -0.5538
vn 0.0610 0.8304 -0.5539
vn 0.9796 -0.0060 -0.2007
vn 0.9065 -0.4220 -0.0101
vn 0.9064 0.4224 0.0092
vn -0.0085 -0.4841 0.8750
vn 0.0631 -0.8832 0.4647
vn -0.0064 -1.0000 -0.0015
vn -0.0610 0.8304 0.5539
vn -0.0007 -0.0001 1.0000
vn -0.0168 0.4865 -0.8735
vn 1.0000 -0.0010 0.0041
vn 0.9975 -0.0707 -0.0013
vn 1.0000 0.0034 -0.0082
vn 0.1390 -0.0147 -0.9902
vn -0.9332 0.2643 0.2436
vn 0.9093 0.2909 0.2974
vn 0.9272 -0.2844 -0.2439
vn 0.9400 0.2509 -0.2313
vn -0.9115 0.0082 0.4112
vn -0.9010 0.4337 -0.0100
vn -0.9015 -0.0102 -0.4327
vn 0.0564 0.8991 -0.4342
vn 0.9820 -0.0013 -0.1887
vn 0.9831 0.0018 0.1829
vn 0.9100 -0.4146 -0.0098
vn 0.9065 0.4220 0.0101
vn 0.8486 -0.0097 0.5290
vn -0.0675 0.8457 0.5294
vn -1.0000 0.0001 -0.0010
vn -0.0108 0.0003 0.9999
vn 0.0102 0.0001 -0.9999
vn 0.0071 1.0000 -0.0000
vn 0.9999 -0.0016 0.0169
vn 0.9911 0.1330 0.0030
vn 0.9917 -0.1282 -0.0026
vn 1.0000 0.0024 -0.0064
vn -0.9836 0.1803 0.0002
vn -0.9040 0.2911 -0.3130
vn 0.8894 0.3149 0.3313
vn 0.9343 -0.2407 -0.2628
vn 0.9406 0.2518 -0.2277
vn -0.8917 -0.0003 -0.4526
vn -0.0152 0.8793 -0.4760
vn -0.0612 -0.8444 -0.5322
vn 0.9818 -0.0012 -0.1900
vn 0.0583 0.4140 -0.9084
vn 0.9823 0.1871 -0.0014
vn 0.9187 -0.3950 -0.0084
vn 0.8263 0.5631 0.0100
vn 0.9821 0.0011 0.1885
vn 0.0049 -1.0000 -0.0016
vn -0.0691 0.8456 0.5294
vn -1.0000 -0.0000 -0.0009
vn -0.0043 1.0000 -0.0016
vn 0.0050 0.0017 -1.0000
vn 0.0164 0.0012 -0.9999
vn 0.9999 -0.0017 0.0137
vn 0.9991 0.0011 -0.0433
vn -0.8998 -0.3013 0.3157
vn -0.9332 0.2642 0.2436
vn 0.9704 -0.1788 0.1621
vn 0.9280 -0.2423 0.2831
vn 0.8929 0.3083 0.3282
vn -0.9010 -0.4338 0.0099
vn -0.9117 0.0089 0.4108
vn 0.9819 -0.0014 -0.1895
vn 0.9822 0.1878 -0.0011
vn 0.9098 -0.4149 -0.0091
vn 0.8506 0.5258 0.0093
vn 0.9833 0.0018 0.1821
vn 0.8305 -0.0096 0.5570
vn 0.0060 -1.0000 0.0012
vn 0.0610 -0.8304 0.5538
vn -1.0000 -0.0004 -0.0005
vn -0.0049 0.0016 1.0000
vn 0.9995 -0.0003 0.0300
vn 0.9991 -0.0433 -0.0011
vn 0.0201 -0.0007 0.9998
vn 0.9271 -0.2845 -0.2440
vn 0.9823 -0.0011 -0.1872
vn 0.9817 0.1904 -0.0013
vn 0.9101 -0.4143 -0.0098
vn 0.8506 0.5257 0.0093
vn 0.0113 0.0005 -0.9999
vn 0.9997 -0.0017 0.0252
vn 0.9911 0.1327 0.0028
vn 0.9911 -0.1327 -0.0028
vn 0.9837 0.1797 -0.0024
vn -0.9206 -0.2929 0.2580
vn 0.9321 -0.2777 -0.2327
vn 0.9359 0.2580 -0.2400
vn -0.9028 0.0094 0.4301
vn -0.9015 -0.0102 -0.4326
vn 0.0675 0.8457 -0.5294
vn 0.9815 -0.0063 -0.1915
vn 0.9149 -0.4035 -0.0099
vn 0.9815 0.0013 0.1912
vn -0.0610 0.8304 0.5538
vn -1.0000 -0.0000 -0.0010
vn -0.0059 -0.0013 1.0000
vn -0.0059 1.0000 0.0017
vn 0.0108 0.0003 -0.9999
vn 0.9996 -0.0281 -0.0004
vn 0.9901 -0.0028 0.1402
vn 0.9974 0.0722 -0.0018
vn 0.0113 -0.9999 -0.0005
vn 0.9991 0.0003 -0.0425
vn -0.0167 0.4832 -0.8754
vn -0.9299 0.2467 -0.2730
vn -0.9029 0.0102 0.4297
vn -0.9125 0.4090 -0.0077
vn -0.9015 -0.0104 -0.4326
vn 0.0486 0.8998 -0.4336
vn 0.9804 -0.0000 -0.1972
vn 0.9818 0.1901 -0.0013
vn 0.9821 0.0011 0.1886
vn 0.0007 -1.0000 -0.0002
vn 0.0676 -0.8437 0.5325
vn -1.0000 -0.0010 -0.0001
vn -0.0006 0.0002 1.0000
vn -0.0116 0.9999 -0.0002
vn 0.0109 -0.0001 -0.9999
vn 0.9904 -0.0003 0.1379
vn 0.9904 0.1379 0.0003
vn 0.0164 -0.9999 -0.0012
vn 0.9913 -0.1317 -0.0016
vn 0.9972 0.0011 -0.0750
vn -0.9187 -0.2976 0.2596
vn 0.9693 -0.1674 -0.1803
vn 0.9249 -0.2898 -0.2463
vn -0.8921 -0.4518 0.0084
vn -0.9014 0.0094 0.4330
vn -0.9025 -0.0094 -0.4305
vn -0.0522 -0.8156 -0.5763
vn 0.9851 -0.1719 0.0032
vn 0.8092 -0.5875 -0.0066
vn 0.9093 -0.0095 0.4161
vn 0.0522 -0.8156 0.5763
vn -1.0000 0.0005 0.0006
vn 0.9997 0.0252 0.0017
vn 0.0164 -0.0012 0.9999
vn 0.9911 0.0028 -0.1327
vn 0.9838 0.1790 -0.0023
vn -0.8995 0.2987 -0.3188
vn -0.9030 -0.4296 0.0089
vn -0.8961 0.4438 -0.0097
vn -0.9030 -0.0103 -0.4296
vn 0.0650 0.8299 -0.5541
vn 0.9064 -0.4224 -0.0092
vn 0.8501 0.5265 0.0080
vn 0.9835 0.0020 0.1810
vn -0.0007 -1.0000 0.0002
vn 0.0596 -0.8305 0.5538
vn -1.0000 0.0005 -0.0005
vn -0.0053 -0.0015 1.0000
vn -0.0005 1.0000 -0.0001
vn -0.0006 0.0002 -1.0000
vn 0.9908 0.0002 -0.1356
vn 0.9975 -0.0703 -0.0010
vn 0.0071 -0.0000 1.0000
vn 0.9844 -0.1757 0.0023
vn 0.9287 -0.2406 0.2820
vn 0.8929 -0.3083 -0.3282
vn 0.9287 0.2406 -0.2820
vn -0.9008 -0.4340 0.0091
vn -0.0610 -0.8304 -0.5539
vn 0.0610 0.8304 -0.5538
vn 0.9784 -0.0055 -0.2068
vn 0.8501 -0.5265 -0.0080
vn 0.9841 0.1776 -0.0024
vn 0.9097 -0.0102 0.4152
vn 0.9911 -0.0028 0.1327
vn 0.9997 -0.0249 -0.0016
vn 0.9917 0.0026 -0.1282
vn -0.0179 -0.8736 -0.4864
vn 0.9451 -0.2204 -0.2412
vn 0.9125 0.2922 -0.2864
vn -0.9029 0.0102 0.4296
vn 0.9823 -0.1872 0.0011
vn 0.0612 0.8444 -0.5322
vn 0.9786 -0.0052 -0.2059
vn 0.9832 0.1826 -0.0017
vn 0.8505 0.5259 0.0091
vn 0.0102 -0.9999 -0.0001
vn 0.0610 -0.8304 0.5539
vn -0.0109 0.9999 -0.0003
vn 0.0164 0.9999 0.0012
vn 1.0000 -0.0064 -0.0024
vn 1.0000 -0.0000 -0.0000
vn 0.0179 -0.0013 0.9998
vn 0.0108 -0.9999 0.0005
vn 0.0153 -0.9999 0.0011
vn 0.0235 0.9997 -0.0000
vn 0.0194 -0.9998 0.0005
vn 0.0162 0.9999 -0.0012
vn 0.0158 -0.9999 0.0010
vn 0.0153 0.0011 0.9999
vn 0.0158 -0.0010 -0.9999
vn 0.0153 -0.0011 -0.9999
vn 0.0167 0.0011 0.9999
vn 0.0259 -0.0003 0.9997
vn 0.0071 -1.0000 -0.0000
vn 0.0071 -0.0000 -1.0000
vn 0.0201 0.0007 -0.9998
vn 0.0113 0.9999 0.0005
vn 0.0259 -0.9997 -0.0003
vn 0.0076 -0.0000 -1.0000
vt 0.399949 0.725088
vt 0.392627 0.748904
vt 0.362236 0.725659
vt 0.600051 0.524912
vt 0.602630 0.498834
vt 0.637077 0.522280
vt 0.387128 0.025407
vt 0.395845 0.238993
vt 0.375000 0.224606
vt 0.601456 0.014995
vt 0.392509 0.007185
vt 0.609391 0.224723
vt 0.619163 0.023859
vt 0.601457 0.260441
vt 0.387128 0.275407
vt 0.395971 0.489653
vt 0.353431 0.513283
vt 0.612642 0.477974
vt 0.619163 0.269573
vt 0.377339 0.761975
vt 0.395941 0.986214
vt 0.375000 0.974606
vt 0.609391 0.974723
vt 0.601457 0.761598
vt 0.637245 0.747255
vt 0.385804 0.023570
vt 0.400329 0.237671
vt 0.375000 0.227802
vt 0.599671 0.015801
vt 0.396287 0.005837
vt 0.610230 0.226994
vt 0.617815 0.022370
vt 0.600596 0.262476
vt 0.386528 0.273734
vt 0.397380 0.487620
vt 0.353051 0.512760
vt 0.612004 0.478545
vt 0.618111 0.275646
vt 0.600121 0.514548
vt 0.388025 0.523203
vt 0.403583 0.721675
vt 0.362678 0.724845
vt 0.610995 0.728852
vt 0.635253 0.520752
vt 0.608904 0.977149
vt 0.600756 0.763219
vt 0.637015 0.747142
vt 0.406159 0.531159
vt 0.593359 0.531641
vt 0.593841 0.718841
vt 0.407541 0.717459
vt 0.592459 0.717459
vt 0.399754 0.725038
vt 0.392628 0.748904
vt 0.600277 0.524860
vt 0.600724 0.488934
vt 0.637096 0.525277
vt 0.387128 0.025407
vt 0.395845 0.238993
vt 0.375000 0.224606
vt 0.600596 0.016118
vt 0.392509 0.007185
vt 0.610230 0.226994
vt 0.618111 0.025646
vt 0.600596 0.262476
vt 0.387128 0.275407
vt 0.395972 0.489653
vt 0.353431 0.513283
vt 0.389132 0.524583
vt 0.610911 0.728900
vt 0.377339 0.761975
vt 0.395941 0.986214
vt 0.375000 0.974606
vt 0.610230 0.979267
vt 0.600596 0.763055
vt 0.637182 0.747314
vt 0.592786 0.532214
vt 0.406069 0.531070
vt 0.593668 0.718668
vt 0.407233 0.717767
vt 0.399834 0.725142
vt 0.392628 0.748904
vt 0.362236 0.725659
vt 0.600975 0.726244
vt 0.624421 0.732182
vt 0.600596 0.763055
vt 0.600277 0.524860
vt 0.636950 0.525284
vt 0.387128 0.025407
vt 0.395845 0.238993
vt 0.375000 0.224606
vt 0.600596 0.016118
vt 0.392509 0.007185
vt 0.387128 0.275407
vt 0.400329 0.487671
vt 0.354561 0.511891
vt 0.389383 0.523960
vt 0.377339 0.761975
vt 0.395941 0.986214
vt 0.637171 0.747623
vt 0.593668 0.718668
vt 0.600047 0.725252
vt 0.623905 0.732373
vt 0.600596 0.763055
vt 0.601055 0.524109
vt 0.637300 0.525053
vt 0.385804 0.023570
vt 0.395845 0.238993
vt 0.375000 0.224606
vt 0.600596 0.016118
vt 0.396287 0.005837
vt 0.610230 0.226994
vt 0.618111 0.025646
vt 0.600596 0.262476
vt 0.387128 0.275407
vt 0.395971 0.489653
vt 0.353431 0.513283
vt 0.389132 0.524583
vt 0.363678 0.726528
vt 0.377271 0.761966
vt 0.396459 0.985810
vt 0.610230 0.979267
vt 0.637015 0.747142
vt 0.406069 0.531070
vt 0.593841 0.531159
vt 0.592767 0.717767
vt 0.399754 0.725038
vt 0.392627 0.748904
vt 0.623904 0.732373
vt 0.600596 0.763055
vt 0.600246 0.524962
vt 0.600724 0.488934
vt 0.637096 0.525277
vt 0.387128 0.025407
vt 0.395845 0.238993
vt 0.375000 0.224606
vt 0.600596 0.016118
vt 0.392509 0.007185
vt 0.610230 0.226994
vt 0.618111 0.025646
vt 0.600596 0.262476
vt 0.395972 0.489653
vt 0.353431 0.513283
vt 0.389299 0.524519
vt 0.377339 0.761975
vt 0.610230 0.979267
vt 0.637182 0.747314
vt 0.406332 0.531332
vt 0.592767 0.532233
vt 0.593668 0.718668
vt 0.407233 0.717767
vt 0.399396 0.726241
vt 0.392628 0.748904
vt 0.362236 0.725659
vt 0.601125 0.726160
vt 0.623904 0.732373
vt 0.600596 0.763055
vt 0.387128 0.025407
vt 0.395845 0.238993
vt 0.375000 0.224606
vt 0.599671 0.015801
vt 0.392509 0.007185
vt 0.617815 0.022370
vt 0.387128 0.275407
vt 0.613381 0.479680
vt 0.618111 0.275646
vt 0.601085 0.514463
vt 0.390773 0.525001
vt 0.377339 0.761975
vt 0.395942 0.986214
vt 0.609119 0.977033
vt 0.637182 0.747314
vt 0.593818 0.531182
vt 0.407214 0.532214
vt 0.406641 0.718359
vt 0.593841 0.718841
vt 0.399745 0.725042
vt 0.392627 0.748905
vt 0.362236 0.725659
vt 0.601583 0.725570
vt 0.623904 0.732373
vt 0.600255 0.524958
vt 0.600724 0.488934
vt 0.637096 0.525277
vt 0.385804 0.023570
vt 0.395845 0.238993
vt 0.375000 0.224606
vt 0.599671 0.015801
vt 0.396287 0.005837
vt 0.609119 0.225659
vt 0.617815 0.022371
vt 0.599671 0.262329
vt 0.387128 0.275407
vt 0.395971 0.489653
vt 0.353431 0.513283
vt 0.377339 0.761975
vt 0.396459 0.985811
vt 0.609119 0.977033
vt 0.637182 0.747314
vt 0.593375 0.718375
vt 0.407233 0.717767
vt 0.375000 0.236160
vt 0.400329 0.237671
vt 0.377339 0.761975
vt 0.363413 0.729333
vt 0.399680 0.735734
vt 0.600112 0.525020
vt 0.637676 0.522151
vt 0.386811 0.025420
vt 0.601456 0.014995
vt 0.392509 0.007185
vt 0.609120 0.224719
vt 0.619744 0.023773
vt 0.395971 0.489653
vt 0.353317 0.513163
vt 0.612065 0.477665
vt 0.619744 0.269313
vt 0.600157 0.725193
vt 0.601456 0.761598
vt 0.375000 0.974606
vt 0.609120 0.974720
vt 0.637856 0.746904
vt 0.406332 0.718668
vt 0.399926 0.524970
vt 0.407233 0.532233
vt 0.600324 0.725361
vt 0.623904 0.732373
vt 0.387128 0.025407
vt 0.375000 0.227802
vt 0.599671 0.015801
vt 0.392509 0.007185
vt 0.617815 0.022370
vt 0.600462 0.262350
vt 0.386528 0.273734
vt 0.397380 0.487620
vt 0.352884 0.512588
vt 0.618278 0.275852
vt 0.610896 0.478148
vt 0.388025 0.523203
vt 0.399888 0.724981
vt 0.363678 0.726528
vt 0.377271 0.761966
vt 0.608802 0.977134
vt 0.637755 0.747013
vt 0.406332 0.531332
vt 0.593359 0.531641
vt 0.592786 0.717786
vt 0.600309 0.725334
vt 0.623177 0.732368
vt 0.399858 0.524834
vt 0.373834 0.522370
vt 0.397380 0.487620
vt 0.385804 0.023570
vt 0.400329 0.237671
vt 0.375000 0.227802
vt 0.599671 0.015801
vt 0.396287 0.005837
vt 0.617815 0.022371
vt 0.386528 0.273734
vt 0.352884 0.512588
vt 0.611353 0.478256
vt 0.618644 0.275653
vt 0.600368 0.514350
vt 0.399632 0.735650
vt 0.377271 0.761966
vt 0.396459 0.985810
vt 0.375000 0.974606
vt 0.609119 0.977033
vt 0.593720 0.531280
vt 0.406332 0.718668
vt 0.407233 0.532233
vt 0.600038 0.725246
vt 0.623904 0.732373
vt 0.600756 0.763219
vt 0.399962 0.524754
vt 0.363675 0.524365
vt 0.400162 0.487499
vt 0.385804 0.023570
vt 0.395845 0.238993
vt 0.375000 0.224606
vt 0.599671 0.015801
vt 0.396287 0.005837
vt 0.609119 0.225659
vt 0.617815 0.022371
vt 0.599838 0.262501
vt 0.387354 0.275285
vt 0.358223 0.501446
vt 0.612416 0.478096
vt 0.617815 0.267340
vt 0.399912 0.524949
vt 0.601845 0.513110
vt 0.399519 0.735701
vt 0.377485 0.761850
vt 0.396299 0.985646
vt 0.608904 0.977149
vt 0.637182 0.747314
vt 0.593668 0.531332
vt 0.406332 0.718668
vt 0.131889 0.724354
vt 0.149404 0.733882
vt 0.132501 0.742178
vt 0.625000 1.000000
vt 0.602802 1.000000
vt 0.150646 0.506889
vt 0.140881 0.524341
vt 0.132822 0.507501
vt 0.600088 0.725051
vt 0.625064 0.724354
vt 0.374936 0.525646
vt 0.853541 0.514190
vt 0.875000 0.525394
vt 0.863472 0.726266
vt 0.849606 0.750000
vt 0.592767 0.717767
vt 0.407541 0.532541
vt 0.362271 0.745613
vt 0.400362 0.762480
vt 0.150275 0.734460
vt 0.140323 0.750000
vt 0.132185 0.727630
vt 0.609677 0.000000
vt 0.139972 0.523363
vt 0.599606 1.000000
vt 0.396469 0.985966
vt 0.849710 0.512533
vt 0.875000 0.522198
vt 0.863995 0.726539
vt 0.148859 0.505837
vt 0.375000 0.974213
vt 0.849606 0.750000
vt 0.618111 0.275646
vt 0.623554 0.483223
vt 0.131889 0.724354
vt 0.149404 0.733882
vt 0.132501 0.742178
vt 0.617499 0.007822
vt 0.150646 0.506889
vt 0.140881 0.524341
vt 0.599606 1.000000
vt 0.849543 0.512361
vt 0.875000 0.522198
vt 0.862872 0.724593
vt 0.857664 0.745138
vt 0.617696 0.025379
vt 0.618219 0.228294
vt 0.600724 0.238934
vt 0.149404 0.733882
vt 0.132501 0.742178
vt 0.617499 0.007822
vt 0.150646 0.506889
vt 0.132822 0.507501
vt 0.608590 0.275142
vt 0.624127 0.483381
vt 0.849638 0.500000
vt 0.863901 0.523471
vt 0.862353 0.724765
vt 0.857664 0.745138
vt 0.618111 0.275646
vt 0.623554 0.483223
vt 0.150329 0.734199
vt 0.132185 0.727629
vt 0.617499 0.007822
vt 0.150646 0.506889
vt 0.140881 0.524341
vt 0.132822 0.507501
vt 0.400646 0.750064
vt 0.849662 0.512594
vt 0.862646 0.724715
vt 0.857664 0.745138
vt 0.592459 0.532541
vt 0.618111 0.275646
vt 0.623554 0.483223
vt 0.131889 0.724354
vt 0.149404 0.733882
vt 0.132501 0.742178
vt 0.617499 0.007822
vt 0.132822 0.507501
vt 0.849543 0.512361
vt 0.862872 0.724593
vt 0.857664 0.745138
vt 0.149404 0.733882
vt 0.132501 0.742178
vt 0.150646 0.506889
vt 0.132822 0.507502
vt 0.849543 0.512361
vt 0.864196 0.726430
vt 0.617815 0.267340
vt 0.623554 0.483223
vt 0.150329 0.734199
vt 0.132185 0.727629
vt 0.150646 0.506889
vt 0.132822 0.507501
vt 0.399958 0.524745
vt 0.374936 0.525646
vt 0.854059 0.513786
vt 0.875000 0.525394
vt 0.592774 0.532226
vt 0.132256 0.724160
vt 0.149538 0.733983
vt 0.132501 0.742178
vt 0.623998 0.724347
vt 0.374195 0.525840
vt 0.140289 0.521347
vt 0.853304 0.514115
vt 0.875000 0.524968
vt 0.863472 0.726101
vt 0.150646 0.506889
vt 0.850031 0.750000
vt 0.635052 0.520861
vt 0.132501 0.742178
vt 0.400646 0.750064
vt 0.139770 0.523472
vt 0.849355 0.512038
vt 0.864196 0.726430
vt 0.148859 0.505837
vt 0.850032 0.750000
vt 0.407233 0.717767
vt 0.363678 0.726528
vt 0.150329 0.734199
vt 0.132185 0.727629
vt 0.635462 0.520864
vt 0.139770 0.523472
vt 0.849371 0.512361
vt 0.864196 0.726430
vt 0.148859 0.505837
vt 0.140881 0.524341
vt 0.132822 0.507501
vt 0.363678 0.726528
vt 0.854059 0.513786
s 0
usemtl Material.008
f 28/1/1 15/2/1 14/3/1
f 25/4/2 26/5/2 24/6/2
f 4/7/3 9/8/3 8/9/3
f 6/10/4 4/7/4 3/11/4
f 13/12/5 6/10/5 7/13/5
f 9/8/6 13/12/6 12/14/6
f 10/15/7 23/16/7 21/17/7
f 27/18/8 12/14/8 11/19/8
f 23/16/9 27/18/9 26/5/9
f 16/20/10 3/21/10 2/22/10
f 5/23/11 19/24/11 17/25/11
f 35/26/12 41/27/12 40/28/12
f 39/29/13 35/26/13 36/30/13
f 44/31/14 39/29/14 38/32/14
f 41/27/15 44/31/15 45/33/15
f 42/34/16 54/35/16 52/36/16
f 57/37/17 45/33/17 43/38/17
f 54/35/18 57/37/18 56/39/18
f 53/40/19 58/41/19 46/42/19
f 51/43/20 56/39/20 55/44/20
f 37/45/21 50/46/21 49/47/21
f 60/48/22 56/39/22 61/49/22
f 58/41/23 53/40/23 60/48/23
f 56/39/24 51/43/24 59/50/24
f 60/48/25 33/51/25 58/41/25
f 33/51/26 374/52/26 59/50/26
f 88/53/1 76/54/1 75/3/1
f 86/55/27 87/56/27 84/57/27
f 65/58/3 70/59/3 69/60/3
f 68/61/28 65/58/28 64/62/28
f 73/63/29 68/61/29 67/64/29
f 70/59/30 73/63/30 74/65/30
f 71/66/7 82/67/7 81/68/7
f 83/69/31 88/53/31 75/3/31
f 79/70/32 86/55/32 84/57/32
f 77/71/10 64/72/10 63/73/10
f 66/74/33 80/75/33 78/76/33
f 91/77/34 90/78/34 86/55/34
f 88/53/35 83/69/35 90/78/35
f 86/55/36 79/70/36 89/79/36
f 89/79/37 88/53/37 62/80/37
f 119/81/1 106/82/1 105/83/1
f 111/84/38 109/85/38 110/86/38
f 117/87/39 118/56/39 115/88/39
f 95/89/3 100/90/3 99/91/3
f 98/92/28 95/89/28 94/93/28
f 101/94/40 113/95/40 112/96/40
f 114/97/41 119/81/41 105/83/41
f 107/98/10 94/99/10 93/73/10
f 96/74/42 110/86/42 108/100/42
f 122/77/34 121/78/34 117/87/34
f 119/81/43 114/97/43 121/78/43
f 117/87/44 111/84/44 120/101/44
f 120/101/37 119/81/37 92/80/37
f 142/102/45 140/103/45 141/104/45
f 148/105/46 149/56/46 146/106/46
f 125/107/47 131/108/47 130/109/47
f 129/110/48 125/107/48 126/111/48
f 134/112/29 129/110/29 128/113/29
f 131/108/30 134/112/30 135/114/30
f 132/115/7 144/116/7 143/117/7
f 145/118/49 150/53/49 136/119/49
f 138/120/50 126/121/50 124/73/50
f 127/122/33 141/104/33 139/123/33
f 150/53/35 145/118/35 152/124/35
f 153/125/51 142/102/51 151/126/51
f 181/127/1 168/128/1 167/83/1
f 173/84/52 171/129/52 172/130/52
f 179/131/53 180/132/53 177/133/53
f 157/134/3 162/135/3 161/136/3
f 160/137/28 157/134/28 156/138/28
f 165/139/29 160/137/29 159/140/29
f 162/135/30 165/139/30 166/141/30
f 163/94/7 175/142/7 174/143/7
f 176/144/31 181/127/31 167/83/31
f 169/145/10 156/72/10 155/22/10
f 158/146/33 172/130/33 170/147/33
f 183/148/54 179/131/54 184/149/54
f 181/127/55 176/144/55 183/148/55
f 179/131/56 173/84/56 182/150/56
f 182/150/37 181/127/37 154/151/37
f 199/152/57 200/153/57 198/154/57
f 205/155/52 203/156/52 204/157/52
f 188/158/3 193/159/3 192/160/3
f 191/161/58 188/158/58 187/162/58
f 196/63/14 191/161/14 190/163/14
f 193/159/30 196/63/30 197/65/30
f 194/164/7 207/67/7 206/68/7
f 209/165/59 197/65/59 195/166/59
f 207/67/60 209/165/60 210/167/60
f 213/168/61 199/152/61 198/154/61
f 201/169/10 187/170/10 186/73/10
f 189/171/21 204/157/21 202/172/21
f 213/168/62 210/167/62 214/173/62
f 212/174/63 185/175/63 213/168/63
f 211/176/64 199/152/64 185/175/64
f 241/177/1 229/178/1 228/179/1
f 242/180/65 232/181/65 233/104/65
f 239/182/53 240/183/53 237/184/53
f 217/185/47 223/186/47 222/187/47
f 221/188/66 217/185/66 218/189/66
f 227/190/67 221/188/67 220/191/67
f 223/186/68 227/190/68 226/192/68
f 224/193/7 236/194/7 234/195/7
f 230/196/69 218/197/69 216/73/69
f 219/198/21 233/104/21 231/199/21
f 239/182/70 242/180/70 243/200/70
f 243/200/71 241/177/71 215/201/71
f 256/94/72 254/202/72 255/203/72
f 262/204/73 260/205/73 261/206/73
f 271/207/2 272/5/2 270/208/2
f 250/209/74 255/203/74 254/202/74
f 252/210/75 250/209/75 249/211/75
f 259/212/5 252/210/5 253/213/5
f 255/203/76 259/212/76 258/14/76
f 256/94/77 269/214/77 267/215/77
f 273/216/8 258/14/8 257/217/8
f 269/214/9 273/216/9 272/5/9
f 261/206/78 265/218/78 264/219/78
f 262/204/79 249/21/79 248/220/79
f 251/221/11 264/219/11 263/222/11
f 247/223/80 276/224/80 275/225/80
f 265/218/81 261/206/81 247/223/81
f 297/226/82 295/227/82 296/157/82
f 281/228/83 286/27/83 285/229/83
f 284/230/58 281/228/58 280/231/58
f 289/31/14 284/230/14 283/232/14
f 286/27/84 289/31/84 290/233/84
f 287/234/16 300/235/16 298/236/16
f 288/237/85 303/238/85 290/233/85
f 300/235/18 303/238/18 302/39/18
f 299/239/86 304/240/86 291/241/86
f 293/242/87 280/72/87 279/220/87
f 282/243/21 296/157/21 294/244/21
f 306/245/22 302/39/22 307/246/22
f 304/240/88 299/239/88 306/245/88
f 305/247/89 307/246/89 297/226/89
f 326/248/82 327/249/82 325/157/82
f 336/250/90 329/251/90 330/252/90
f 310/253/12 316/254/12 315/255/12
f 314/256/66 310/253/66 311/257/66
f 319/112/14 314/256/14 313/258/14
f 316/254/15 319/112/15 320/65/15
f 317/259/16 330/252/16 328/260/16
f 333/261/17 320/65/17 318/262/17
f 330/252/91 333/261/91 332/263/91
f 322/264/92 326/248/92 325/157/92
f 323/265/50 311/266/50 309/267/50
f 312/268/21 325/157/21 324/199/21
f 336/250/93 332/263/93 337/269/93
f 308/270/80 336/250/80 335/271/80
f 334/247/94 337/269/94 326/248/94
f 326/248/95 322/264/95 308/270/95
f 357/272/45 356/273/45 354/274/45
f 366/275/96 360/276/96 358/277/96
f 341/278/47 346/279/47 345/280/47
f 344/281/66 341/278/66 339/282/66
f 350/283/67 344/281/67 343/284/67
f 346/279/68 350/283/68 348/285/68
f 347/286/97 358/277/97 359/287/97
f 363/288/98 348/285/98 349/289/98
f 26/5/99 25/4/99 31/290/99 23/16/99
f 358/277/100 363/288/100 362/291/100
f 352/292/101 357/272/101 354/274/101
f 353/293/50 339/294/50 340/73/50
f 342/295/21 354/274/21 355/296/21
f 366/275/102 362/291/102 367/297/102
f 338/298/80 366/275/80 365/225/80
f 367/297/51 357/272/51 364/126/51
f 357/272/81 352/292/81 338/298/81
f 4/299/103 2/300/103 3/301/103
f 5/23/104 7/302/104 6/303/104
f 10/304/105 8/305/105 9/306/105
f 13/12/106 11/19/106 12/14/106
f 16/20/107 14/3/107 15/2/107
f 20/307/108 18/308/108 19/24/108
f 18/308/109 17/25/109 19/24/109
f 31/290/110 22/309/110 23/16/110
f 22/309/111 21/17/111 23/16/111
f 27/18/112 24/6/112 26/5/112
f 2/300/113 4/299/113 8/305/113
f 5/23/114 6/303/114 3/21/114
f 11/310/115 13/311/115 7/312/115
f 10/15/116 9/8/116 12/14/116
f 8/305/117 10/304/117 21/17/117
f 24/6/118 27/18/118 11/310/118
f 28/1/119 14/3/119 22/309/119 31/290/119
f 21/17/120 22/309/120 14/3/120
f 25/4/121 24/6/121 18/308/121 20/307/121
f 17/25/122 18/308/122 24/6/122
f 20/307/123 19/24/123 15/2/123 28/1/123
f 16/20/124 15/2/124 19/24/124
f 2/300/125 8/305/125 21/17/125 14/3/125
f 14/3/126 16/20/126 2/300/126
f 7/312/127 5/313/127 17/25/127
f 9/8/128 4/7/128 6/10/128 13/12/128
f 3/21/129 16/20/129 19/24/129 5/23/129
f 17/25/130 24/6/130 11/310/130 7/312/130
f 23/16/131 10/15/131 12/14/131 27/18/131
f 25/4/132 32/149/132 30/271/132 31/290/132
f 31/290/133 30/271/133 1/151/133 28/1/133
f 20/307/134 29/314/134 32/149/134 25/4/134
f 28/1/135 1/151/135 29/314/135 20/307/135
f 389/51/136 154/151/136 183/148/136 388/315/136
f 48/316/137 46/42/137 58/41/137 47/317/137
f 34/318/138 36/319/138 35/320/138
f 39/29/139 37/321/139 38/32/139
f 41/27/140 42/34/140 40/28/140
f 43/38/141 45/33/141 44/31/141
f 51/43/142 50/46/142 47/317/142 58/41/142
f 49/47/143 50/46/143 51/43/143
f 52/36/144 54/35/144 53/40/144
f 56/39/145 57/37/145 55/44/145
f 34/318/146 35/320/146 40/322/146
f 37/45/147 39/323/147 36/324/147
f 43/325/148 44/326/148 38/327/148
f 42/34/149 41/27/149 45/33/149
f 40/322/150 42/328/150 52/36/150
f 55/44/151 57/37/151 43/325/151
f 53/40/152 54/35/152 56/39/152
f 52/36/153 53/40/153 46/42/153
f 49/47/154 51/43/154 55/44/154
f 47/317/155 36/324/155 34/329/155 48/316/155
f 46/42/156 48/316/156 34/318/156
f 34/318/157 40/322/157 52/36/157 46/42/157
f 38/327/158 37/330/158 49/47/158
f 41/27/128 35/26/128 39/29/128 44/31/128
f 36/324/159 47/317/159 50/46/159 37/45/159
f 49/47/130 55/44/130 43/325/130 38/327/130
f 54/35/131 42/34/131 45/33/131 57/37/131
f 74/65/160 72/331/160 85/332/160 87/56/160
f 56/39/161 60/48/161 53/40/161
f 61/49/162 56/39/162 59/50/162
f 58/41/163 59/50/163 51/43/163
f 58/41/164 33/51/164 59/50/164
f 65/333/103 63/334/103 64/335/103
f 67/64/165 68/61/165 66/336/165
f 71/337/105 69/338/105 70/306/105
f 72/331/141 74/65/141 73/63/141
f 77/71/107 75/3/107 76/54/107
f 78/76/166 80/75/166 79/70/166
f 83/69/167 81/68/167 82/67/167
f 84/57/168 87/56/168 85/332/168
f 63/334/113 65/333/113 69/338/113
f 66/74/169 68/339/169 64/72/169
f 72/340/170 73/341/170 67/342/170
f 71/66/171 70/59/171 74/65/171
f 69/338/117 71/337/117 81/68/117
f 84/57/172 85/332/172 72/340/172
f 87/56/173 86/55/173 83/69/173 82/67/173
f 79/70/174 80/75/174 76/54/174 88/53/174
f 81/68/175 83/69/175 75/3/175
f 78/76/176 79/70/176 84/57/176
f 77/71/177 76/54/177 80/75/177
f 63/334/125 69/338/125 81/68/125 75/3/125
f 75/3/126 77/71/126 63/334/126
f 67/342/178 66/343/178 78/76/178
f 70/59/179 65/58/179 68/61/179 73/63/179
f 64/72/180 77/71/180 80/75/180 66/74/180
f 78/76/130 84/57/130 72/340/130 67/342/130
f 82/67/181 71/66/181 74/65/181 87/56/181
f 397/51/182 215/201/182 244/225/182 396/315/182
f 90/78/183 83/69/183 86/55/183
f 62/80/184 88/53/184 90/78/184
f 91/77/185 86/55/185 89/79/185
f 88/53/186 89/79/186 79/70/186
f 98/92/187 97/344/187 103/345/187 104/346/187
f 95/333/103 93/347/103 94/348/103
f 97/344/165 98/92/165 96/349/165
f 101/350/105 99/305/105 100/351/105
f 102/352/188 104/346/188 103/345/188
f 107/98/107 105/83/107 106/82/107
f 108/100/189 110/86/189 109/85/189
f 113/95/190 114/97/190 112/96/190
f 115/88/191 118/56/191 116/353/191
f 93/347/113 95/333/113 99/305/113
f 96/74/169 98/339/169 94/99/169
f 104/346/192 102/352/192 101/94/192 100/90/192
f 116/353/193 102/354/193 103/355/193 115/88/193
f 99/305/194 101/350/194 112/96/194
f 118/56/195 117/87/195 114/97/195 113/95/195
f 116/353/196 118/56/196 102/352/196
f 117/87/197 115/88/197 109/85/197 111/84/197
f 112/96/198 114/97/198 105/83/198
f 115/88/199 108/100/199 109/85/199
f 111/84/200 110/86/200 106/82/200 119/81/200
f 107/98/177 106/82/177 110/86/177
f 93/347/201 99/305/201 112/96/201 105/83/201
f 105/83/126 107/98/126 93/347/126
f 97/356/202 96/357/202 108/100/202
f 100/90/203 95/89/203 98/92/203 104/346/203
f 94/99/180 107/98/180 110/86/180 96/74/180
f 108/100/204 115/88/204 103/355/204 97/356/204
f 113/95/205 101/94/205 102/352/205 118/56/205
f 390/52/206 182/150/206 154/151/206 389/51/206
f 121/78/207 114/97/207 117/87/207
f 92/80/184 119/81/184 121/78/184
f 122/77/185 117/87/185 120/101/185
f 119/81/208 120/101/208 111/84/208
f 135/114/160 133/358/160 147/359/160 149/56/160
f 124/360/209 126/319/209 125/361/209
f 128/113/210 129/110/210 127/362/210
f 132/363/105 130/364/105 131/365/105
f 133/358/141 135/114/141 134/112/141
f 150/53/211 137/366/211 136/119/211
f 137/366/212 138/120/212 136/119/212
f 139/123/213 141/104/213 140/103/213
f 145/118/167 143/117/167 144/116/167
f 146/106/168 149/56/168 147/359/168
f 124/360/214 125/361/214 130/364/214
f 127/122/215 129/339/215 126/121/215
f 133/367/170 134/326/170 128/368/170
f 132/115/171 131/108/171 135/114/171
f 130/364/117 132/363/117 143/117/117
f 146/106/172 147/359/172 133/367/172
f 149/56/216 148/105/216 145/118/216 144/116/216
f 148/105/217 146/106/217 140/103/217 142/102/217
f 143/117/218 145/118/218 136/119/218
f 139/123/219 140/103/219 146/106/219
f 142/102/220 141/104/220 137/366/220 150/53/220
f 138/120/221 137/366/221 141/104/221
f 124/360/222 130/364/222 143/117/222 136/119/222
f 136/119/223 138/120/223 124/360/223
f 128/368/178 127/369/178 139/123/178
f 131/108/224 125/107/224 129/110/224 134/112/224
f 126/121/225 138/120/225 141/104/225 127/122/225
f 139/123/130 146/106/130 133/367/130 128/368/130
f 144/116/181 132/115/181 135/114/181 149/56/181
f 148/105/226 153/125/226 152/124/226 145/118/226
f 150/53/135 123/151/135 151/126/135 142/102/135
f 123/151/184 150/53/184 152/124/184
f 142/102/227 153/125/227 148/105/227
f 373/315/228 60/48/228 61/49/228 372/370/228
f 166/141/160 164/371/160 178/372/160 180/132/160
f 157/373/103 155/374/103 156/375/103
f 159/140/165 160/137/165 158/376/165
f 163/337/105 161/338/105 162/377/105
f 164/371/141 166/141/141 165/139/141
f 169/145/107 167/83/107 168/128/107
f 170/147/213 172/130/213 171/129/213
f 176/144/229 174/143/229 175/142/229
f 177/133/168 180/132/168 178/372/168
f 155/374/113 157/373/113 161/338/113
f 158/146/169 160/323/169 156/72/169
f 164/378/170 165/326/170 159/379/170
f 163/94/171 162/135/171 166/141/171
f 161/338/117 163/337/117 174/143/117
f 177/133/172 178/372/172 164/378/172
f 180/132/230 179/131/230 176/144/230 175/142/230
f 179/131/231 177/133/231 171/129/231 173/84/231
f 174/143/232 176/144/232 167/83/232
f 170/147/233 171/129/233 177/133/233
f 173/84/200 172/130/200 168/128/200 181/127/200
f 169/145/177 168/128/177 172/130/177
f 155/374/125 161/338/125 174/143/125 167/83/125
f 167/83/126 169/145/126 155/374/126
f 159/379/178 158/380/178 170/147/178
f 162/135/179 157/134/179 160/137/179 165/139/179
f 156/72/180 169/145/180 172/130/180 158/146/180
f 170/147/130 177/133/130 164/378/130 159/379/130
f 175/142/181 163/94/181 166/141/181 180/132/181
f 398/52/234 243/200/234 215/201/234 397/51/234
f 179/131/235 183/148/235 176/144/235
f 154/151/236 181/127/236 183/148/236
f 184/149/237 179/131/237 182/150/237
f 181/127/208 182/150/208 173/84/208
f 210/167/238 208/184/238 203/156/238 205/155/238
f 188/373/239 186/381/239 187/382/239
f 191/161/139 189/321/139 190/163/139
f 194/383/105 192/305/105 193/384/105
f 195/166/141 197/65/141 196/63/141
f 201/169/107 198/154/107 200/153/107
f 202/172/213 204/157/213 203/156/213
f 213/168/240 206/68/240 207/67/240
f 208/184/241 210/167/241 209/165/241
f 186/381/113 188/373/113 192/305/113
f 189/171/242 191/323/242 187/170/242
f 195/385/148 196/341/148 190/386/148
f 194/164/243 193/159/243 197/65/243
f 192/305/117 194/383/117 206/68/117
f 208/184/244 209/165/244 195/385/244
f 213/168/245 207/67/245 210/167/245
f 206/68/246 213/168/246 198/154/246
f 202/172/233 203/156/233 208/184/233
f 205/155/247 204/157/247 200/153/247 199/152/247
f 201/169/177 200/153/177 204/157/177
f 186/381/125 192/305/125 206/68/125 198/154/125
f 198/154/126 201/169/126 186/381/126
f 190/386/248 189/330/248 202/172/248
f 193/159/249 188/158/249 191/161/249 196/63/249
f 187/170/250 201/169/250 204/157/250 189/171/250
f 202/172/251 208/184/251 195/385/251 190/386/251
f 207/67/252 194/164/252 197/65/252 209/165/252
f 205/155/253 211/176/253 214/173/253 210/167/253
f 212/174/254 213/168/254 214/173/254
f 185/175/255 199/152/255 213/168/255
f 403/370/256 307/246/256 305/247/256 406/52/256
f 199/152/257 211/176/257 205/155/257
f 226/192/258 225/387/258 238/388/258 240/183/258
f 216/389/209 218/319/209 217/390/209
f 221/188/139 219/321/139 220/191/139
f 224/391/105 222/338/105 223/392/105
f 226/192/259 227/190/259 225/387/259
f 230/196/107 228/179/107 229/178/107
f 231/199/213 233/104/213 232/181/213
f 245/393/110 235/394/110 236/194/110
f 235/394/111 234/195/111 236/194/111
f 237/184/168 240/183/168 238/388/168
f 216/389/214 217/390/214 222/338/214
f 219/198/260 221/323/260 218/197/260
f 225/395/261 227/396/261 220/386/261
f 224/193/262 223/186/262 226/192/262
f 222/338/117 224/391/117 234/195/117
f 237/184/263 238/388/263 225/395/263
f 240/183/264 239/182/264 245/393/264 236/194/264
f 241/177/119 228/179/119 235/394/119 245/393/119
f 234/195/120 235/394/120 228/179/120
f 239/182/265 237/184/265 232/181/265 242/180/265
f 231/199/219 232/181/219 237/184/219
f 242/180/266 233/104/266 229/178/266 241/177/266
f 230/196/177 229/178/177 233/104/177
f 216/389/267 222/338/267 234/195/267 228/179/267
f 228/179/268 230/196/268 216/389/268
f 220/386/248 219/330/248 231/199/248
f 223/186/269 217/185/269 221/188/269 227/190/269
f 218/197/270 230/196/270 233/104/270 219/198/270
f 231/199/271 237/184/271 225/395/271 220/386/271
f 236/194/272 224/193/272 226/192/272 240/183/272
f 239/182/273 246/397/273 244/225/273 245/393/273
f 245/393/274 244/225/274 215/201/274 241/177/274
f 411/370/275 367/297/275 364/126/275 414/52/275
f 246/397/276 239/182/276 243/200/276
f 243/200/277 242/180/277 241/177/277
f 272/5/99 271/207/99 276/224/99 269/214/99
f 250/398/278 248/399/278 249/400/278
f 251/221/104 253/302/104 252/303/104
f 259/212/106 257/217/106 258/14/106
f 265/218/108 266/401/108 264/219/108
f 266/401/109 263/222/109 264/219/109
f 276/224/279 268/402/279 269/214/279
f 268/402/280 267/215/280 269/214/280
f 273/216/112 270/208/112 272/5/112
f 254/403/281 248/399/281 250/398/281
f 251/221/282 252/303/282 249/21/282
f 257/404/115 259/405/115 253/406/115
f 256/94/283 255/203/283 258/14/283
f 254/403/284 256/407/284 267/215/284
f 270/208/118 273/216/118 257/404/118
f 261/206/285 260/205/285 268/402/285 276/224/285
f 260/205/286 267/215/286 268/402/286
f 271/207/121 270/208/121 266/401/121 265/218/121
f 263/222/122 266/401/122 270/208/122
f 248/399/125 254/403/125 267/215/125 260/205/125
f 262/204/287 261/206/287 264/219/287
f 260/205/288 262/204/288 248/399/288
f 253/406/127 251/408/127 263/222/127
f 255/203/289 250/209/289 252/210/289 259/212/289
f 249/21/129 262/204/129 264/219/129 251/221/129
f 263/222/130 270/208/130 257/404/130 253/406/130
f 269/214/131 256/94/131 258/14/131 273/216/131
f 271/207/132 277/149/132 275/225/132 276/224/132
f 265/218/134 274/314/134 277/149/134 271/207/134
f 276/224/290 247/223/290 261/206/290
f 388/315/291 183/148/291 184/149/291 387/370/291
f 274/314/292 265/218/292 247/223/292
f 302/39/293 301/409/293 295/227/293 297/226/293
f 281/299/103 279/334/103 280/410/103
f 284/230/139 282/321/139 283/232/139
f 286/27/140 287/234/140 285/229/140
f 288/237/294 290/233/294 289/31/294
f 304/240/211 292/411/211 291/241/211
f 292/411/212 293/242/212 291/241/212
f 294/244/213 296/157/213 295/227/213
f 298/236/144 300/235/144 299/239/144
f 302/39/145 303/238/145 301/409/145
f 279/334/295 281/299/295 285/412/295
f 282/243/242 284/323/242 280/72/242
f 288/413/296 289/326/296 283/414/296
f 287/234/297 286/27/297 290/233/297
f 285/412/150 287/415/150 298/236/150
f 301/409/298 303/238/298 288/413/298
f 299/239/152 300/235/152 302/39/152
f 298/236/299 299/239/299 291/241/299
f 294/244/300 295/227/300 301/409/300
f 297/226/301 296/157/301 292/411/301 304/240/301
f 293/242/221 292/411/221 296/157/221
f 279/334/302 285/412/302 298/236/302 291/241/302
f 291/241/303 293/242/303 279/334/303
f 283/414/158 282/416/158 294/244/158
f 286/27/304 281/228/304 284/230/304 289/31/304
f 280/72/305 293/242/305 296/157/305 282/243/305
f 294/244/306 301/409/306 288/413/306 283/414/306
f 300/235/307 287/234/307 290/233/307 303/238/307
f 304/240/308 278/417/308 305/247/308 297/226/308
f 302/39/161 306/245/161 299/239/161
f 278/417/236 304/240/236 306/245/236
f 307/246/309 302/39/309 297/226/309
f 396/315/310 244/225/310 246/397/310 395/370/310
f 322/264/311 321/418/311 329/251/311 336/250/311
f 309/419/209 311/319/209 310/420/209
f 314/256/139 312/321/139 313/258/139
f 316/254/140 317/259/140 315/255/140
f 318/262/141 320/65/141 319/112/141
f 322/264/312 323/265/312 321/418/312
f 324/199/213 325/157/213 327/249/213
f 328/260/313 330/252/313 329/251/313
f 332/263/314 333/261/314 331/421/314
f 309/419/315 310/420/315 315/422/315
f 312/268/260 314/323/260 311/266/260
f 318/423/148 319/326/148 313/424/148
f 317/259/149 316/254/149 320/65/149
f 315/422/316 317/425/316 328/260/316
f 331/421/317 333/261/317 318/423/317
f 336/250/318 330/252/318 332/263/318
f 328/260/319 329/251/319 321/418/319
f 332/263/320 331/421/320 327/249/320 326/248/320
f 324/199/300 327/249/300 331/421/300
f 309/419/125 315/422/125 328/260/125 321/418/125
f 323/265/321 322/264/321 325/157/321
f 321/418/223 323/265/223 309/419/223
f 313/424/158 312/313/158 324/199/158
f 316/254/128 310/253/128 314/256/128 319/112/128
f 311/266/129 323/265/129 325/157/129 312/268/129
f 324/199/130 331/421/130 318/423/130 313/424/130
f 330/252/131 317/259/131 320/65/131 333/261/131
f 405/51/136 278/417/136 306/245/136 404/315/136
f 335/271/322 336/250/322 337/269/322
f 336/250/290 308/270/290 322/264/290
f 326/248/323 337/269/323 332/263/323
f 334/247/324 326/248/324 308/270/324
f 359/287/325 360/276/325 345/426/325 347/304/325
f 340/389/209 339/319/209 341/420/209
f 344/281/139 342/321/139 343/284/139
f 347/304/105 345/426/105 346/427/105
f 348/285/259 350/283/259 349/289/259
f 352/292/312 353/293/312 351/428/312
f 355/296/213 354/274/213 356/273/213
f 358/277/326 360/276/326 359/287/326
f 363/288/327 361/6/327 362/291/327
f 340/389/214 341/420/214 345/426/214
f 342/295/328 344/339/328 339/294/328
f 349/429/261 350/396/261 343/424/261
f 347/286/262 346/279/262 348/285/262
f 352/292/329 351/428/329 360/276/329 366/275/329
f 361/6/330 363/288/330 349/429/330
f 366/275/331 358/277/331 362/291/331
f 362/291/332 361/6/332 356/273/332 357/272/332
f 355/296/333 356/273/333 361/6/333
f 340/389/334 345/426/334 360/276/334 351/428/334
f 353/293/321 352/292/321 354/274/321
f 351/428/335 353/293/335 340/389/335
f 343/424/158 342/313/158 355/296/158
f 346/279/269 341/278/269 344/281/269 350/283/269
f 339/294/129 353/293/129 354/274/129 342/295/129
f 355/296/336 361/6/336 349/429/336 343/424/336
f 358/277/131 347/286/131 348/285/131 363/288/131
f 413/51/337 338/298/337 365/225/337 412/315/337
f 365/225/322 366/275/322 367/297/322
f 366/275/290 338/298/290 352/292/290
f 357/272/338 367/297/338 362/291/338
f 364/126/292 357/272/292 338/298/292
f 370/51/339 369/315/339 368/370/339 371/52/339
f 33/51/339 373/315/339 372/370/339 374/52/339
f 377/51/339 376/315/339 375/370/339 378/52/339
f 381/51/339 380/315/339 379/370/339 382/52/339
f 385/51/339 384/315/339 383/370/339 386/52/339
f 389/51/339 388/315/339 387/370/339 390/52/339
f 393/51/339 392/315/339 391/370/339 394/52/339
f 397/51/339 396/315/339 395/370/339 398/52/339
f 401/51/339 400/315/339 399/370/339 402/52/339
f 405/51/339 404/315/339 403/370/339 406/52/339
f 409/51/339 408/315/339 407/370/339 410/52/339
f 413/51/339 412/315/339 411/370/339 414/52/339
f 380/315/340 121/78/340 122/77/340 379/370/340
f 395/370/341 246/397/341 243/200/341 398/52/341
f 387/370/342 184/149/342 182/150/342 390/52/342
f 60/48/343 373/315/343 33/51/343
f 382/52/206 120/101/206 92/80/206 381/51/206
f 372/370/344 61/49/344 59/50/344 374/52/344
f 381/51/345 92/80/345 121/78/345 380/315/345
f 379/370/346 122/77/346 120/101/346 382/52/346
f 408/315/347 335/271/347 337/269/347 407/370/347
f 400/315/310 275/225/310 277/149/310 399/370/310
f 410/52/348 334/247/348 308/270/348 409/51/348
f 402/52/349 274/314/349 247/223/349 401/51/349
f 376/315/340 90/78/340 91/77/340 375/370/340
f 409/51/337 308/270/337 335/271/337 408/315/337
f 401/51/337 247/223/337 275/225/337 400/315/337
f 378/52/206 89/79/206 62/80/206 377/51/206
f 392/315/350 212/174/350 214/173/350 391/370/350
f 384/315/351 152/124/351 153/125/351 383/370/351
f 407/370/275 337/269/275 334/247/275 410/52/275
f 399/370/352 277/149/352 274/314/352 402/52/352
f 377/51/345 62/80/345 90/78/345 376/315/345
f 369/315/310 30/271/310 32/149/310 368/370/310
f 386/52/353 151/126/353 123/151/353 385/51/353
f 394/52/354 211/176/354 185/175/354 393/51/354
f 375/370/346 91/77/346 89/79/346 378/52/346
f 371/52/353 29/314/353 1/151/353 370/51/353
f 385/51/345 123/151/345 152/124/345 384/315/345
f 393/51/355 185/175/355 212/174/355 392/315/355
f 370/51/182 1/151/182 30/271/182 369/315/182
f 383/370/275 153/125/275 151/126/275 386/52/275
f 391/370/356 214/173/356 211/176/356 394/52/356
f 412/315/347 365/225/347 367/297/347 411/370/347
f 404/315/228 306/245/228 307/246/228 403/370/228
f 368/370/352 32/149/352 29/314/352 371/52/352
f 414/52/349 364/126/349 338/298/349 413/51/349
f 406/52/357 305/247/357 278/417/357 405/51/357
o Cube
v 2.985327 1.742224 0.386146
v 2.985327 1.742224 0.632746
v 2.985327 2.271101 0.386146
v 2.985327 2.271101 0.632746
v 3.107232 1.742224 0.386146
v 3.107232 1.742224 0.632746
v 3.107232 2.271101 0.386146
v 3.107232 2.271101 0.632746
vn -1.0000 -0.0000 -0.0000
vn -0.0000 1.0000 -0.0000
vn 1.0000 -0.0000 -0.0000
vn -0.0000 -1.0000 -0.0000
vn -0.0000 -0.0000 -1.0000
vn -0.0000 -0.0000 1.0000
vt 0.375000 0.000000
vt 0.625000 0.000000
vt 0.625000 0.250000
vt 0.375000 0.250000
vt 0.625000 0.500000
vt 0.375000 0.500000
vt 0.625000 0.750000
vt 0.375000 0.750000
vt 0.625000 1.000000
vt 0.375000 1.000000
vt 0.125000 0.500000
vt 0.125000 0.750000
vt 0.875000 0.500000
vt 0.875000 0.750000
s 0
usemtl Material.004
f 415/430/358 416/431/358 418/432/358 417/433/358
f 417/433/359 418/432/359 422/434/359 421/435/359
f 421/435/360 422/434/360 420/436/360 419/437/360
f 419/437/361 420/436/361 416/438/361 415/439/361
f 417/440/362 421/435/362 419/437/362 415/441/362
f 422/434/363 418/442/363 416/443/363 420/436/363
o Plane
v 3.109504 2.165745 0.531863
v 3.109504 1.857165 0.531863
v 3.109504 2.165745 0.478270
v 3.109504 1.857165 0.478270
vn 1.0000 -0.0000 -0.0000
vt 0.000000 0.000000
vt 1.000000 0.000000
vt 1.000000 1.000000
vt 0.000000 1.000000
s 0
usemtl Material.003
f 423/444/364 424/445/364 426/446/364 425/447/364
o Cube.001
v 3.023951 1.755876 -0.573179
v 3.023951 2.306560 -0.573179
v 3.023951 1.755876 -1.104779
v 3.023951 2.306560 -1.104779
v 3.073467 1.755876 -0.573179
v 3.073467 2.306560 -0.573179
v 3.073467 1.755876 -1.104779
v 3.073467 2.306560 -1.104779
vn -1.0000 -0.0000 -0.0000
vn -0.0000 -0.0000 -1.0000
vn 1.0000 -0.0000 -0.0000
vn -0.0000 -0.0000 1.0000
vn -0.0000 -1.0000 -0.0000
vn -0.0000 1.0000 -0.0000
vt 0.375000 0.000000
vt 0.625000 0.000000
vt 0.625000 0.250000
vt 0.375000 0.250000
vt 0.625000 0.500000
vt 0.375000 0.500000
vt 0.625000 0.750000
vt 0.375000 0.750000
vt 0.625000 1.000000
vt 0.375000 1.000000
vt 0.125000 0.500000
vt 0.125000 0.750000
vt 0.875000 0.500000
vt 0.875000 0.750000
s 0
usemtl Material.001
f 427/448/365 428/449/365 430/450/365 429/451/365
f 429/451/366 430/450/366 434/452/366 433/453/366
f 433/453/367 434/452/367 432/454/367 431/455/367
f 431/455/368 432/454/368 428/456/368 427/457/368
f 429/458/369 433/453/369 431/455/369 427/459/369
f 434/452/370 430/460/370 428/461/370 432/454/370
o Cube.002
v 3.030838 1.682979 -0.488753
v 3.030838 2.357824 -0.488753
v 3.030838 1.682979 -1.163597
v 3.030838 2.357824 -1.163597
v 3.304574 1.682979 -0.488753
v 3.304574 1.682979 -1.163597
v 3.030838 2.357824 -0.488753
v 3.300989 1.932019 -0.488753
v 3.268048 2.092631 -0.488753
v 3.231428 2.188859 -0.488753
v 3.184771 2.266718 -0.488753
v 3.108961 2.339088 -0.488753
v 3.046186 2.356985 -0.488753
v 3.030838 2.357824 -1.163597
v 3.301165 1.933519 -1.163597
v 3.046186 2.356985 -1.163597
v 3.104280 2.341698 -1.163597
v 3.181145 2.271428 -1.163597
v 3.228430 2.195024 -1.163597
v 3.265830 2.099944 -1.163597
vn -1.0000 -0.0000 -0.0000
vn -0.0000 1.0000 -0.0000
vn -0.0000 -1.0000 -0.0000
vn 0.0546 0.9985 -0.0000
vn 0.2647 0.9643 0.0009
vn 0.6827 0.7307 -0.0002
vn 0.8541 0.5201 -0.0000
vn 0.9326 0.3608 -0.0000
vn 0.9789 0.2044 -0.0001
vn 0.9999 0.0140 0.0001
vn -0.0000 -0.0000 1.0000
vn -0.0000 -0.0000 -1.0000
vt 0.375000 0.250000
vt 0.375000 0.000000
vt 0.625000 0.000000
vt 0.625000 0.250000
vt 0.791667 0.416667
vt 0.875000 0.750000
vt 0.791667 0.833333
vt 0.125000 0.750000
vt 0.125000 0.500000
vt 0.375000 0.500000
vt 0.375000 0.750000
vt 0.782218 0.421339
vt 0.782218 0.828661
vt 0.745040 0.438607
vt 0.741912 0.809991
vt 0.689786 0.462183
vt 0.687004 0.786716
vt 0.601407 0.476535
vt 0.591111 0.772555
vt 0.529197 0.487897
vt 0.526493 0.761429
vt 0.467393 0.497593
vt 0.466900 0.752290
vt 0.875000 0.500000
vt 0.375000 1.000000
vt 0.625000 1.000000
s 0
usemtl Material.007
f 437/462/371 435/463/371 436/464/371 438/465/371
f 448/466/372 436/467/372 441/468/372
f 435/469/373 437/470/373 440/471/373 439/472/373
f 450/473/374 448/466/374 441/468/374 447/474/374
f 451/475/375 450/473/375 447/474/375 446/476/375
f 452/477/376 451/475/376 446/476/376 445/478/376
f 453/479/377 452/477/377 445/478/377 444/480/377
f 454/481/378 453/479/378 444/480/378 443/482/378
f 449/483/379 454/481/379 443/482/379 442/484/379
f 439/472/380 440/471/380 449/483/380 442/484/380
f 448/466/372 438/485/372 436/467/372
f 435/486/381 439/472/381 442/484/381 443/482/381 444/480/381 445/478/381 446/476/381 447/474/381 441/468/381 436/487/381
f 438/465/382 448/466/382 450/473/382 451/475/382 452/477/382 453/479/382 454/481/382 449/483/382 440/471/382 437/462/382
o Body
v 3.052290 2.561685 -1.558367
v 3.052290 2.896688 1.558367
v 1.886416 2.896688 -1.558367
v 1.886417 2.896688 1.558367
v 3.052290 0.814402 -1.465757
v 3.052290 2.896688 0.344179
v 1.886416 2.896688 0.344179
v 3.052290 2.896688 1.397108
v 3.052290 5.455435 1.397108
v 3.052290 0.814402 1.465757
v 1.886417 2.896688 1.397108
v 1.886417 5.455435 1.397108
v 1.886416 5.185375 -1.558367
v 3.052290 4.562931 -1.475398
v 1.886416 4.973844 0.344179
v 3.052290 5.185375 1.558367
v 1.886417 4.973844 1.397108
v 1.886417 2.896688 1.558367
v 1.886416 2.896688 -1.558367
v 3.052290 2.896688 1.558367
v 3.052290 2.629581 -1.475398
v 3.052290 2.896688 0.344179
v 1.886416 2.896688 0.344179
v 3.052290 2.896688 1.397108
v 1.886417 2.896688 1.397108
v 1.889130 2.896688 1.397108
v 1.889130 2.896688 0.344179
v 1.889130 2.896688 0.344179
v 1.889130 4.973844 0.344179
v 1.889130 2.896688 1.397108
v 1.889130 4.973844 1.397108
v 1.886416 2.896688 -0.428402
v 3.052290 2.561685 -0.428402
v 1.886416 0.814402 -1.465757
v 3.052290 2.629581 -0.511371
v 1.886416 2.896688 -0.428402
v 3.052290 2.551975 -1.558367
v 3.052290 4.562931 -0.511371
v 3.052290 2.551975 -0.428402
v 2.756447 2.629581 -1.475398
v 2.756447 4.562931 -1.475398
v 2.756447 4.562931 -0.511371
v 2.756447 2.629581 -0.511371
v 3.052290 5.185375 -1.558367
v 3.052290 5.455435 -1.269645
v 3.052290 5.288723 -1.536390
v 3.052290 5.376336 -1.473803
v 3.052290 5.434878 -1.380135
v 3.052290 5.455435 1.397108
v 3.052290 5.434878 1.458819
v 3.052290 5.376336 1.511135
v 3.052290 5.288723 1.546092
v 1.886417 5.185376 1.558367
v 1.886417 5.455435 1.397108
v 1.886417 5.288723 1.546092
v 1.886417 5.376336 1.511136
v 1.886417 5.434878 1.458819
v 1.886416 5.455435 -1.269644
v 1.886416 5.434878 -1.380135
v 1.886416 5.376336 -1.473802
v 1.886416 5.288723 -1.536389
v 3.052290 0.865233 -1.551477
v 3.052290 0.826008 -1.512062
v 3.052290 0.867712 1.551954
v 3.052290 0.826008 1.512062
v 1.886416 0.871197 -1.554043
v 1.886416 0.826008 -1.512062
v 1.886417 0.814402 1.465757
v 1.886417 0.901026 1.558367
v 1.886417 0.826008 1.512062
v 1.886417 0.857714 1.545960
vn 1.0000 -0.0000 -0.0000
vn -1.0000 -0.0000 -0.0000
vn -0.0000 1.0000 -0.0000
vn -0.0000 -0.0000 1.0000
vn -0.0000 -0.9700 0.2431
vn -0.0026 -0.2754 0.9613
vn -0.0000 -1.0000 -0.0000
vn -0.0000 -0.0000 -1.0000
vn -0.0000 0.9487 0.3160
vn -0.0000 0.6663 0.7456
vn -0.0000 0.3706 0.9288
vn -0.0000 0.1179 0.9930
vn -0.0000 0.9831 -0.1829
vn -0.0000 0.8480 -0.5300
vn -0.0000 0.5813 -0.8137
vn -0.0000 0.2080 -0.9781
vn 0.0012 -0.7089 0.7053
vn -0.0000 -0.9700 -0.2431
vn -0.0010 -0.6941 -0.7199
vn 0.0007 -0.0030 -1.0000
vn 0.0027 -0.0016 1.0000
vt 0.625000 0.237065
vt 0.625000 0.250000
vt 0.625000 0.250000
vt 0.625000 0.597393
vt 0.625000 0.659363
vt 0.625000 0.500000
vt 0.625000 0.512935
vt 0.625000 1.000000
vt 0.625000 0.750000
vt 0.625000 0.152607
vt 0.625000 0.659363
vt 0.625000 0.090637
vt 0.625000 0.083982
vt 0.625000 0.083982
vt 0.625000 0.512935
vt 0.875000 0.512935
vt 0.375464 0.503714
vt 0.375000 0.507428
vt 0.125000 0.507428
vt 0.125000 0.503714
vt 0.379532 0.249626
vt 0.385400 0.500000
vt 0.376733 0.500332
vt 0.375000 0.007428
vt 0.376660 0.003714
vt 0.382385 0.000804
vt 0.625000 0.000000
vt 0.625000 0.726841
vt 0.875000 0.726841
vt 0.125000 0.742572
vt 0.375000 0.742572
vt 0.375000 0.242572
vt 0.625000 1.000000
vt 0.625000 0.006655
vt 0.625000 0.500000
vt 0.625000 0.000000
vt 0.625000 0.006655
vt 0.875000 0.507985
vt 0.625000 0.507985
vt 0.875000 0.500000
vt 0.625000 0.501263
vt 0.625000 0.249672
vt 0.625000 0.248106
vt 0.625000 0.500328
vt 0.625000 0.735704
vt 0.875000 0.735704
vt 0.625000 0.747739
vt 0.875000 0.750000
vt 0.625000 0.749412
vt 0.625000 0.014296
vt 0.625000 0.023159
vt 0.625000 0.001763
vt 0.625000 0.006783
vt 0.625000 0.242015
vt 0.125000 0.500000
vt 0.125000 0.746286
vt 0.375464 0.746286
vt 0.125000 0.750000
vt 0.379629 0.749779
vt 0.377377 1.000000
vt 0.376393 0.246286
s 0
usemtl Material.002
f 478/488/383 470/489/383 474/490/383
f 477/491/384 469/491/384 490/492/384
f 458/493/385 474/490/385 472/493/385
f 465/494/385 472/493/385 479/494/385
f 455/495/386 473/496/386 491/495/386
f 462/488/385 476/497/385 478/488/385
f 486/498/385 477/491/385 490/492/385
f 456/490/385 478/488/385 474/490/385
f 465/494/385 484/494/385 480/494/385
f 477/491/385 481/491/385 482/491/385
f 457/496/385 490/492/385 473/496/385
f 460/497/385 493/499/385 476/497/385
f 492/500/383 493/499/383 489/501/383
f 508/502/385 463/503/385 466/502/385
f 524/504/387 522/505/387 464/506/387 519/507/387
f 518/508/388 523/509/388 525/510/388
f 459/511/383 517/512/383 516/513/383 455/514/383 487/499/383
f 512/515/385 466/502/385 463/503/385 499/516/385
f 459/517/389 464/506/389 522/505/389 488/518/389
f 488/518/384 522/505/384 465/494/384 461/491/384
f 512/515/384 469/491/384 471/502/384 466/502/384
f 487/499/383 460/497/383 459/511/383
f 464/519/383 459/511/383 460/497/383 462/488/383
f 470/489/383 478/488/383 476/497/383 492/500/383
f 498/520/390 491/495/390 473/496/390 467/496/390
f 497/501/385 489/501/385 475/521/385 494/521/385
f 471/502/384 479/494/384 472/493/384 507/522/384
f 507/522/386 472/493/386 474/490/386 470/489/386
f 493/499/384 487/499/384 455/514/384 491/514/384
f 458/493/385 456/490/385 474/490/385
f 465/494/385 458/493/385 472/493/385
f 485/502/389 471/502/389 469/491/389 483/491/389
f 455/495/385 457/496/385 473/496/385
f 462/488/385 460/497/385 476/497/385
f 486/498/385 461/491/385 477/491/385
f 456/490/385 462/488/385 478/488/385
f 484/494/390 479/494/390 471/502/390 485/502/390
f 483/491/386 469/491/386 477/491/386 482/491/386
f 481/491/385 461/491/385 465/494/385 480/494/385
f 465/494/385 479/494/385 484/494/385
f 477/491/385 461/491/385 481/491/385
f 483/491/385 481/491/385 482/491/385
f 484/494/384 485/502/384 483/491/384 482/491/384 480/494/384
f 467/496/384 473/496/384 490/492/384 469/491/384
f 481/491/385 480/494/385 482/491/385
f 457/496/385 486/498/385 490/492/385
f 460/497/384 487/499/384 493/499/384
f 476/497/383 493/499/383 492/500/383
f 498/523/383 468/524/383 475/521/383 491/514/383
f 461/491/384 486/498/384 488/518/384
f 491/514/383 475/521/383 489/501/383 493/499/383
f 468/524/383 498/523/383 492/500/383
f 496/500/383 497/501/383 494/521/383 495/524/383
f 494/521/386 475/521/386 468/524/386 495/524/386
f 496/500/390 492/500/390 489/501/390 497/501/390
f 495/524/389 468/524/389 492/500/389 496/500/389
f 504/525/391 503/503/391 508/502/391 511/526/391
f 505/527/392 504/525/392 511/526/392 510/528/392
f 506/529/393 505/530/393 510/528/393 509/531/393
f 470/489/394 506/529/394 509/531/394 507/522/394
f 513/532/395 512/515/395 499/516/395 502/533/395
f 514/534/396 513/532/396 502/533/396 501/535/396
f 515/536/397 514/534/397 501/495/397 500/495/397
f 467/496/398 515/536/398 500/495/398 498/520/398
f 502/537/383 499/538/383 492/500/383 498/523/383 500/539/383 501/540/383
f 463/488/383 503/488/383 504/541/383 505/530/383 506/529/383 470/489/383
f 508/502/385 503/503/385 463/503/385
f 471/502/384 507/522/384 509/531/384 510/528/384 511/526/384 508/502/384 466/502/384
f 514/534/384 515/536/384 467/496/384 469/491/384 512/515/384 513/532/384
f 525/510/399 524/504/399 519/507/399 518/542/399
f 517/543/400 459/517/400 488/518/400 521/544/400
f 516/545/401 517/543/401 521/544/401 520/546/401
f 463/488/383 470/489/383 492/500/383 499/538/383
f 455/495/402 516/547/402 520/546/402 457/496/402
f 523/509/403 518/508/403 456/490/403 458/493/403
f 519/548/383 464/519/383 462/488/383 456/490/383 518/508/383
f 521/544/384 488/518/384 486/498/384 457/496/384 520/546/384
f 465/494/384 522/505/384 524/504/384 525/510/384 523/509/384 458/493/384
o Console
v 2.945153 4.918112 -1.219808
v 2.946020 5.265618 -1.226813
v 3.175566 4.921661 -1.239834
v 3.180968 4.928375 -1.027990
v 3.180968 5.254998 -1.027990
v 2.943081 4.914248 1.103736
v 2.949960 4.923688 1.245028
v 2.948805 5.260059 1.237216
v 2.943081 5.269125 1.103736
v 3.175244 4.923314 1.237216
v 3.180968 4.928375 1.002842
v 3.180968 5.254998 1.002842
v 3.174089 5.259685 1.245028
v 3.179561 5.265451 -1.217251
v 3.180968 4.914248 -1.128884
v 3.180968 4.914248 1.103736
v 3.180968 5.269125 1.103736
v 3.148196 5.254998 -1.027990
v 3.148196 4.928375 -1.027990
v 3.148196 4.928375 1.002842
v 3.148196 5.254998 1.002842
vn -0.0227 0.0227 -0.9995
vn 0.0095 -0.9977 -0.0671
vn 0.9988 -0.0084 -0.0492
vn -0.9989 -0.0012 0.0458
vn 0.9989 0.0012 0.0458
vn 0.0003 -0.9977 0.0672
vn -0.0003 0.9977 0.0672
vn -1.0000 0.0012 -0.0011
vn -0.0000 -0.0000 1.0000
vn -0.0080 -1.0000 -0.0009
vn 0.0004 1.0000 -0.0015
vn -0.0000 -0.0000 -1.0000
vn 1.0000 0.0014 -0.0049
vn 1.0000 -0.0000 -0.0000
vn 0.9984 0.0558 -0.0004
vn -0.0000 1.0000 -0.0000
vn -0.0000 -1.0000 -0.0000
vt 0.378328 0.496672
vt 0.378049 0.248811
vt 0.621654 0.249639
vt 0.623234 0.501991
vt 0.127830 0.503435
vt 0.375000 0.513097
vt 0.375000 0.016678
vt 0.379885 0.000000
vt 0.620115 0.000000
vt 0.625000 0.016678
vt 0.625000 0.733322
vt 0.620762 0.754238
vt 0.378153 0.753153
vt 0.375000 0.733322
vt 0.129885 0.750000
vt 0.125000 0.733322
vt 0.875000 0.733322
vt 0.870115 0.750000
vt 0.380221 0.994779
vt 0.620778 0.995778
vt 0.872005 0.502872
vt 0.615048 0.723369
vt 0.384952 0.723369
vt 0.615048 0.523049
vt 0.384952 0.523049
s 0
usemtl Material.005
f 528/549/404 526/550/404 527/551/404 539/552/404
f 526/553/405 528/549/405 540/554/405
f 540/554/406 528/549/406 539/552/406
f 531/555/407 532/556/407 533/557/407 534/558/407
f 542/559/408 538/560/408 535/561/408 541/562/408
f 532/563/409 531/564/409 541/562/409 535/561/409
f 538/560/410 542/559/410 534/565/410 533/566/410
f 526/550/411 531/555/411 534/558/411 527/551/411
f 532/567/412 535/561/412 538/560/412 533/568/412
f 531/564/413 526/553/413 540/554/413 541/562/413
f 542/559/414 539/552/414 527/569/414 534/565/414
f 546/570/415 537/570/415 536/571/415 545/571/415
f 539/552/416 530/572/416 529/573/416 540/554/416
f 541/562/417 536/571/417 537/570/417 542/559/417
f 541/562/417 540/554/417 529/573/417 536/571/417
f 539/552/418 542/559/418 537/570/418 530/572/418
f 545/571/419 536/571/419 529/573/419 544/573/419
f 544/573/412 529/573/412 530/572/412 543/572/412
f 543/572/420 530/572/420 537/570/420 546/570/420
usemtl Material.006
f 545/571/417 544/573/417 543/572/417 546/570/417
