# Blender 5.2.1 LTS
# www.blender.org
mtllib payphoneHead.mtl
o Cube
v 0.481064 9.132429 -0.929808
v 0.489669 7.869027 0.357059
v 0.368967 8.142254 -0.222270
v -0.491266 9.135063 0.277017
v -0.489669 7.869027 0.357059
v -0.350949 8.138906 -0.221293
v -0.421167 5.381994 0.281191
v 0.416828 5.537344 0.284760
v 0.350949 5.388906 -0.221293
v 0.415932 4.437541 0.203797
v -0.396349 9.059782 -0.923924
v -0.279664 8.218353 -0.728475
v 0.396349 9.059782 -0.923924
v 0.279664 8.218353 -0.728475
v -0.278008 5.311419 -0.718748
v 0.278008 5.311419 -0.718748
v -0.331822 4.511027 -0.808887
v 0.331822 4.511027 -0.808887
v -0.396349 9.085136 -0.814770
v -0.279664 8.243708 -0.619322
v 0.396349 9.085136 -0.814770
v 0.279664 8.243708 -0.619322
v -0.350949 5.388906 -0.710022
v 0.350949 5.388906 -0.710022
v -0.415182 4.433541 -0.817613
v 0.415182 4.433541 -0.817613
v -0.278008 5.300189 -0.619033
v 0.278008 5.300189 -0.619033
v -0.331822 4.499798 -0.709171
v 0.331822 4.499798 -0.709171
v -0.479077 9.130372 -0.929985
v -0.342953 8.148541 -0.703545
v 0.343248 8.147109 -0.702258
v -0.347023 5.389699 -0.220859
v 0.494717 9.065553 0.347650
v 0.489669 9.130641 0.280747
v -0.491136 9.056012 0.351743
v -0.416262 4.506757 0.275118
v -0.415889 4.436508 0.197824
v 0.415912 4.515329 0.278492
vn 0.9919 -0.0065 -0.1272
vn -0.0000 0.9741 -0.2263
vn -0.0021 1.0000 -0.0039
vn -0.0014 -0.0002 -1.0000
vn -0.0006 -0.0004 -1.0000
vn -0.9978 -0.0662 -0.0075
vn 0.9977 0.0675 -0.0007
vn 0.0006 -1.0000 0.0034
vn -0.9976 0.0699 0.0020
vn 0.0006 1.0000 -0.0008
vn -0.0000 -0.2263 -0.9741
vn 0.9910 0.1304 -0.0303
vn -0.9910 0.1304 -0.0303
vn -0.0000 -0.9741 0.2263
vn -0.0000 0.1119 -0.9937
vn -0.0000 0.9937 0.1119
vn 0.9978 -0.0662 -0.0075
vn -0.0000 -0.9937 -0.1119
vn -0.1257 -0.2402 -0.9626
vn -0.9905 -0.1368 -0.0122
vn 0.0002 -0.0831 -0.9965
vn 0.0014 -0.9999 -0.0151
vn 0.0006 -0.3409 -0.9401
vn 0.1341 -0.2412 -0.9612
vn 0.0007 -0.0307 0.9995
vn 0.9871 -0.1506 -0.0544
vn 0.9764 -0.0238 -0.2147
vn -0.9806 -0.0107 -0.1960
vn -0.0017 0.7008 0.7133
vn 0.0002 -0.7164 0.6977
vn 0.0045 1.0000 0.0014
vn 0.9936 -0.0757 -0.0837
vn 0.0021 0.0062 1.0000
vn -0.9765 -0.0148 -0.2151
vn -0.9917 0.0058 -0.1282
vn -0.0035 -0.0065 1.0000
vn 0.9933 0.0077 -0.1156
vt 0.375000 0.750000
vt 0.625000 0.750000
vt 0.347660 0.730145
vt 0.152340 0.730145
vt 0.372737 0.502139
vt 0.375000 0.249895
vt 0.591796 0.249235
vt 0.125000 0.750000
vt 0.348064 0.750000
vt 0.350788 0.750000
vt 0.585697 0.750000
vt 0.582928 1.000000
vt 0.375000 1.000000
vt 0.375000 0.000000
vt 0.582904 0.000000
vt 0.147148 0.519855
vt 0.352852 0.519855
vt 0.151936 0.750000
vt 0.149212 0.750000
vt 0.129912 0.746960
vt 0.131514 0.506099
vt 0.375000 0.000908
vt 0.370612 0.746935
vt 0.875000 0.750000
vt 0.875000 0.750000
vt 0.625000 0.000000
vt 0.622848 0.237124
vt 0.623204 0.508313
vt 0.593669 0.500894
vt 0.623250 0.750000
vt 0.625000 1.000000
vt 0.875000 0.508904
vt 0.618614 0.000000
s 0
usemtl Material
f 22/3/2 14/3/2 12/4/2 20/4/2
f 1/5/3 31/6/3 4/7/3
f 28/9/6 16/9/6 18/10/6 30/10/6
f 24/1/7 9/1/7 10/11/7 26/1/7
f 26/1/8 10/11/8 39/12/8 25/13/8
f 23/14/9 25/14/9 39/15/9 34/14/9
f 23/8/10 34/8/10 9/1/10 24/1/10
f 20/4/11 19/16/11 21/17/11 22/3/11
f 20/4/12 12/4/12 11/16/12 19/16/12
f 22/3/13 21/17/13 13/17/13 14/3/13
f 19/16/14 11/16/14 13/17/14 21/17/14
f 24/1/15 16/9/15 15/18/15 23/8/15
f 25/8/15 17/19/15 18/10/15 26/1/15
f 23/8/15 15/18/15 17/19/15 25/8/15
f 24/1/15 26/1/15 18/10/15 16/9/15
f 29/19/15 27/18/15 28/9/15 30/10/15
f 30/10/16 18/10/16 17/19/16 29/19/16
f 29/19/17 17/19/17 15/18/17 27/18/17
f 27/18/18 15/18/18 16/9/18 28/9/18
f 32/20/19 31/21/19 11/16/19 12/4/19
f 32/22/20 6/14/20 4/7/20 31/6/20
f 1/5/21 13/17/21 11/16/21 31/21/21
f 33/23/22 3/1/22 6/8/22 32/20/22
f 32/20/23 12/4/23 14/3/23 33/23/23
f 33/23/24 14/3/24 13/17/24 1/5/24
f 1/5/26 3/1/26 33/23/26
f 4/7/29 37/27/29 35/28/29 36/29/29
f 10/11/30 40/30/30 38/31/30 39/12/30
f 4/7/31 36/29/31 1/5/31
f 35/28/32 2/2/32 3/1/32 1/5/32 36/29/32
f 2/2/33 35/28/33 37/32/33 5/24/33
f 6/14/34 5/26/34 37/27/34 4/7/34
f 34/14/35 39/15/35 38/33/35 7/26/35
f 40/30/36 8/2/36 7/25/36 38/24/36
f 9/1/37 8/2/37 40/30/37 10/11/37
usemtl Material.001
f 3/1/1 8/2/1 9/1/1
f 3/1/4 34/8/4 6/8/4
f 3/1/5 9/1/5 34/8/5
f 8/2/25 2/2/25 5/24/25 7/25/25
f 2/2/27 8/2/27 3/1/27
f 34/14/28 7/26/28 5/26/28 6/14/28
