mtllib lowpoly_wire_notebook.mtl
s off
o back_cover
usemtl cover_dark
v -1.500000 0.170000 -2.000000
v 1.480000 0.170000 -1.960000
v 1.500000 0.170000 1.760000
v 1.380000 0.170000 2.000000
v -1.390000 0.170000 1.960000
v -1.530000 0.170000 1.760000
v -1.500000 0.255000 -2.000000
v 1.480000 0.255000 -1.960000
v 1.500000 0.255000 1.760000
v 1.380000 0.255000 2.000000
v -1.390000 0.255000 1.960000
v -1.530000 0.255000 1.760000
f 6 5 4 3 2 1
f 7 8 9 10 11 12
f 1 2 8 7
f 2 3 9 8
f 3 4 10 9
f 4 5 11 10
f 5 6 12 11
f 6 1 7 12
o front_cover
usemtl cover_green
v -1.500000 -0.255000 -2.000000
v 1.480000 -0.255000 -1.960000
v 1.500000 -0.255000 1.760000
v 1.380000 -0.255000 2.000000
v -1.390000 -0.255000 1.960000
v -1.530000 -0.255000 1.760000
v -1.500000 -0.170000 -2.000000
v 1.480000 -0.170000 -1.960000
v 1.500000 -0.170000 1.760000
v 1.380000 -0.170000 2.000000
v -1.390000 -0.170000 1.960000
v -1.530000 -0.170000 1.760000
f 18 17 16 15 14 13
f 19 20 21 22 23 24
f 13 14 20 19
f 14 15 21 20
f 15 16 22 21
f 16 17 23 22
f 17 18 24 23
f 18 13 19 24
o page_block
usemtl paper
v -1.380000 -0.155000 -1.880000
v 1.360000 -0.155000 -1.840000
v 1.380000 -0.155000 1.840000
v -1.340000 -0.155000 1.840000
v -1.380000 0.155000 -1.880000
v 1.360000 0.155000 -1.840000
v 1.380000 0.155000 1.840000
v -1.340000 0.155000 1.840000
f 28 27 26 25
f 29 30 31 32
f 25 26 30 29
f 26 27 31 30
f 27 28 32 31
f 28 25 29 32
o loose_page_0
usemtl paper
v -1.325000 -0.296516 -1.889713
v 1.365000 -0.296516 -1.889713
v 1.365000 -0.278523 -1.890217
v -1.325000 -0.278523 -1.890217
v -1.325000 -0.291477 -1.709783
v 1.365000 -0.291477 -1.709783
v 1.365000 -0.273484 -1.710287
v -1.325000 -0.273484 -1.710287
f 33 36 35 34
f 37 38 39 40
f 33 34 38 37
f 34 35 39 38
f 35 36 40 39
f 36 33 37 40
o loose_page_1
usemtl paper
v -1.325000 -0.343040 -1.924504
v 1.365000 -0.343040 -1.924504
v 1.365000 -0.325058 -1.925314
v -1.325000 -0.325058 -1.925314
v -1.325000 -0.334942 -1.744686
v 1.365000 -0.334942 -1.744686
v 1.365000 -0.316960 -1.745496
v -1.325000 -0.316960 -1.745496
f 41 44 43 42
f 45 46 47 48
f 41 42 46 45
f 42 43 47 46
f 43 44 48 47
f 44 41 45 48
o loose_page_2
usemtl paper
v -1.325000 -0.379381 -1.959298
v 1.365000 -0.379381 -1.959298
v 1.365000 -0.361413 -1.960378
v -1.325000 -0.361413 -1.960378
v -1.325000 -0.368587 -1.779622
v 1.365000 -0.368587 -1.779622
v 1.365000 -0.350619 -1.780702
v -1.325000 -0.350619 -1.780702
f 49 52 51 50
f 53 54 55 56
f 49 50 54 53
f 50 51 55 54
f 51 52 56 55
f 52 49 53 56
o page_edge_0
usemtl paper_dark
v -1.130000 -0.170000 -1.567000
v 1.290000 -0.170000 -1.567000
v 1.290000 -0.158000 -1.567000
v -1.130000 -0.158000 -1.567000
v -1.130000 -0.170000 -1.553000
v 1.290000 -0.170000 -1.553000
v 1.290000 -0.158000 -1.553000
v -1.130000 -0.158000 -1.553000
f 57 60 59 58
f 61 62 63 64
f 57 58 62 61
f 58 59 63 62
f 59 60 64 63
f 60 57 61 64
o page_edge_1
usemtl paper_dark
v -1.130000 -0.170000 -1.512000
v 1.290000 -0.170000 -1.512000
v 1.290000 -0.158000 -1.512000
v -1.130000 -0.158000 -1.512000
v -1.130000 -0.170000 -1.498000
v 1.290000 -0.170000 -1.498000
v 1.290000 -0.158000 -1.498000
v -1.130000 -0.158000 -1.498000
f 65 68 67 66
f 69 70 71 72
f 65 66 70 69
f 66 67 71 70
f 67 68 72 71
f 68 65 69 72
o page_edge_2
usemtl paper_dark
v -1.130000 -0.170000 -1.457000
v 1.290000 -0.170000 -1.457000
v 1.290000 -0.158000 -1.457000
v -1.130000 -0.158000 -1.457000
v -1.130000 -0.170000 -1.443000
v 1.290000 -0.170000 -1.443000
v 1.290000 -0.158000 -1.443000
v -1.130000 -0.158000 -1.443000
f 73 76 75 74
f 77 78 79 80
f 73 74 78 77
f 74 75 79 78
f 75 76 80 79
f 76 73 77 80
o page_edge_3
usemtl paper_dark
v -1.130000 -0.170000 -1.402000
v 1.290000 -0.170000 -1.402000
v 1.290000 -0.158000 -1.402000
v -1.130000 -0.158000 -1.402000
v -1.130000 -0.170000 -1.388000
v 1.290000 -0.170000 -1.388000
v 1.290000 -0.158000 -1.388000
v -1.130000 -0.158000 -1.388000
f 81 84 83 82
f 85 86 87 88
f 81 82 86 85
f 82 83 87 86
f 83 84 88 87
f 84 81 85 88
o page_edge_4
usemtl paper_dark
v -1.130000 -0.170000 -1.347000
v 1.290000 -0.170000 -1.347000
v 1.290000 -0.158000 -1.347000
v -1.130000 -0.158000 -1.347000
v -1.130000 -0.170000 -1.333000
v 1.290000 -0.170000 -1.333000
v 1.290000 -0.158000 -1.333000
v -1.130000 -0.158000 -1.333000
f 89 92 91 90
f 93 94 95 96
f 89 90 94 93
f 90 91 95 94
f 91 92 96 95
f 92 89 93 96
o page_edge_5
usemtl paper_dark
v -1.130000 -0.170000 -1.292000
v 1.290000 -0.170000 -1.292000
v 1.290000 -0.158000 -1.292000
v -1.130000 -0.158000 -1.292000
v -1.130000 -0.170000 -1.278000
v 1.290000 -0.170000 -1.278000
v 1.290000 -0.158000 -1.278000
v -1.130000 -0.158000 -1.278000
f 97 100 99 98
f 101 102 103 104
f 97 98 102 101
f 98 99 103 102
f 99 100 104 103
f 100 97 101 104
o page_edge_6
usemtl paper_dark
v -1.130000 -0.170000 -1.237000
v 1.290000 -0.170000 -1.237000
v 1.290000 -0.158000 -1.237000
v -1.130000 -0.158000 -1.237000
v -1.130000 -0.170000 -1.223000
v 1.290000 -0.170000 -1.223000
v 1.290000 -0.158000 -1.223000
v -1.130000 -0.158000 -1.223000
f 105 108 107 106
f 109 110 111 112
f 105 106 110 109
f 106 107 111 110
f 107 108 112 111
f 108 105 109 112
o hole_front_0
usemtl ink
v -1.500000 -0.268000 -1.522500
v -1.360000 -0.268000 -1.522500
v -1.360000 -0.254000 -1.522500
v -1.500000 -0.254000 -1.522500
v -1.500000 -0.268000 -1.437500
v -1.360000 -0.268000 -1.437500
v -1.360000 -0.254000 -1.437500
v -1.500000 -0.254000 -1.437500
f 113 116 115 114
f 117 118 119 120
f 113 114 118 117
f 114 115 119 118
f 115 116 120 119
f 116 113 117 120
o hole_back_0
usemtl ink
v -1.500000 0.254000 -1.522500
v -1.360000 0.254000 -1.522500
v -1.360000 0.268000 -1.522500
v -1.500000 0.268000 -1.522500
v -1.500000 0.254000 -1.437500
v -1.360000 0.254000 -1.437500
v -1.360000 0.268000 -1.437500
v -1.500000 0.268000 -1.437500
f 121 124 123 122
f 125 126 127 128
f 121 122 126 125
f 122 123 127 126
f 123 124 128 127
f 124 121 125 128
o wire_0_00
usemtl wire
v -1.236497 0.025792 -1.480000
v -1.254198 0.028386 -1.508913
v -1.287701 0.022594 -1.508913
v -1.303503 0.014208 -1.480000
v -1.285802 0.011614 -1.451087
v -1.252299 0.017406 -1.451087
v -1.263292 0.180792 -1.449689
v -1.280992 0.183386 -1.478602
v -1.314496 0.177594 -1.478602
v -1.330298 0.169208 -1.449689
v -1.312597 0.166614 -1.420776
v -1.279094 0.172406 -1.420776
f 134 133 132 131 130 129
f 135 136 137 138 139 140
f 129 130 136 135
f 130 131 137 136
f 131 132 138 137
f 132 133 139 138
f 133 134 140 139
f 134 129 135 140
o wire_0_01
usemtl wire
v -1.268225 0.193432 -1.449689
v -1.282510 0.184216 -1.479134
v -1.311080 0.165784 -1.479134
v -1.325365 0.156568 -1.449689
v -1.311080 0.165784 -1.420244
v -1.282510 0.184216 -1.420244
v -1.341430 0.306900 -1.449689
v -1.355715 0.297684 -1.479134
v -1.384285 0.279252 -1.479134
v -1.398570 0.270036 -1.449689
v -1.384285 0.279252 -1.420244
v -1.355715 0.297684 -1.420244
f 146 145 144 143 142 141
f 147 148 149 150 151 152
f 141 142 148 147
f 142 143 149 148
f 143 144 150 149
f 144 145 151 150
f 145 146 152 151
f 146 141 147 152
o wire_0_02
usemtl wire
v -1.356959 0.319867 -1.449689
v -1.356149 0.301123 -1.478044
v -1.369190 0.269724 -1.478044
v -1.383041 0.257068 -1.449689
v -1.383851 0.275812 -1.421334
v -1.370810 0.307212 -1.421334
v -1.456959 0.361400 -1.480000
v -1.456149 0.342655 -1.508355
v -1.469190 0.311256 -1.508355
v -1.483041 0.298600 -1.480000
v -1.483851 0.317345 -1.451645
v -1.470810 0.348744 -1.451645
f 158 157 156 155 154 153
f 159 160 161 162 163 164
f 153 154 160 159
f 154 155 161 160
f 155 156 162 161
f 156 157 163 162
f 157 158 164 163
f 158 153 159 164
o wire_0_03
usemtl wire
v -1.483041 0.361400 -1.480000
v -1.469190 0.348744 -1.508355
v -1.456149 0.317345 -1.508355
v -1.456959 0.298600 -1.480000
v -1.470810 0.311256 -1.451645
v -1.483851 0.342655 -1.451645
v -1.583041 0.319867 -1.510311
v -1.569190 0.307212 -1.538666
v -1.556149 0.275812 -1.538666
v -1.556959 0.257068 -1.510311
v -1.570810 0.269724 -1.481956
v -1.583851 0.301123 -1.481956
f 170 169 168 167 166 165
f 171 172 173 174 175 176
f 165 166 172 171
f 166 167 173 172
f 167 168 174 173
f 168 169 175 174
f 169 170 176 175
f 170 165 171 176
o wire_0_04
usemtl wire
v -1.598570 0.306900 -1.510311
v -1.584285 0.297684 -1.539756
v -1.555715 0.279252 -1.539756
v -1.541430 0.270036 -1.510311
v -1.555715 0.279252 -1.480866
v -1.584285 0.297684 -1.480866
v -1.671775 0.193432 -1.510311
v -1.657490 0.184216 -1.539756
v -1.628920 0.165784 -1.539756
v -1.614635 0.156568 -1.510311
v -1.628920 0.165784 -1.480866
v -1.657490 0.184216 -1.480866
f 182 181 180 179 178 177
f 183 184 185 186 187 188
f 177 178 184 183
f 178 179 185 184
f 179 180 186 185
f 180 181 187 186
f 181 182 188 187
f 182 177 183 188
o wire_0_05
usemtl wire
v -1.676708 0.180792 -1.510311
v -1.660906 0.172406 -1.539224
v -1.627403 0.166614 -1.539224
v -1.609702 0.169208 -1.510311
v -1.625504 0.177594 -1.481398
v -1.659008 0.183386 -1.481398
v -1.703503 0.025792 -1.480000
v -1.687701 0.017406 -1.508913
v -1.654198 0.011614 -1.508913
v -1.636497 0.014208 -1.480000
v -1.652299 0.022594 -1.451087
v -1.685802 0.028386 -1.451087
f 194 193 192 191 190 189
f 195 196 197 198 199 200
f 189 190 196 195
f 190 191 197 196
f 191 192 198 197
f 192 193 199 198
f 193 194 200 199
f 194 189 195 200
o wire_0_06
usemtl wire
v -1.703503 0.014208 -1.480000
v -1.685802 0.011614 -1.508913
v -1.652299 0.017406 -1.508913
v -1.636497 0.025792 -1.480000
v -1.654198 0.028386 -1.451087
v -1.687701 0.022594 -1.451087
v -1.676708 -0.140792 -1.449689
v -1.659008 -0.143386 -1.478602
v -1.625504 -0.137594 -1.478602
v -1.609702 -0.129208 -1.449689
v -1.627403 -0.126614 -1.420776
v -1.660906 -0.132406 -1.420776
f 206 205 204 203 202 201
f 207 208 209 210 211 212
f 201 202 208 207
f 202 203 209 208
f 203 204 210 209
f 204 205 211 210
f 205 206 212 211
f 206 201 207 212
o wire_0_07
usemtl wire
v -1.671775 -0.153432 -1.449689
v -1.657490 -0.144216 -1.479134
v -1.628920 -0.125784 -1.479134
v -1.614635 -0.116568 -1.449689
v -1.628920 -0.125784 -1.420244
v -1.657490 -0.144216 -1.420244
v -1.598570 -0.266900 -1.449689
v -1.584285 -0.257684 -1.479134
v -1.555715 -0.239252 -1.479134
v -1.541430 -0.230036 -1.449689
v -1.555715 -0.239252 -1.420244
v -1.584285 -0.257684 -1.420244
f 218 217 216 215 214 213
f 219 220 221 222 223 224
f 213 214 220 219
f 214 215 221 220
f 215 216 222 221
f 216 217 223 222
f 217 218 224 223
f 218 213 219 224
o wire_0_08
usemtl wire
v -1.583041 -0.279867 -1.449689
v -1.583851 -0.261123 -1.478044
v -1.570810 -0.229724 -1.478044
v -1.556959 -0.217068 -1.449689
v -1.556149 -0.235812 -1.421334
v -1.569190 -0.267212 -1.421334
v -1.483041 -0.321400 -1.480000
v -1.483851 -0.302655 -1.508355
v -1.470810 -0.271256 -1.508355
v -1.456959 -0.258600 -1.480000
v -1.456149 -0.277345 -1.451645
v -1.469190 -0.308744 -1.451645
f 230 229 228 227 226 225
f 231 232 233 234 235 236
f 225 226 232 231
f 226 227 233 232
f 227 228 234 233
f 228 229 235 234
f 229 230 236 235
f 230 225 231 236
o wire_0_09
usemtl wire
v -1.456959 -0.321400 -1.480000
v -1.470810 -0.308744 -1.508355
v -1.483851 -0.277345 -1.508355
v -1.483041 -0.258600 -1.480000
v -1.469190 -0.271256 -1.451645
v -1.456149 -0.302655 -1.451645
v -1.356959 -0.279867 -1.510311
v -1.370810 -0.267212 -1.538666
v -1.383851 -0.235812 -1.538666
v -1.383041 -0.217068 -1.510311
v -1.369190 -0.229724 -1.481956
v -1.356149 -0.261123 -1.481956
f 242 241 240 239 238 237
f 243 244 245 246 247 248
f 237 238 244 243
f 238 239 245 244
f 239 240 246 245
f 240 241 247 246
f 241 242 248 247
f 242 237 243 248
o wire_0_10
usemtl wire
v -1.341430 -0.266900 -1.510311
v -1.355715 -0.257684 -1.539756
v -1.384285 -0.239252 -1.539756
v -1.398570 -0.230036 -1.510311
v -1.384285 -0.239252 -1.480866
v -1.355715 -0.257684 -1.480866
v -1.268225 -0.153432 -1.510311
v -1.282510 -0.144216 -1.539756
v -1.311080 -0.125784 -1.539756
v -1.325365 -0.116568 -1.510311
v -1.311080 -0.125784 -1.480866
v -1.282510 -0.144216 -1.480866
f 254 253 252 251 250 249
f 255 256 257 258 259 260
f 249 250 256 255
f 250 251 257 256
f 251 252 258 257
f 252 253 259 258
f 253 254 260 259
f 254 249 255 260
o wire_0_11
usemtl wire
v -1.263292 -0.140792 -1.510311
v -1.279094 -0.132406 -1.539224
v -1.312597 -0.126614 -1.539224
v -1.330298 -0.129208 -1.510311
v -1.314496 -0.137594 -1.481398
v -1.280992 -0.143386 -1.481398
v -1.236497 0.014208 -1.480000
v -1.252299 0.022594 -1.508913
v -1.285802 0.028386 -1.508913
v -1.303503 0.025792 -1.480000
v -1.287701 0.017406 -1.451087
v -1.254198 0.011614 -1.451087
f 266 265 264 263 262 261
f 267 268 269 270 271 272
f 261 262 268 267
f 262 263 269 268
f 263 264 270 269
f 264 265 271 270
f 265 266 272 271
f 266 261 267 272
o hole_front_1
usemtl ink
v -1.500000 -0.268000 -0.962500
v -1.360000 -0.268000 -0.962500
v -1.360000 -0.254000 -0.962500
v -1.500000 -0.254000 -0.962500
v -1.500000 -0.268000 -0.877500
v -1.360000 -0.268000 -0.877500
v -1.360000 -0.254000 -0.877500
v -1.500000 -0.254000 -0.877500
f 273 276 275 274
f 277 278 279 280
f 273 274 278 277
f 274 275 279 278
f 275 276 280 279
f 276 273 277 280
o hole_back_1
usemtl ink
v -1.500000 0.254000 -0.962500
v -1.360000 0.254000 -0.962500
v -1.360000 0.268000 -0.962500
v -1.500000 0.268000 -0.962500
v -1.500000 0.254000 -0.877500
v -1.360000 0.254000 -0.877500
v -1.360000 0.268000 -0.877500
v -1.500000 0.268000 -0.877500
f 281 284 283 282
f 285 286 287 288
f 281 282 286 285
f 282 283 287 286
f 283 284 288 287
f 284 281 285 288
o wire_1_00
usemtl wire
v -1.237501 0.052380 -0.914424
v -1.255206 0.053522 -0.943428
v -1.288344 0.045916 -0.943428
v -1.303778 0.037168 -0.914424
v -1.286074 0.036025 -0.885419
v -1.252935 0.043631 -0.885419
v -1.272202 0.203565 -0.887288
v -1.289906 0.204707 -0.916293
v -1.323045 0.197101 -0.916293
v -1.338479 0.188353 -0.887288
v -1.320774 0.187210 -0.858284
v -1.287636 0.194816 -0.858284
f 294 293 292 291 290 289
f 295 296 297 298 299 300
f 289 290 296 295
f 290 291 297 296
f 291 292 298 297
f 292 293 299 298
f 293 294 300 299
f 294 289 295 300
o wire_1_01
usemtl wire
v -1.278240 0.216491 -0.887288
v -1.291031 0.205223 -0.916706
v -1.318132 0.184691 -0.916706
v -1.332441 0.175427 -0.887288
v -1.319650 0.186695 -0.857870
v -1.292549 0.207227 -0.857870
v -1.357061 0.320528 -0.892864
v -1.369852 0.309260 -0.922282
v -1.396953 0.288728 -0.922282
v -1.411262 0.279464 -0.892864
v -1.398471 0.290732 -0.863446
v -1.371370 0.311264 -0.863446
f 306 305 304 303 302 301
f 307 308 309 310 311 312
f 301 302 308 307
f 302 303 309 308
f 303 304 310 309
f 304 305 311 310
f 305 306 312 311
f 306 301 307 312
o wire_1_02
usemtl wire
v -1.374844 0.332695 -0.892864
v -1.371144 0.313963 -0.920997
v -1.380461 0.281265 -0.920997
v -1.393478 0.267297 -0.892864
v -1.397179 0.286029 -0.864732
v -1.387862 0.318727 -0.864732
v -1.476666 0.361707 -0.925576
v -1.472965 0.342976 -0.953709
v -1.482282 0.310277 -0.953709
v -1.495300 0.296310 -0.925576
v -1.499001 0.315041 -0.897443
v -1.489684 0.347740 -0.897443
f 318 317 316 315 314 313
f 319 320 321 322 323 324
f 313 314 320 319
f 314 315 321 320
f 315 316 322 321
f 316 317 323 322
f 317 318 324 323
f 318 313 319 324
o wire_1_03
usemtl wire
v -1.502401 0.358782 -0.925576
v -1.488089 0.347261 -0.954184
v -1.471671 0.317487 -0.954184
v -1.469565 0.299235 -0.925576
v -1.483877 0.310756 -0.896968
v -1.500295 0.340530 -0.896968
v -1.599940 0.304996 -0.952712
v -1.585628 0.293475 -0.981320
v -1.569210 0.263701 -0.981320
v -1.567104 0.245449 -0.952712
v -1.581416 0.256970 -0.924104
v -1.597834 0.286744 -0.924104
f 330 329 328 327 326 325
f 331 332 333 334 335 336
f 325 326 332 331
f 326 327 333 332
f 327 328 334 333
f 328 329 335 334
f 329 330 336 335
f 330 325 331 336
o wire_1_04
usemtl wire
v -1.613321 0.291594 -0.952712
v -1.598988 0.282377 -0.982133
v -1.569189 0.266005 -0.982133
v -1.553723 0.258851 -0.952712
v -1.568056 0.268068 -0.923290
v -1.597855 0.284440 -0.923290
v -1.680442 0.169421 -0.947136
v -1.666109 0.160204 -0.976557
v -1.636310 0.143833 -0.976557
v -1.620844 0.136678 -0.947136
v -1.635176 0.145896 -0.917714
v -1.664975 0.162267 -0.917714
f 342 341 340 339 338 337
f 343 344 345 346 347 348
f 337 338 344 343
f 338 339 345 344
f 339 340 346 345
f 340 341 347 346
f 341 342 348 347
f 342 337 343 348
o wire_1_05
usemtl wire
v -1.684406 0.157054 -0.947136
v -1.668223 0.149157 -0.975976
v -1.634460 0.145153 -0.975976
v -1.616879 0.149045 -0.947136
v -1.633062 0.156942 -0.918295
v -1.666825 0.160947 -0.918295
v -1.703124 -0.000769 -0.914424
v -1.686941 -0.008666 -0.943264
v -1.653178 -0.012670 -0.943264
v -1.635597 -0.008778 -0.914424
v -1.651780 -0.000881 -0.885584
v -1.685543 0.003123 -0.885584
f 354 353 352 351 350 349
f 355 356 357 358 359 360
f 349 350 356 355
f 350 351 357 356
f 351 352 358 357
f 352 353 359 358
f 353 354 360 359
f 354 349 355 360
o wire_1_06
usemtl wire
v -1.702499 -0.012380 -0.914424
v -1.684794 -0.013522 -0.943428
v -1.651656 -0.005916 -0.943428
v -1.636222 0.002832 -0.914424
v -1.653926 0.003975 -0.885419
v -1.687065 -0.003631 -0.885419
v -1.667798 -0.163565 -0.887288
v -1.650094 -0.164707 -0.916293
v -1.616955 -0.157101 -0.916293
v -1.601521 -0.148353 -0.887288
v -1.619226 -0.147210 -0.858284
v -1.652364 -0.154816 -0.858284
f 366 365 364 363 362 361
f 367 368 369 370 371 372
f 361 362 368 367
f 362 363 369 368
f 363 364 370 369
f 364 365 371 370
f 365 366 372 371
f 366 361 367 372
o wire_1_07
usemtl wire
v -1.661760 -0.176491 -0.887288
v -1.648969 -0.165223 -0.916706
v -1.621868 -0.144691 -0.916706
v -1.607559 -0.135427 -0.887288
v -1.620350 -0.146695 -0.857870
v -1.647451 -0.167227 -0.857870
v -1.582939 -0.280528 -0.892864
v -1.570148 -0.269260 -0.922282
v -1.543047 -0.248728 -0.922282
v -1.528738 -0.239464 -0.892864
v -1.541529 -0.250732 -0.863446
v -1.568630 -0.271264 -0.863446
f 378 377 376 375 374 373
f 379 380 381 382 383 384
f 373 374 380 379
f 374 375 381 380
f 375 376 382 381
f 376 377 383 382
f 377 378 384 383
f 378 373 379 384
o wire_1_08
usemtl wire
v -1.565156 -0.292695 -0.892864
v -1.568856 -0.273963 -0.920997
v -1.559539 -0.241265 -0.920997
v -1.546522 -0.227297 -0.892864
v -1.542821 -0.246029 -0.864732
v -1.552138 -0.278727 -0.864732
v -1.463334 -0.321707 -0.925576
v -1.467035 -0.302976 -0.953709
v -1.457718 -0.270277 -0.953709
v -1.444700 -0.256310 -0.925576
v -1.440999 -0.275041 -0.897443
v -1.450316 -0.307740 -0.897443
f 390 389 388 387 386 385
f 391 392 393 394 395 396
f 385 386 392 391
f 386 387 393 392
f 387 388 394 393
f 388 389 395 394
f 389 390 396 395
f 390 385 391 396
o wire_1_09
usemtl wire
v -1.437599 -0.318782 -0.925576
v -1.451911 -0.307261 -0.954184
v -1.468329 -0.277487 -0.954184
v -1.470435 -0.259235 -0.925576
v -1.456123 -0.270756 -0.896968
v -1.439705 -0.300530 -0.896968
v -1.340060 -0.264996 -0.952712
v -1.354372 -0.253475 -0.981320
v -1.370790 -0.223701 -0.981320
v -1.372896 -0.205449 -0.952712
v -1.358584 -0.216970 -0.924104
v -1.342166 -0.246744 -0.924104
f 402 401 400 399 398 397
f 403 404 405 406 407 408
f 397 398 404 403
f 398 399 405 404
f 399 400 406 405
f 400 401 407 406
f 401 402 408 407
f 402 397 403 408
o wire_1_10
usemtl wire
v -1.326679 -0.251594 -0.952712
v -1.341012 -0.242377 -0.982133
v -1.370811 -0.226005 -0.982133
v -1.386277 -0.218851 -0.952712
v -1.371944 -0.228068 -0.923290
v -1.342145 -0.244440 -0.923290
v -1.259558 -0.129421 -0.947136
v -1.273891 -0.120204 -0.976557
v -1.303690 -0.103833 -0.976557
v -1.319156 -0.096678 -0.947136
v -1.304824 -0.105896 -0.917714
v -1.275025 -0.122267 -0.917714
f 414 413 412 411 410 409
f 415 416 417 418 419 420
f 409 410 416 415
f 410 411 417 416
f 411 412 418 417
f 412 413 419 418
f 413 414 420 419
f 414 409 415 420
o wire_1_11
usemtl wire
v -1.255594 -0.117054 -0.947136
v -1.271777 -0.109157 -0.975976
v -1.305540 -0.105153 -0.975976
v -1.323121 -0.109045 -0.947136
v -1.306938 -0.116942 -0.918295
v -1.273175 -0.120947 -0.918295
v -1.236876 0.040769 -0.914424
v -1.253059 0.048666 -0.943264
v -1.286822 0.052670 -0.943264
v -1.304403 0.048778 -0.914424
v -1.288220 0.040881 -0.885584
v -1.254457 0.036877 -0.885584
f 426 425 424 423 422 421
f 427 428 429 430 431 432
f 421 422 428 427
f 422 423 429 428
f 423 424 430 429
f 424 425 431 430
f 425 426 432 431
f 426 421 427 432
o hole_front_2
usemtl ink
v -1.500000 -0.268000 -0.402500
v -1.360000 -0.268000 -0.402500
v -1.360000 -0.254000 -0.402500
v -1.500000 -0.254000 -0.402500
v -1.500000 -0.268000 -0.317500
v -1.360000 -0.268000 -0.317500
v -1.360000 -0.254000 -0.317500
v -1.500000 -0.254000 -0.317500
f 433 436 435 434
f 437 438 439 440
f 433 434 438 437
f 434 435 439 438
f 435 436 440 439
f 436 433 437 440
o hole_back_2
usemtl ink
v -1.500000 0.254000 -0.402500
v -1.360000 0.254000 -0.402500
v -1.360000 0.268000 -0.402500
v -1.500000 0.268000 -0.402500
v -1.500000 0.254000 -0.317500
v -1.360000 0.254000 -0.317500
v -1.360000 0.268000 -0.317500
v -1.500000 0.268000 -0.317500
f 441 444 443 442
f 445 446 447 448
f 441 442 446 445
f 442 443 447 446
f 443 444 448 447
f 444 441 445 448
o wire_2_00
usemtl wire
v -1.236497 0.025792 -0.360000
v -1.254198 0.028386 -0.388913
v -1.287701 0.022594 -0.388913
v -1.303503 0.014208 -0.360000
v -1.285802 0.011614 -0.331087
v -1.252299 0.017406 -0.331087
v -1.263292 0.180792 -0.329689
v -1.280992 0.183386 -0.358602
v -1.314496 0.177594 -0.358602
v -1.330298 0.169208 -0.329689
v -1.312597 0.166614 -0.300776
v -1.279094 0.172406 -0.300776
f 454 453 452 451 450 449
f 455 456 457 458 459 460
f 449 450 456 455
f 450 451 457 456
f 451 452 458 457
f 452 453 459 458
f 453 454 460 459
f 454 449 455 460
o wire_2_01
usemtl wire
v -1.268225 0.193432 -0.329689
v -1.282510 0.184216 -0.359134
v -1.311080 0.165784 -0.359134
v -1.325365 0.156568 -0.329689
v -1.311080 0.165784 -0.300244
v -1.282510 0.184216 -0.300244
v -1.341430 0.306900 -0.329689
v -1.355715 0.297684 -0.359134
v -1.384285 0.279252 -0.359134
v -1.398570 0.270036 -0.329689
v -1.384285 0.279252 -0.300244
v -1.355715 0.297684 -0.300244
f 466 465 464 463 462 461
f 467 468 469 470 471 472
f 461 462 468 467
f 462 463 469 468
f 463 464 470 469
f 464 465 471 470
f 465 466 472 471
f 466 461 467 472
o wire_2_02
usemtl wire
v -1.356959 0.319867 -0.329689
v -1.356149 0.301123 -0.358044
v -1.369190 0.269724 -0.358044
v -1.383041 0.257068 -0.329689
v -1.383851 0.275812 -0.301334
v -1.370810 0.307212 -0.301334
v -1.456959 0.361400 -0.360000
v -1.456149 0.342655 -0.388355
v -1.469190 0.311256 -0.388355
v -1.483041 0.298600 -0.360000
v -1.483851 0.317345 -0.331645
v -1.470810 0.348744 -0.331645
f 478 477 476 475 474 473
f 479 480 481 482 483 484
f 473 474 480 479
f 474 475 481 480
f 475 476 482 481
f 476 477 483 482
f 477 478 484 483
f 478 473 479 484
o wire_2_03
usemtl wire
v -1.483041 0.361400 -0.360000
v -1.469190 0.348744 -0.388355
v -1.456149 0.317345 -0.388355
v -1.456959 0.298600 -0.360000
v -1.470810 0.311256 -0.331645
v -1.483851 0.342655 -0.331645
v -1.583041 0.319867 -0.390311
v -1.569190 0.307212 -0.418666
v -1.556149 0.275812 -0.418666
v -1.556959 0.257068 -0.390311
v -1.570810 0.269724 -0.361956
v -1.583851 0.301123 -0.361956
f 490 489 488 487 486 485
f 491 492 493 494 495 496
f 485 486 492 491
f 486 487 493 492
f 487 488 494 493
f 488 489 495 494
f 489 490 496 495
f 490 485 491 496
o wire_2_04
usemtl wire
v -1.598570 0.306900 -0.390311
v -1.584285 0.297684 -0.419756
v -1.555715 0.279252 -0.419756
v -1.541430 0.270036 -0.390311
v -1.555715 0.279252 -0.360866
v -1.584285 0.297684 -0.360866
v -1.671775 0.193432 -0.390311
v -1.657490 0.184216 -0.419756
v -1.628920 0.165784 -0.419756
v -1.614635 0.156568 -0.390311
v -1.628920 0.165784 -0.360866
v -1.657490 0.184216 -0.360866
f 502 501 500 499 498 497
f 503 504 505 506 507 508
f 497 498 504 503
f 498 499 505 504
f 499 500 506 505
f 500 501 507 506
f 501 502 508 507
f 502 497 503 508
o wire_2_05
usemtl wire
v -1.676708 0.180792 -0.390311
v -1.660906 0.172406 -0.419224
v -1.627403 0.166614 -0.419224
v -1.609702 0.169208 -0.390311
v -1.625504 0.177594 -0.361398
v -1.659008 0.183386 -0.361398
v -1.703503 0.025792 -0.360000
v -1.687701 0.017406 -0.388913
v -1.654198 0.011614 -0.388913
v -1.636497 0.014208 -0.360000
v -1.652299 0.022594 -0.331087
v -1.685802 0.028386 -0.331087
f 514 513 512 511 510 509
f 515 516 517 518 519 520
f 509 510 516 515
f 510 511 517 516
f 511 512 518 517
f 512 513 519 518
f 513 514 520 519
f 514 509 515 520
o wire_2_06
usemtl wire
v -1.703503 0.014208 -0.360000
v -1.685802 0.011614 -0.388913
v -1.652299 0.017406 -0.388913
v -1.636497 0.025792 -0.360000
v -1.654198 0.028386 -0.331087
v -1.687701 0.022594 -0.331087
v -1.676708 -0.140792 -0.329689
v -1.659008 -0.143386 -0.358602
v -1.625504 -0.137594 -0.358602
v -1.609702 -0.129208 -0.329689
v -1.627403 -0.126614 -0.300776
v -1.660906 -0.132406 -0.300776
f 526 525 524 523 522 521
f 527 528 529 530 531 532
f 521 522 528 527
f 522 523 529 528
f 523 524 530 529
f 524 525 531 530
f 525 526 532 531
f 526 521 527 532
o wire_2_07
usemtl wire
v -1.671775 -0.153432 -0.329689
v -1.657490 -0.144216 -0.359134
v -1.628920 -0.125784 -0.359134
v -1.614635 -0.116568 -0.329689
v -1.628920 -0.125784 -0.300244
v -1.657490 -0.144216 -0.300244
v -1.598570 -0.266900 -0.329689
v -1.584285 -0.257684 -0.359134
v -1.555715 -0.239252 -0.359134
v -1.541430 -0.230036 -0.329689
v -1.555715 -0.239252 -0.300244
v -1.584285 -0.257684 -0.300244
f 538 537 536 535 534 533
f 539 540 541 542 543 544
f 533 534 540 539
f 534 535 541 540
f 535 536 542 541
f 536 537 543 542
f 537 538 544 543
f 538 533 539 544
o wire_2_08
usemtl wire
v -1.583041 -0.279867 -0.329689
v -1.583851 -0.261123 -0.358044
v -1.570810 -0.229724 -0.358044
v -1.556959 -0.217068 -0.329689
v -1.556149 -0.235812 -0.301334
v -1.569190 -0.267212 -0.301334
v -1.483041 -0.321400 -0.360000
v -1.483851 -0.302655 -0.388355
v -1.470810 -0.271256 -0.388355
v -1.456959 -0.258600 -0.360000
v -1.456149 -0.277345 -0.331645
v -1.469190 -0.308744 -0.331645
f 550 549 548 547 546 545
f 551 552 553 554 555 556
f 545 546 552 551
f 546 547 553 552
f 547 548 554 553
f 548 549 555 554
f 549 550 556 555
f 550 545 551 556
o wire_2_09
usemtl wire
v -1.456959 -0.321400 -0.360000
v -1.470810 -0.308744 -0.388355
v -1.483851 -0.277345 -0.388355
v -1.483041 -0.258600 -0.360000
v -1.469190 -0.271256 -0.331645
v -1.456149 -0.302655 -0.331645
v -1.356959 -0.279867 -0.390311
v -1.370810 -0.267212 -0.418666
v -1.383851 -0.235812 -0.418666
v -1.383041 -0.217068 -0.390311
v -1.369190 -0.229724 -0.361956
v -1.356149 -0.261123 -0.361956
f 562 561 560 559 558 557
f 563 564 565 566 567 568
f 557 558 564 563
f 558 559 565 564
f 559 560 566 565
f 560 561 567 566
f 561 562 568 567
f 562 557 563 568
o wire_2_10
usemtl wire
v -1.341430 -0.266900 -0.390311
v -1.355715 -0.257684 -0.419756
v -1.384285 -0.239252 -0.419756
v -1.398570 -0.230036 -0.390311
v -1.384285 -0.239252 -0.360866
v -1.355715 -0.257684 -0.360866
v -1.268225 -0.153432 -0.390311
v -1.282510 -0.144216 -0.419756
v -1.311080 -0.125784 -0.419756
v -1.325365 -0.116568 -0.390311
v -1.311080 -0.125784 -0.360866
v -1.282510 -0.144216 -0.360866
f 574 573 572 571 570 569
f 575 576 577 578 579 580
f 569 570 576 575
f 570 571 577 576
f 571 572 578 577
f 572 573 579 578
f 573 574 580 579
f 574 569 575 580
o wire_2_11
usemtl wire
v -1.263292 -0.140792 -0.390311
v -1.279094 -0.132406 -0.419224
v -1.312597 -0.126614 -0.419224
v -1.330298 -0.129208 -0.390311
v -1.314496 -0.137594 -0.361398
v -1.280992 -0.143386 -0.361398
v -1.236497 0.014208 -0.360000
v -1.252299 0.022594 -0.388913
v -1.285802 0.028386 -0.388913
v -1.303503 0.025792 -0.360000
v -1.287701 0.017406 -0.331087
v -1.254198 0.011614 -0.331087
f 586 585 584 583 582 581
f 587 588 589 590 591 592
f 581 582 588 587
f 582 583 589 588
f 583 584 590 589
f 584 585 591 590
f 585 586 592 591
f 586 581 587 592
o hole_front_3
usemtl ink
v -1.500000 -0.268000 0.157500
v -1.360000 -0.268000 0.157500
v -1.360000 -0.254000 0.157500
v -1.500000 -0.254000 0.157500
v -1.500000 -0.268000 0.242500
v -1.360000 -0.268000 0.242500
v -1.360000 -0.254000 0.242500
v -1.500000 -0.254000 0.242500
f 593 596 595 594
f 597 598 599 600
f 593 594 598 597
f 594 595 599 598
f 595 596 600 599
f 596 593 597 600
o hole_back_3
usemtl ink
v -1.500000 0.254000 0.157500
v -1.360000 0.254000 0.157500
v -1.360000 0.268000 0.157500
v -1.500000 0.268000 0.157500
v -1.500000 0.254000 0.242500
v -1.360000 0.254000 0.242500
v -1.360000 0.268000 0.242500
v -1.500000 0.268000 0.242500
f 601 604 603 602
f 605 606 607 608
f 601 602 606 605
f 602 603 607 606
f 603 604 608 607
f 604 601 605 608
o wire_3_00
usemtl wire
v -1.237501 0.052380 0.205576
v -1.255206 0.053522 0.176572
v -1.288344 0.045916 0.176572
v -1.303778 0.037168 0.205576
v -1.286074 0.036025 0.234581
v -1.252935 0.043631 0.234581
v -1.272202 0.203565 0.232712
v -1.289906 0.204707 0.203707
v -1.323045 0.197101 0.203707
v -1.338479 0.188353 0.232712
v -1.320774 0.187210 0.261716
v -1.287636 0.194816 0.261716
f 614 613 612 611 610 609
f 615 616 617 618 619 620
f 609 610 616 615
f 610 611 617 616
f 611 612 618 617
f 612 613 619 618
f 613 614 620 619
f 614 609 615 620
o wire_3_01
usemtl wire
v -1.278240 0.216491 0.232712
v -1.291031 0.205223 0.203294
v -1.318132 0.184691 0.203294
v -1.332441 0.175427 0.232712
v -1.319650 0.186695 0.262130
v -1.292549 0.207227 0.262130
v -1.357061 0.320528 0.227136
v -1.369852 0.309260 0.197718
v -1.396953 0.288728 0.197718
v -1.411262 0.279464 0.227136
v -1.398471 0.290732 0.256554
v -1.371370 0.311264 0.256554
f 626 625 624 623 622 621
f 627 628 629 630 631 632
f 621 622 628 627
f 622 623 629 628
f 623 624 630 629
f 624 625 631 630
f 625 626 632 631
f 626 621 627 632
o wire_3_02
usemtl wire
v -1.374844 0.332695 0.227136
v -1.371144 0.313963 0.199003
v -1.380461 0.281265 0.199003
v -1.393478 0.267297 0.227136
v -1.397179 0.286029 0.255268
v -1.387862 0.318727 0.255268
v -1.476666 0.361707 0.194424
v -1.472965 0.342976 0.166291
v -1.482282 0.310277 0.166291
v -1.495300 0.296310 0.194424
v -1.499001 0.315041 0.222557
v -1.489684 0.347740 0.222557
f 638 637 636 635 634 633
f 639 640 641 642 643 644
f 633 634 640 639
f 634 635 641 640
f 635 636 642 641
f 636 637 643 642
f 637 638 644 643
f 638 633 639 644
o wire_3_03
usemtl wire
v -1.502401 0.358782 0.194424
v -1.488089 0.347261 0.165816
v -1.471671 0.317487 0.165816
v -1.469565 0.299235 0.194424
v -1.483877 0.310756 0.223032
v -1.500295 0.340530 0.223032
v -1.599940 0.304996 0.167288
v -1.585628 0.293475 0.138680
v -1.569210 0.263701 0.138680
v -1.567104 0.245449 0.167288
v -1.581416 0.256970 0.195896
v -1.597834 0.286744 0.195896
f 650 649 648 647 646 645
f 651 652 653 654 655 656
f 645 646 652 651
f 646 647 653 652
f 647 648 654 653
f 648 649 655 654
f 649 650 656 655
f 650 645 651 656
o wire_3_04
usemtl wire
v -1.613321 0.291594 0.167288
v -1.598988 0.282377 0.137867
v -1.569189 0.266005 0.137867
v -1.553723 0.258851 0.167288
v -1.568056 0.268068 0.196710
v -1.597855 0.284440 0.196710
v -1.680442 0.169421 0.172864
v -1.666109 0.160204 0.143443
v -1.636310 0.143833 0.143443
v -1.620844 0.136678 0.172864
v -1.635176 0.145896 0.202286
v -1.664975 0.162267 0.202286
f 662 661 660 659 658 657
f 663 664 665 666 667 668
f 657 658 664 663
f 658 659 665 664
f 659 660 666 665
f 660 661 667 666
f 661 662 668 667
f 662 657 663 668
o wire_3_05
usemtl wire
v -1.684406 0.157054 0.172864
v -1.668223 0.149157 0.144024
v -1.634460 0.145153 0.144024
v -1.616879 0.149045 0.172864
v -1.633062 0.156942 0.201705
v -1.666825 0.160947 0.201705
v -1.703124 -0.000769 0.205576
v -1.686941 -0.008666 0.176736
v -1.653178 -0.012670 0.176736
v -1.635597 -0.008778 0.205576
v -1.651780 -0.000881 0.234416
v -1.685543 0.003123 0.234416
f 674 673 672 671 670 669
f 675 676 677 678 679 680
f 669 670 676 675
f 670 671 677 676
f 671 672 678 677
f 672 673 679 678
f 673 674 680 679
f 674 669 675 680
o wire_3_06
usemtl wire
v -1.702499 -0.012380 0.205576
v -1.684794 -0.013522 0.176572
v -1.651656 -0.005916 0.176572
v -1.636222 0.002832 0.205576
v -1.653926 0.003975 0.234581
v -1.687065 -0.003631 0.234581
v -1.667798 -0.163565 0.232712
v -1.650094 -0.164707 0.203707
v -1.616955 -0.157101 0.203707
v -1.601521 -0.148353 0.232712
v -1.619226 -0.147210 0.261716
v -1.652364 -0.154816 0.261716
f 686 685 684 683 682 681
f 687 688 689 690 691 692
f 681 682 688 687
f 682 683 689 688
f 683 684 690 689
f 684 685 691 690
f 685 686 692 691
f 686 681 687 692
o wire_3_07
usemtl wire
v -1.661760 -0.176491 0.232712
v -1.648969 -0.165223 0.203294
v -1.621868 -0.144691 0.203294
v -1.607559 -0.135427 0.232712
v -1.620350 -0.146695 0.262130
v -1.647451 -0.167227 0.262130
v -1.582939 -0.280528 0.227136
v -1.570148 -0.269260 0.197718
v -1.543047 -0.248728 0.197718
v -1.528738 -0.239464 0.227136
v -1.541529 -0.250732 0.256554
v -1.568630 -0.271264 0.256554
f 698 697 696 695 694 693
f 699 700 701 702 703 704
f 693 694 700 699
f 694 695 701 700
f 695 696 702 701
f 696 697 703 702
f 697 698 704 703
f 698 693 699 704
o wire_3_08
usemtl wire
v -1.565156 -0.292695 0.227136
v -1.568856 -0.273963 0.199003
v -1.559539 -0.241265 0.199003
v -1.546522 -0.227297 0.227136
v -1.542821 -0.246029 0.255268
v -1.552138 -0.278727 0.255268
v -1.463334 -0.321707 0.194424
v -1.467035 -0.302976 0.166291
v -1.457718 -0.270277 0.166291
v -1.444700 -0.256310 0.194424
v -1.440999 -0.275041 0.222557
v -1.450316 -0.307740 0.222557
f 710 709 708 707 706 705
f 711 712 713 714 715 716
f 705 706 712 711
f 706 707 713 712
f 707 708 714 713
f 708 709 715 714
f 709 710 716 715
f 710 705 711 716
o wire_3_09
usemtl wire
v -1.437599 -0.318782 0.194424
v -1.451911 -0.307261 0.165816
v -1.468329 -0.277487 0.165816
v -1.470435 -0.259235 0.194424
v -1.456123 -0.270756 0.223032
v -1.439705 -0.300530 0.223032
v -1.340060 -0.264996 0.167288
v -1.354372 -0.253475 0.138680
v -1.370790 -0.223701 0.138680
v -1.372896 -0.205449 0.167288
v -1.358584 -0.216970 0.195896
v -1.342166 -0.246744 0.195896
f 722 721 720 719 718 717
f 723 724 725 726 727 728
f 717 718 724 723
f 718 719 725 724
f 719 720 726 725
f 720 721 727 726
f 721 722 728 727
f 722 717 723 728
o wire_3_10
usemtl wire
v -1.326679 -0.251594 0.167288
v -1.341012 -0.242377 0.137867
v -1.370811 -0.226005 0.137867
v -1.386277 -0.218851 0.167288
v -1.371944 -0.228068 0.196710
v -1.342145 -0.244440 0.196710
v -1.259558 -0.129421 0.172864
v -1.273891 -0.120204 0.143443
v -1.303690 -0.103833 0.143443
v -1.319156 -0.096678 0.172864
v -1.304824 -0.105896 0.202286
v -1.275025 -0.122267 0.202286
f 734 733 732 731 730 729
f 735 736 737 738 739 740
f 729 730 736 735
f 730 731 737 736
f 731 732 738 737
f 732 733 739 738
f 733 734 740 739
f 734 729 735 740
o wire_3_11
usemtl wire
v -1.255594 -0.117054 0.172864
v -1.271777 -0.109157 0.144024
v -1.305540 -0.105153 0.144024
v -1.323121 -0.109045 0.172864
v -1.306938 -0.116942 0.201705
v -1.273175 -0.120947 0.201705
v -1.236876 0.040769 0.205576
v -1.253059 0.048666 0.176736
v -1.286822 0.052670 0.176736
v -1.304403 0.048778 0.205576
v -1.288220 0.040881 0.234416
v -1.254457 0.036877 0.234416
f 746 745 744 743 742 741
f 747 748 749 750 751 752
f 741 742 748 747
f 742 743 749 748
f 743 744 750 749
f 744 745 751 750
f 745 746 752 751
f 746 741 747 752
o hole_front_4
usemtl ink
v -1.500000 -0.268000 0.717500
v -1.360000 -0.268000 0.717500
v -1.360000 -0.254000 0.717500
v -1.500000 -0.254000 0.717500
v -1.500000 -0.268000 0.802500
v -1.360000 -0.268000 0.802500
v -1.360000 -0.254000 0.802500
v -1.500000 -0.254000 0.802500
f 753 756 755 754
f 757 758 759 760
f 753 754 758 757
f 754 755 759 758
f 755 756 760 759
f 756 753 757 760
o hole_back_4
usemtl ink
v -1.500000 0.254000 0.717500
v -1.360000 0.254000 0.717500
v -1.360000 0.268000 0.717500
v -1.500000 0.268000 0.717500
v -1.500000 0.254000 0.802500
v -1.360000 0.254000 0.802500
v -1.360000 0.268000 0.802500
v -1.500000 0.268000 0.802500
f 761 764 763 762
f 765 766 767 768
f 761 762 766 765
f 762 763 767 766
f 763 764 768 767
f 764 761 765 768
o wire_4_00
usemtl wire
v -1.236497 0.025792 0.760000
v -1.254198 0.028386 0.731087
v -1.287701 0.022594 0.731087
v -1.303503 0.014208 0.760000
v -1.285802 0.011614 0.788913
v -1.252299 0.017406 0.788913
v -1.263292 0.180792 0.790311
v -1.280992 0.183386 0.761398
v -1.314496 0.177594 0.761398
v -1.330298 0.169208 0.790311
v -1.312597 0.166614 0.819224
v -1.279094 0.172406 0.819224
f 774 773 772 771 770 769
f 775 776 777 778 779 780
f 769 770 776 775
f 770 771 777 776
f 771 772 778 777
f 772 773 779 778
f 773 774 780 779
f 774 769 775 780
o wire_4_01
usemtl wire
v -1.268225 0.193432 0.790311
v -1.282510 0.184216 0.760866
v -1.311080 0.165784 0.760866
v -1.325365 0.156568 0.790311
v -1.311080 0.165784 0.819756
v -1.282510 0.184216 0.819756
v -1.341430 0.306900 0.790311
v -1.355715 0.297684 0.760866
v -1.384285 0.279252 0.760866
v -1.398570 0.270036 0.790311
v -1.384285 0.279252 0.819756
v -1.355715 0.297684 0.819756
f 786 785 784 783 782 781
f 787 788 789 790 791 792
f 781 782 788 787
f 782 783 789 788
f 783 784 790 789
f 784 785 791 790
f 785 786 792 791
f 786 781 787 792
o wire_4_02
usemtl wire
v -1.356959 0.319867 0.790311
v -1.356149 0.301123 0.761956
v -1.369190 0.269724 0.761956
v -1.383041 0.257068 0.790311
v -1.383851 0.275812 0.818666
v -1.370810 0.307212 0.818666
v -1.456959 0.361400 0.760000
v -1.456149 0.342655 0.731645
v -1.469190 0.311256 0.731645
v -1.483041 0.298600 0.760000
v -1.483851 0.317345 0.788355
v -1.470810 0.348744 0.788355
f 798 797 796 795 794 793
f 799 800 801 802 803 804
f 793 794 800 799
f 794 795 801 800
f 795 796 802 801
f 796 797 803 802
f 797 798 804 803
f 798 793 799 804
o wire_4_03
usemtl wire
v -1.483041 0.361400 0.760000
v -1.469190 0.348744 0.731645
v -1.456149 0.317345 0.731645
v -1.456959 0.298600 0.760000
v -1.470810 0.311256 0.788355
v -1.483851 0.342655 0.788355
v -1.583041 0.319867 0.729689
v -1.569190 0.307212 0.701334
v -1.556149 0.275812 0.701334
v -1.556959 0.257068 0.729689
v -1.570810 0.269724 0.758044
v -1.583851 0.301123 0.758044
f 810 809 808 807 806 805
f 811 812 813 814 815 816
f 805 806 812 811
f 806 807 813 812
f 807 808 814 813
f 808 809 815 814
f 809 810 816 815
f 810 805 811 816
o wire_4_04
usemtl wire
v -1.598570 0.306900 0.729689
v -1.584285 0.297684 0.700244
v -1.555715 0.279252 0.700244
v -1.541430 0.270036 0.729689
v -1.555715 0.279252 0.759134
v -1.584285 0.297684 0.759134
v -1.671775 0.193432 0.729689
v -1.657490 0.184216 0.700244
v -1.628920 0.165784 0.700244
v -1.614635 0.156568 0.729689
v -1.628920 0.165784 0.759134
v -1.657490 0.184216 0.759134
f 822 821 820 819 818 817
f 823 824 825 826 827 828
f 817 818 824 823
f 818 819 825 824
f 819 820 826 825
f 820 821 827 826
f 821 822 828 827
f 822 817 823 828
o wire_4_05
usemtl wire
v -1.676708 0.180792 0.729689
v -1.660906 0.172406 0.700776
v -1.627403 0.166614 0.700776
v -1.609702 0.169208 0.729689
v -1.625504 0.177594 0.758602
v -1.659008 0.183386 0.758602
v -1.703503 0.025792 0.760000
v -1.687701 0.017406 0.731087
v -1.654198 0.011614 0.731087
v -1.636497 0.014208 0.760000
v -1.652299 0.022594 0.788913
v -1.685802 0.028386 0.788913
f 834 833 832 831 830 829
f 835 836 837 838 839 840
f 829 830 836 835
f 830 831 837 836
f 831 832 838 837
f 832 833 839 838
f 833 834 840 839
f 834 829 835 840
o wire_4_06
usemtl wire
v -1.703503 0.014208 0.760000
v -1.685802 0.011614 0.731087
v -1.652299 0.017406 0.731087
v -1.636497 0.025792 0.760000
v -1.654198 0.028386 0.788913
v -1.687701 0.022594 0.788913
v -1.676708 -0.140792 0.790311
v -1.659008 -0.143386 0.761398
v -1.625504 -0.137594 0.761398
v -1.609702 -0.129208 0.790311
v -1.627403 -0.126614 0.819224
v -1.660906 -0.132406 0.819224
f 846 845 844 843 842 841
f 847 848 849 850 851 852
f 841 842 848 847
f 842 843 849 848
f 843 844 850 849
f 844 845 851 850
f 845 846 852 851
f 846 841 847 852
o wire_4_07
usemtl wire
v -1.671775 -0.153432 0.790311
v -1.657490 -0.144216 0.760866
v -1.628920 -0.125784 0.760866
v -1.614635 -0.116568 0.790311
v -1.628920 -0.125784 0.819756
v -1.657490 -0.144216 0.819756
v -1.598570 -0.266900 0.790311
v -1.584285 -0.257684 0.760866
v -1.555715 -0.239252 0.760866
v -1.541430 -0.230036 0.790311
v -1.555715 -0.239252 0.819756
v -1.584285 -0.257684 0.819756
f 858 857 856 855 854 853
f 859 860 861 862 863 864
f 853 854 860 859
f 854 855 861 860
f 855 856 862 861
f 856 857 863 862
f 857 858 864 863
f 858 853 859 864
o wire_4_08
usemtl wire
v -1.583041 -0.279867 0.790311
v -1.583851 -0.261123 0.761956
v -1.570810 -0.229724 0.761956
v -1.556959 -0.217068 0.790311
v -1.556149 -0.235812 0.818666
v -1.569190 -0.267212 0.818666
v -1.483041 -0.321400 0.760000
v -1.483851 -0.302655 0.731645
v -1.470810 -0.271256 0.731645
v -1.456959 -0.258600 0.760000
v -1.456149 -0.277345 0.788355
v -1.469190 -0.308744 0.788355
f 870 869 868 867 866 865
f 871 872 873 874 875 876
f 865 866 872 871
f 866 867 873 872
f 867 868 874 873
f 868 869 875 874
f 869 870 876 875
f 870 865 871 876
o wire_4_09
usemtl wire
v -1.456959 -0.321400 0.760000
v -1.470810 -0.308744 0.731645
v -1.483851 -0.277345 0.731645
v -1.483041 -0.258600 0.760000
v -1.469190 -0.271256 0.788355
v -1.456149 -0.302655 0.788355
v -1.356959 -0.279867 0.729689
v -1.370810 -0.267212 0.701334
v -1.383851 -0.235812 0.701334
v -1.383041 -0.217068 0.729689
v -1.369190 -0.229724 0.758044
v -1.356149 -0.261123 0.758044
f 882 881 880 879 878 877
f 883 884 885 886 887 888
f 877 878 884 883
f 878 879 885 884
f 879 880 886 885
f 880 881 887 886
f 881 882 888 887
f 882 877 883 888
o wire_4_10
usemtl wire
v -1.341430 -0.266900 0.729689
v -1.355715 -0.257684 0.700244
v -1.384285 -0.239252 0.700244
v -1.398570 -0.230036 0.729689
v -1.384285 -0.239252 0.759134
v -1.355715 -0.257684 0.759134
v -1.268225 -0.153432 0.729689
v -1.282510 -0.144216 0.700244
v -1.311080 -0.125784 0.700244
v -1.325365 -0.116568 0.729689
v -1.311080 -0.125784 0.759134
v -1.282510 -0.144216 0.759134
f 894 893 892 891 890 889
f 895 896 897 898 899 900
f 889 890 896 895
f 890 891 897 896
f 891 892 898 897
f 892 893 899 898
f 893 894 900 899
f 894 889 895 900
o wire_4_11
usemtl wire
v -1.263292 -0.140792 0.729689
v -1.279094 -0.132406 0.700776
v -1.312597 -0.126614 0.700776
v -1.330298 -0.129208 0.729689
v -1.314496 -0.137594 0.758602
v -1.280992 -0.143386 0.758602
v -1.236497 0.014208 0.760000
v -1.252299 0.022594 0.731087
v -1.285802 0.028386 0.731087
v -1.303503 0.025792 0.760000
v -1.287701 0.017406 0.788913
v -1.254198 0.011614 0.788913
f 906 905 904 903 902 901
f 907 908 909 910 911 912
f 901 902 908 907
f 902 903 909 908
f 903 904 910 909
f 904 905 911 910
f 905 906 912 911
f 906 901 907 912
o hole_front_5
usemtl ink
v -1.500000 -0.268000 1.277500
v -1.360000 -0.268000 1.277500
v -1.360000 -0.254000 1.277500
v -1.500000 -0.254000 1.277500
v -1.500000 -0.268000 1.362500
v -1.360000 -0.268000 1.362500
v -1.360000 -0.254000 1.362500
v -1.500000 -0.254000 1.362500
f 913 916 915 914
f 917 918 919 920
f 913 914 918 917
f 914 915 919 918
f 915 916 920 919
f 916 913 917 920
o hole_back_5
usemtl ink
v -1.500000 0.254000 1.277500
v -1.360000 0.254000 1.277500
v -1.360000 0.268000 1.277500
v -1.500000 0.268000 1.277500
v -1.500000 0.254000 1.362500
v -1.360000 0.254000 1.362500
v -1.360000 0.268000 1.362500
v -1.500000 0.268000 1.362500
f 921 924 923 922
f 925 926 927 928
f 921 922 926 925
f 922 923 927 926
f 923 924 928 927
f 924 921 925 928
o wire_5_00
usemtl wire
v -1.237501 0.052380 1.325576
v -1.255206 0.053522 1.296572
v -1.288344 0.045916 1.296572
v -1.303778 0.037168 1.325576
v -1.286074 0.036025 1.354581
v -1.252935 0.043631 1.354581
v -1.272202 0.203565 1.352712
v -1.289906 0.204707 1.323707
v -1.323045 0.197101 1.323707
v -1.338479 0.188353 1.352712
v -1.320774 0.187210 1.381716
v -1.287636 0.194816 1.381716
f 934 933 932 931 930 929
f 935 936 937 938 939 940
f 929 930 936 935
f 930 931 937 936
f 931 932 938 937
f 932 933 939 938
f 933 934 940 939
f 934 929 935 940
o wire_5_01
usemtl wire
v -1.278240 0.216491 1.352712
v -1.291031 0.205223 1.323294
v -1.318132 0.184691 1.323294
v -1.332441 0.175427 1.352712
v -1.319650 0.186695 1.382130
v -1.292549 0.207227 1.382130
v -1.357061 0.320528 1.347136
v -1.369852 0.309260 1.317718
v -1.396953 0.288728 1.317718
v -1.411262 0.279464 1.347136
v -1.398471 0.290732 1.376554
v -1.371370 0.311264 1.376554
f 946 945 944 943 942 941
f 947 948 949 950 951 952
f 941 942 948 947
f 942 943 949 948
f 943 944 950 949
f 944 945 951 950
f 945 946 952 951
f 946 941 947 952
o wire_5_02
usemtl wire
v -1.374844 0.332695 1.347136
v -1.371144 0.313963 1.319003
v -1.380461 0.281265 1.319003
v -1.393478 0.267297 1.347136
v -1.397179 0.286029 1.375268
v -1.387862 0.318727 1.375268
v -1.476666 0.361707 1.314424
v -1.472965 0.342976 1.286291
v -1.482282 0.310277 1.286291
v -1.495300 0.296310 1.314424
v -1.499001 0.315041 1.342557
v -1.489684 0.347740 1.342557
f 958 957 956 955 954 953
f 959 960 961 962 963 964
f 953 954 960 959
f 954 955 961 960
f 955 956 962 961
f 956 957 963 962
f 957 958 964 963
f 958 953 959 964
o wire_5_03
usemtl wire
v -1.502401 0.358782 1.314424
v -1.488089 0.347261 1.285816
v -1.471671 0.317487 1.285816
v -1.469565 0.299235 1.314424
v -1.483877 0.310756 1.343032
v -1.500295 0.340530 1.343032
v -1.599940 0.304996 1.287288
v -1.585628 0.293475 1.258680
v -1.569210 0.263701 1.258680
v -1.567104 0.245449 1.287288
v -1.581416 0.256970 1.315896
v -1.597834 0.286744 1.315896
f 970 969 968 967 966 965
f 971 972 973 974 975 976
f 965 966 972 971
f 966 967 973 972
f 967 968 974 973
f 968 969 975 974
f 969 970 976 975
f 970 965 971 976
o wire_5_04
usemtl wire
v -1.613321 0.291594 1.287288
v -1.598988 0.282377 1.257867
v -1.569189 0.266005 1.257867
v -1.553723 0.258851 1.287288
v -1.568056 0.268068 1.316710
v -1.597855 0.284440 1.316710
v -1.680442 0.169421 1.292864
v -1.666109 0.160204 1.263443
v -1.636310 0.143833 1.263443
v -1.620844 0.136678 1.292864
v -1.635176 0.145896 1.322286
v -1.664975 0.162267 1.322286
f 982 981 980 979 978 977
f 983 984 985 986 987 988
f 977 978 984 983
f 978 979 985 984
f 979 980 986 985
f 980 981 987 986
f 981 982 988 987
f 982 977 983 988
o wire_5_05
usemtl wire
v -1.684406 0.157054 1.292864
v -1.668223 0.149157 1.264024
v -1.634460 0.145153 1.264024
v -1.616879 0.149045 1.292864
v -1.633062 0.156942 1.321705
v -1.666825 0.160947 1.321705
v -1.703124 -0.000769 1.325576
v -1.686941 -0.008666 1.296736
v -1.653178 -0.012670 1.296736
v -1.635597 -0.008778 1.325576
v -1.651780 -0.000881 1.354416
v -1.685543 0.003123 1.354416
f 994 993 992 991 990 989
f 995 996 997 998 999 1000
f 989 990 996 995
f 990 991 997 996
f 991 992 998 997
f 992 993 999 998
f 993 994 1000 999
f 994 989 995 1000
o wire_5_06
usemtl wire
v -1.702499 -0.012380 1.325576
v -1.684794 -0.013522 1.296572
v -1.651656 -0.005916 1.296572
v -1.636222 0.002832 1.325576
v -1.653926 0.003975 1.354581
v -1.687065 -0.003631 1.354581
v -1.667798 -0.163565 1.352712
v -1.650094 -0.164707 1.323707
v -1.616955 -0.157101 1.323707
v -1.601521 -0.148353 1.352712
v -1.619226 -0.147210 1.381716
v -1.652364 -0.154816 1.381716
f 1006 1005 1004 1003 1002 1001
f 1007 1008 1009 1010 1011 1012
f 1001 1002 1008 1007
f 1002 1003 1009 1008
f 1003 1004 1010 1009
f 1004 1005 1011 1010
f 1005 1006 1012 1011
f 1006 1001 1007 1012
o wire_5_07
usemtl wire
v -1.661760 -0.176491 1.352712
v -1.648969 -0.165223 1.323294
v -1.621868 -0.144691 1.323294
v -1.607559 -0.135427 1.352712
v -1.620350 -0.146695 1.382130
v -1.647451 -0.167227 1.382130
v -1.582939 -0.280528 1.347136
v -1.570148 -0.269260 1.317718
v -1.543047 -0.248728 1.317718
v -1.528738 -0.239464 1.347136
v -1.541529 -0.250732 1.376554
v -1.568630 -0.271264 1.376554
f 1018 1017 1016 1015 1014 1013
f 1019 1020 1021 1022 1023 1024
f 1013 1014 1020 1019
f 1014 1015 1021 1020
f 1015 1016 1022 1021
f 1016 1017 1023 1022
f 1017 1018 1024 1023
f 1018 1013 1019 1024
o wire_5_08
usemtl wire
v -1.565156 -0.292695 1.347136
v -1.568856 -0.273963 1.319003
v -1.559539 -0.241265 1.319003
v -1.546522 -0.227297 1.347136
v -1.542821 -0.246029 1.375268
v -1.552138 -0.278727 1.375268
v -1.463334 -0.321707 1.314424
v -1.467035 -0.302976 1.286291
v -1.457718 -0.270277 1.286291
v -1.444700 -0.256310 1.314424
v -1.440999 -0.275041 1.342557
v -1.450316 -0.307740 1.342557
f 1030 1029 1028 1027 1026 1025
f 1031 1032 1033 1034 1035 1036
f 1025 1026 1032 1031
f 1026 1027 1033 1032
f 1027 1028 1034 1033
f 1028 1029 1035 1034
f 1029 1030 1036 1035
f 1030 1025 1031 1036
o wire_5_09
usemtl wire
v -1.437599 -0.318782 1.314424
v -1.451911 -0.307261 1.285816
v -1.468329 -0.277487 1.285816
v -1.470435 -0.259235 1.314424
v -1.456123 -0.270756 1.343032
v -1.439705 -0.300530 1.343032
v -1.340060 -0.264996 1.287288
v -1.354372 -0.253475 1.258680
v -1.370790 -0.223701 1.258680
v -1.372896 -0.205449 1.287288
v -1.358584 -0.216970 1.315896
v -1.342166 -0.246744 1.315896
f 1042 1041 1040 1039 1038 1037
f 1043 1044 1045 1046 1047 1048
f 1037 1038 1044 1043
f 1038 1039 1045 1044
f 1039 1040 1046 1045
f 1040 1041 1047 1046
f 1041 1042 1048 1047
f 1042 1037 1043 1048
o wire_5_10
usemtl wire
v -1.326679 -0.251594 1.287288
v -1.341012 -0.242377 1.257867
v -1.370811 -0.226005 1.257867
v -1.386277 -0.218851 1.287288
v -1.371944 -0.228068 1.316710
v -1.342145 -0.244440 1.316710
v -1.259558 -0.129421 1.292864
v -1.273891 -0.120204 1.263443
v -1.303690 -0.103833 1.263443
v -1.319156 -0.096678 1.292864
v -1.304824 -0.105896 1.322286
v -1.275025 -0.122267 1.322286
f 1054 1053 1052 1051 1050 1049
f 1055 1056 1057 1058 1059 1060
f 1049 1050 1056 1055
f 1050 1051 1057 1056
f 1051 1052 1058 1057
f 1052 1053 1059 1058
f 1053 1054 1060 1059
f 1054 1049 1055 1060
o wire_5_11
usemtl wire
v -1.255594 -0.117054 1.292864
v -1.271777 -0.109157 1.264024
v -1.305540 -0.105153 1.264024
v -1.323121 -0.109045 1.292864
v -1.306938 -0.116942 1.321705
v -1.273175 -0.120947 1.321705
v -1.236876 0.040769 1.325576
v -1.253059 0.048666 1.296736
v -1.286822 0.052670 1.296736
v -1.304403 0.048778 1.325576
v -1.288220 0.040881 1.354416
v -1.254457 0.036877 1.354416
f 1066 1065 1064 1063 1062 1061
f 1067 1068 1069 1070 1071 1072
f 1061 1062 1068 1067
f 1062 1063 1069 1068
f 1063 1064 1070 1069
f 1064 1065 1071 1070
f 1065 1066 1072 1071
f 1066 1061 1067 1072
o cover_wear_0
usemtl wear
v -1.415000 -0.277367 1.645895
v -1.165000 -0.277367 1.645895
v -1.165000 -0.259424 1.644457
v -1.415000 -0.259424 1.644457
v -1.415000 -0.268576 1.755543
v -1.165000 -0.268576 1.755543
v -1.165000 -0.250633 1.754105
v -1.415000 -0.250633 1.754105
f 1073 1076 1075 1074
f 1077 1078 1079 1080
f 1073 1074 1078 1077
f 1074 1075 1079 1078
f 1075 1076 1080 1079
f 1076 1073 1077 1080
o cover_wear_1
usemtl wear
v 1.165000 -0.273000 -1.785000
v 1.415000 -0.273000 -1.785000
v 1.415000 -0.255000 -1.785000
v 1.165000 -0.255000 -1.785000
v 1.165000 -0.273000 -1.695000
v 1.415000 -0.273000 -1.695000
v 1.415000 -0.255000 -1.695000
v 1.165000 -0.255000 -1.695000
f 1081 1084 1083 1082
f 1085 1086 1087 1088
f 1081 1082 1086 1085
f 1082 1083 1087 1086
f 1083 1084 1088 1087
f 1084 1081 1085 1088
o cover_wear_2
usemtl wear
v -0.780000 -0.271573 -1.878163
v -0.320000 -0.271573 -1.878163
v -0.320000 -0.253630 -1.876725
v -0.780000 -0.253630 -1.876725
v -0.780000 -0.274370 -1.843275
v -0.320000 -0.274370 -1.843275
v -0.320000 -0.256427 -1.841837
v -0.780000 -0.256427 -1.841837
f 1089 1092 1091 1090
f 1093 1094 1095 1096
f 1089 1090 1094 1093
f 1090 1091 1095 1094
f 1091 1092 1096 1095
f 1092 1089 1093 1096
o cover_wear_3
usemtl wear
v 0.550000 -0.270495 1.863758
v 0.890000 -0.270495 1.863758
v 0.890000 -0.252725 1.866625
v 0.550000 -0.252725 1.866625
v 0.550000 -0.275275 1.893375
v 0.890000 -0.275275 1.893375
v 0.890000 -0.257505 1.896242
v 0.550000 -0.257505 1.896242
f 1097 1100 1099 1098
f 1101 1102 1103 1104
f 1097 1098 1102 1101
f 1098 1099 1103 1102
f 1099 1100 1104 1103
f 1100 1097 1101 1104
o title_bar
usemtl ink
v -0.510000 -0.273000 0.402500
v 0.770000 -0.273000 0.402500
v 0.770000 -0.261000 0.402500
v -0.510000 -0.261000 0.402500
v -0.510000 -0.273000 0.457500
v 0.770000 -0.273000 0.457500
v 0.770000 -0.261000 0.457500
v -0.510000 -0.261000 0.457500
f 1105 1108 1107 1106
f 1109 1110 1111 1112
f 1105 1106 1110 1109
f 1106 1107 1111 1110
f 1107 1108 1112 1111
f 1108 1105 1109 1112
o title_bar_short
usemtl ink
v -0.505000 -0.273000 0.262500
v 0.265000 -0.273000 0.262500
v 0.265000 -0.261000 0.262500
v -0.505000 -0.261000 0.262500
v -0.505000 -0.273000 0.297500
v 0.265000 -0.273000 0.297500
v 0.265000 -0.261000 0.297500
v -0.505000 -0.261000 0.297500
f 1113 1116 1115 1114
f 1117 1118 1119 1120
f 1113 1114 1118 1117
f 1114 1115 1119 1118
f 1115 1116 1120 1119
f 1116 1113 1117 1120
o bottom_mark_0
usemtl ink
v 0.440000 -0.273000 -1.562500
v 0.560000 -0.273000 -1.562500
v 0.560000 -0.261000 -1.562500
v 0.440000 -0.261000 -1.562500
v 0.440000 -0.273000 -1.537500
v 0.560000 -0.273000 -1.537500
v 0.560000 -0.261000 -1.537500
v 0.440000 -0.261000 -1.537500
f 1121 1124 1123 1122
f 1125 1126 1127 1128
f 1121 1122 1126 1125
f 1122 1123 1127 1126
f 1123 1124 1128 1127
f 1124 1121 1125 1128
o bottom_mark_1
usemtl ink
v 0.620000 -0.273000 -1.537500
v 0.740000 -0.273000 -1.537500
v 0.740000 -0.261000 -1.537500
v 0.620000 -0.261000 -1.537500
v 0.620000 -0.273000 -1.512500
v 0.740000 -0.273000 -1.512500
v 0.740000 -0.261000 -1.512500
v 0.620000 -0.261000 -1.512500
f 1129 1132 1131 1130
f 1133 1134 1135 1136
f 1129 1130 1134 1133
f 1130 1131 1135 1134
f 1131 1132 1136 1135
f 1132 1129 1133 1136
o bottom_mark_2
usemtl ink
v 0.800000 -0.273000 -1.512500
v 0.920000 -0.273000 -1.512500
v 0.920000 -0.261000 -1.512500
v 0.800000 -0.261000 -1.512500
v 0.800000 -0.273000 -1.487500
v 0.920000 -0.273000 -1.487500
v 0.920000 -0.261000 -1.487500
v 0.800000 -0.261000 -1.487500
f 1137 1140 1139 1138
f 1141 1142 1143 1144
f 1137 1138 1142 1141
f 1138 1139 1143 1142
f 1139 1140 1144 1143
f 1140 1137 1141 1144